<?xml version="1.0" encoding="utf-8"?>
<!-- Generator: Adobe Illustrator 18.1.1, SVG Export Plug-In . SVG Version: 6.00 Build 0)  -->
<!DOCTYPE svg PUBLIC "-//W3C//DTD SVG 1.1//EN" "http://www.w3.org/Graphics/SVG/1.1/DTD/svg11.dtd">
<svg version="1.1" id="Layer_1" xmlns="http://www.w3.org/2000/svg" xmlns:xlink="http://www.w3.org/1999/xlink" x="0px" y="0px"
	 viewBox="-345 252 109 97" enable-background="new -345 252 109 97" xml:space="preserve">
<g>
	<polygon fill="#34E27E" points="-290.7,260.4 -316.6,260.4 -290.7,271.4 -264.7,260.4 	"/>
	<polygon fill="#34E27E" points="-290.7,273.2 -316.6,262 -316.6,273.2 -316.6,284.3 -290.7,295.4 -264.7,306.5 -264.7,295.4 
		-264.7,284.3 	"/>
	<polygon fill="#34E27E" points="-290.6,297.1 -316.6,307.9 -290.7,319.5 -264.6,308.4 	"/>
	<g>
		<path d="M-330.6,329.8c-0.6,0-1.1,0.1-1.5,0.4c-0.4,0.2-0.6,0.6-0.6,1.1c0,0.5,0.2,0.9,0.6,1.1c0.4,0.3,1.2,0.5,2.5,0.9
			c1.3,0.3,2.2,0.7,2.8,1.3c0.6,0.6,1,1.4,1,2.4c0,1.1-0.4,1.9-1.2,2.6c-0.8,0.7-1.9,1-3.2,1c-1.9,0-3.6-0.7-5.1-2l1.3-1.6
			c1.2,1.1,2.5,1.6,3.9,1.6c0.7,0,1.2-0.1,1.6-0.4c0.4-0.3,0.6-0.7,0.6-1.1c0-0.5-0.2-0.8-0.6-1.1c-0.4-0.3-1-0.5-1.9-0.7
			c-0.9-0.2-1.6-0.4-2.1-0.6c-0.5-0.2-0.9-0.4-1.2-0.7c-0.7-0.6-1.1-1.4-1.1-2.5c0-1.1,0.4-2,1.2-2.6c0.8-0.6,1.8-0.9,3.1-0.9
			c0.8,0,1.6,0.1,2.3,0.4c0.8,0.3,1.4,0.6,2,1.1l-1.1,1.6c-0.4-0.3-0.9-0.6-1.5-0.8C-329.4,329.9-330,329.8-330.6,329.8z"/>
		<path d="M-321.7,337.7l-1.2,2.8h-2.2l5.4-12.3h2.2l5.4,12.3h-2.2l-1.2-2.8H-321.7z M-316.3,335.8l-2.2-5.1l-2.2,5.1H-316.3z"/>
		<path d="M-301.8,334.5h2.1v4.2c-1.2,1.3-2.8,1.9-5,1.9c-1.8,0-3.3-0.6-4.6-1.8s-1.8-2.7-1.8-4.5s0.6-3.4,1.9-4.6
			c1.2-1.2,2.8-1.8,4.5-1.8c1.8,0,3.2,0.5,4.4,1.5l-1.1,1.6c-0.5-0.4-1-0.7-1.5-0.9s-1.1-0.2-1.7-0.2c-1.2,0-2.3,0.4-3.1,1.2
			c-0.8,0.8-1.3,1.9-1.3,3.2c0,1.3,0.4,2.4,1.2,3.1c0.8,0.8,1.8,1.2,3,1.2c1.2,0,2.1-0.3,2.9-0.8V334.5z"/>
		<path d="M-295.4,337.7l-1.2,2.8h-2.2l5.4-12.3h2.2l5.4,12.3h-2.2l-1.2-2.8H-295.4z M-290.1,335.8l-2.2-5.1l-2.2,5.1H-290.1z"/>
		<path d="M-278.5,338.6c0.7,0,1.3-0.1,1.8-0.4c0.5-0.2,1.1-0.6,1.6-1.2l1.3,1.4c-1.3,1.4-2.9,2.2-4.7,2.2c-1.9,0-3.4-0.6-4.6-1.8
			c-1.2-1.2-1.8-2.7-1.8-4.5s0.6-3.4,1.9-4.6c1.2-1.2,2.8-1.8,4.7-1.8c1.9,0,3.5,0.7,4.8,2.1l-1.3,1.4c-0.6-0.6-1.1-1-1.7-1.2
			c-0.5-0.2-1.1-0.3-1.8-0.3c-1.2,0-2.3,0.4-3.1,1.2c-0.8,0.8-1.3,1.8-1.3,3.1c0,1.2,0.4,2.3,1.3,3.1
			C-280.6,338.2-279.6,338.6-278.5,338.6z"/>
		<path d="M-271.2,328.2h2.1v12.3h-2.1V328.2z"/>
		<path d="M-263.6,330.1v3.4h5.5v1.9h-5.5v5.1h-2.1v-12.3h8.2l0,1.9H-263.6z"/>
		<path d="M-250.2,340.5h-2.1v-4.9l-4.6-7.4h2.3l3.4,5.6l3.4-5.6h2.3l-4.6,7.4V340.5z"/>
	</g>
</g>
</svg>
