<?xml version="1.0" encoding="utf-8"?>
<!-- Generator: Adobe Illustrator 18.1.1, SVG Export Plug-In . SVG Version: 6.00 Build 0)  -->
<svg version="1.1" id="Calque_1" xmlns="http://www.w3.org/2000/svg" xmlns:xlink="http://www.w3.org/1999/xlink" x="0px" y="0px"
	 viewBox="0 0 64.3 69.6" enable-background="new 0 0 64.3 69.6" xml:space="preserve">
<path fill="#EDEDED" stroke="#1E2538" stroke-width="0.5" stroke-miterlimit="10" d="M60.3,69.1H9.7c-0.6,0-1-0.4-1-1V1.5
	c0-0.5,0.4-1,1-1h50.6c0.5,0,1,0.4,1,1v66.6C61.3,68.6,60.8,69.1,60.3,69.1z"/>
<path fill="#F2F5F9" stroke="#1E2538" stroke-width="0.5" stroke-miterlimit="10" d="M56,60H14c-0.6,0-1-0.5-1-1V7.5
	c0-0.5,0.4-1,1-1h42c0.5,0,1,0.5,1,1V59C57,59.5,56.5,60,56,60z"/>
<circle fill="#1E2538" cx="35" cy="64.1" r="1.7"/>
<circle fill="#1E2538" cx="35" cy="3.5" r="0.7"/>
<polygon opacity="0.5" fill="#FFFFFF" points="40.8,0.6 13.3,0.6 60.8,65.9 60.8,28 "/>
<polyline fill="#FEF3D1" stroke="#1E2538" stroke-width="0.5" stroke-linecap="round" stroke-linejoin="round" stroke-miterlimit="10" points="
	34,24.7 17.8,24.7 17.8,22.8 34,19.2 39.8,19.2 63.8,23.3 63.8,24.7 39.8,24.7 "/>
<rect x="15.8" y="22.8" fill="#FEF3D1" stroke="#1E2538" stroke-width="0.5" stroke-linecap="round" stroke-linejoin="round" stroke-miterlimit="10" width="1.9" height="1.9"/>
<rect x="34" y="19.2" fill="#FDE9A5" stroke="#1E2538" stroke-width="0.5" stroke-linecap="round" stroke-linejoin="round" stroke-miterlimit="10" width="5.8" height="5.8"/>
<rect x="34" y="24.7" fill="#FDE9A5" stroke="#1E2538" stroke-width="0.5" stroke-linecap="round" stroke-linejoin="round" stroke-miterlimit="10" width="5.8" height="6.9"/>
<rect x="34" y="39.4" fill="#FDE9A5" stroke="#1E2538" stroke-width="0.5" stroke-linecap="round" stroke-linejoin="round" stroke-miterlimit="10" width="5.8" height="6.9"/>
<rect x="34" y="46.3" fill="#FDE9A5" stroke="#1E2538" stroke-width="0.5" stroke-linecap="round" stroke-linejoin="round" stroke-miterlimit="10" width="5.8" height="6.9"/>
<rect x="34" y="53.1" fill="#FDE9A5" stroke="#1E2538" stroke-width="0.5" stroke-linecap="round" stroke-linejoin="round" stroke-miterlimit="10" width="5.8" height="6.9"/>
<rect x="34" y="31.6" fill="#FDE9A5" stroke="#1E2538" stroke-width="0.5" stroke-linecap="round" stroke-linejoin="round" stroke-miterlimit="10" width="5.8" height="2.6"/>
<rect x="34" y="34.1" fill="#FDE9A5" stroke="#1E2538" stroke-width="0.5" stroke-linecap="round" stroke-linejoin="round" stroke-miterlimit="10" width="5.8" height="2.6"/>
<rect x="34" y="36.7" fill="#FDE9A5" stroke="#1E2538" stroke-width="0.5" stroke-linecap="round" stroke-linejoin="round" stroke-miterlimit="10" width="5.8" height="2.6"/>
<line fill="none" stroke="#1E2538" stroke-width="0.5" stroke-linecap="round" stroke-linejoin="round" stroke-miterlimit="10" x1="34" y1="19.2" x2="39.8" y2="24.7"/>
<line fill="none" stroke="#1E2538" stroke-width="0.5" stroke-linecap="round" stroke-linejoin="round" stroke-miterlimit="10" x1="39.8" y1="19.2" x2="34" y2="24.7"/>
<line fill="none" stroke="#1E2538" stroke-width="0.5" stroke-linecap="round" stroke-linejoin="round" stroke-miterlimit="10" x1="20.5" y1="24.7" x2="20.5" y2="22.2"/>
<line fill="none" stroke="#1E2538" stroke-width="0.5" stroke-linecap="round" stroke-linejoin="round" stroke-miterlimit="10" x1="25.2" y1="24.7" x2="25.2" y2="21.2"/>
<line fill="none" stroke="#1E2538" stroke-width="0.5" stroke-linecap="round" stroke-linejoin="round" stroke-miterlimit="10" x1="29.8" y1="24.7" x2="29.8" y2="20.5"/>
<line fill="none" stroke="#1E2538" stroke-width="0.5" stroke-linecap="round" stroke-linejoin="round" stroke-miterlimit="10" x1="20.5" y1="24.7" x2="24.9" y2="21.2"/>
<line fill="none" stroke="#1E2538" stroke-width="0.5" stroke-linecap="round" stroke-linejoin="round" stroke-miterlimit="10" x1="25.2" y1="24.7" x2="29.8" y2="20.2"/>
<line fill="none" stroke="#1E2538" stroke-width="0.5" stroke-linecap="round" stroke-linejoin="round" stroke-miterlimit="10" x1="30" y1="24.5" x2="33.8" y2="19.3"/>
<line fill="none" stroke="#1E2538" stroke-width="0.5" stroke-linecap="round" stroke-linejoin="round" stroke-miterlimit="10" x1="53.4" y1="24.7" x2="53.4" y2="21.7"/>
<line fill="none" stroke="#1E2538" stroke-width="0.5" stroke-linecap="round" stroke-linejoin="round" stroke-miterlimit="10" x1="48.7" y1="24.7" x2="48.7" y2="21"/>
<line fill="none" stroke="#1E2538" stroke-width="0.5" stroke-linecap="round" stroke-linejoin="round" stroke-miterlimit="10" x1="44.1" y1="24.7" x2="44.1" y2="20.1"/>
<line fill="none" stroke="#1E2538" stroke-width="0.5" stroke-linecap="round" stroke-linejoin="round" stroke-miterlimit="10" x1="56.9" y1="24.7" x2="53.4" y2="21.7"/>
<line fill="none" stroke="#1E2538" stroke-width="0.5" stroke-linecap="round" stroke-linejoin="round" stroke-miterlimit="10" x1="56.9" y1="24.5" x2="56.9" y2="22.1"/>
<line fill="none" stroke="#1E2538" stroke-width="0.5" stroke-linecap="round" stroke-linejoin="round" stroke-miterlimit="10" x1="60.5" y1="24.7" x2="56.9" y2="22.1"/>
<line fill="none" stroke="#1E2538" stroke-width="0.5" stroke-linecap="round" stroke-linejoin="round" stroke-miterlimit="10" x1="60.5" y1="24.7" x2="60.5" y2="22.8"/>
<line fill="none" stroke="#1E2538" stroke-width="0.5" stroke-linecap="round" stroke-linejoin="round" stroke-miterlimit="10" x1="53.4" y1="24.7" x2="49" y2="21.2"/>
<line fill="none" stroke="#1E2538" stroke-width="0.5" stroke-linecap="round" stroke-linejoin="round" stroke-miterlimit="10" x1="48.7" y1="24.7" x2="44.1" y2="20.1"/>
<line fill="none" stroke="#1E2538" stroke-width="0.5" stroke-linecap="round" stroke-linejoin="round" stroke-miterlimit="10" x1="43.9" y1="24.5" x2="40.2" y2="19.4"/>
<rect x="60.8" y="24.7" fill="#FEF3D1" stroke="#1E2538" stroke-width="0.5" stroke-linecap="round" stroke-linejoin="round" stroke-miterlimit="10" width="1.9" height="1.1"/>
<g>
	
		<line fill="none" stroke="#1E2538" stroke-width="0.5" stroke-linecap="round" stroke-linejoin="round" stroke-miterlimit="10" x1="51.2" y1="24.8" x2="51.2" y2="31.6"/>
	
		<line fill="none" stroke="#1E2538" stroke-width="0.5" stroke-linecap="round" stroke-linejoin="round" stroke-miterlimit="10" x1="52.4" y1="24.7" x2="52.4" y2="31.6"/>
</g>
<path fill="#C6C6C6" stroke="#1E2538" stroke-width="0.5" stroke-linecap="round" stroke-linejoin="round" stroke-miterlimit="10" d="
	M51.8,33.9L51.8,33.9c-0.4,0-0.8-0.4-0.8-0.8v-0.7c0-0.4,0.4-0.8,0.8-0.8l0,0c0.4,0,0.8,0.4,0.8,0.8v0.7
	C52.6,33.5,52.2,33.9,51.8,33.9z"/>
<line fill="none" stroke="#1E2538" stroke-width="0.5" stroke-linecap="round" stroke-linejoin="round" stroke-miterlimit="10" x1="34.2" y1="24.9" x2="39.8" y2="31.6"/>
<line fill="none" stroke="#1E2538" stroke-width="0.5" stroke-linecap="round" stroke-linejoin="round" stroke-miterlimit="10" x1="34" y1="31.6" x2="39.5" y2="25.1"/>
<line fill="none" stroke="#1E2538" stroke-width="0.5" stroke-linecap="round" stroke-linejoin="round" stroke-miterlimit="10" x1="34" y1="39.3" x2="39.8" y2="46.2"/>
<line fill="none" stroke="#1E2538" stroke-width="0.5" stroke-linecap="round" stroke-linejoin="round" stroke-miterlimit="10" x1="34" y1="46.2" x2="39.8" y2="39.3"/>
<line fill="none" stroke="#1E2538" stroke-width="0.5" stroke-linecap="round" stroke-linejoin="round" stroke-miterlimit="10" x1="34" y1="46.3" x2="39.8" y2="53.1"/>
<line fill="none" stroke="#1E2538" stroke-width="0.5" stroke-linecap="round" stroke-linejoin="round" stroke-miterlimit="10" x1="34" y1="53.1" x2="39.8" y2="46.3"/>
<line fill="none" stroke="#1E2538" stroke-width="0.5" stroke-linecap="round" stroke-linejoin="round" stroke-miterlimit="10" x1="34" y1="53.1" x2="39.8" y2="60"/>
<line fill="none" stroke="#1E2538" stroke-width="0.5" stroke-linecap="round" stroke-linejoin="round" stroke-miterlimit="10" x1="34" y1="60" x2="39.8" y2="53.1"/>
<rect x="48.6" y="38" fill="#F6F6F6" stroke="#1E2538" stroke-width="0.5" stroke-linecap="round" stroke-linejoin="round" stroke-miterlimit="10" width="6.5" height="6.5"/>
<rect x="28.5" y="53.5" fill="#F6F6F6" stroke="#1E2538" stroke-width="0.5" stroke-linecap="round" stroke-linejoin="round" stroke-miterlimit="10" width="6.5" height="6.5"/>
<rect x="22" y="53.5" fill="#F6F6F6" stroke="#1E2538" stroke-width="0.5" stroke-linecap="round" stroke-linejoin="round" stroke-miterlimit="10" width="6.5" height="6.5"/>
<rect x="23.6" y="47" fill="#F6F6F6" stroke="#1E2538" stroke-width="0.5" stroke-linecap="round" stroke-linejoin="round" stroke-miterlimit="10" width="6.5" height="6.5"/>
<rect x="30" y="47" fill="#F6F6F6" stroke="#1E2538" stroke-width="0.5" stroke-linecap="round" stroke-linejoin="round" stroke-miterlimit="10" width="6.5" height="6.5"/>
<rect x="35" y="53.5" fill="#F6F6F6" stroke="#1E2538" stroke-width="0.5" stroke-linecap="round" stroke-linejoin="round" stroke-miterlimit="10" width="6.5" height="6.5"/>
<line fill="none" stroke="#1E2538" stroke-width="0.5" stroke-linecap="round" stroke-linejoin="round" stroke-miterlimit="10" x1="51" y1="33.3" x2="49.5" y2="38"/>
<line fill="none" stroke="#1E2538" stroke-width="0.5" stroke-linecap="round" stroke-linejoin="round" stroke-miterlimit="10" x1="52.6" y1="33.3" x2="54" y2="38"/>
<path fill="none" stroke="#1E2538" stroke-width="0.5" stroke-miterlimit="10" d="M60.3,69.1H9.7c-0.6,0-1-0.4-1-1V1.5
	c0-0.5,0.4-1,1-1h50.6c0.5,0,1,0.4,1,1v66.6C61.3,68.6,60.8,69.1,60.3,69.1z"/>
<circle fill="#DADADA" cx="20.9" cy="38" r="4.9"/>
<circle fill="#DADADA" cx="16.7" cy="46.3" r="4.9"/>
<circle fill="#DADADA" cx="15.4" cy="42.7" r="4.9"/>
<circle fill="#DADADA" cx="13.3" cy="33.3" r="6.3"/>
<circle fill="#DADADA" cx="8.3" cy="41.7" r="6.3"/>
<g>
	<path fill="none" stroke="#1E2538" stroke-width="0.5" stroke-linecap="round" stroke-linejoin="round" stroke-miterlimit="10" d="
		M27.9,41.7c0-3.4-2.7-6.1-6.1-6.1s-6.1,2.7-6.1,6.1"/>
	<path fill="none" stroke="#1E2538" stroke-width="0.5" stroke-linecap="round" stroke-linejoin="round" stroke-miterlimit="10" d="
		M20.1,43c-1.8-1.9-4.8-2-6.7-0.1c-1.9,1.8-2,4.8-0.1,6.7"/>
	<path fill="none" stroke="#1E2538" stroke-width="0.5" stroke-linecap="round" stroke-linejoin="round" stroke-miterlimit="10" d="
		M19.7,35.8c0-4-3.2-7.2-7.2-7.2s-7.2,3.2-7.2,7.2"/>
	<path fill="none" stroke="#1E2538" stroke-width="0.5" stroke-linecap="round" stroke-linejoin="round" stroke-miterlimit="10" d="
		M13.3,38.4c-2.5-3.1-7-3.6-10.1-1.2c-3.1,2.5-3.6,7-1.2,10.1"/>
</g>
<g>
	
		<polygon fill="#3C3C3B" stroke="#1E2538" stroke-width="0.5" stroke-linecap="round" stroke-linejoin="round" stroke-miterlimit="10" points="
		31,57.4 16,63 27.1,66.6 42.4,60.9 	"/>
	
		<polygon fill="#FDE9A5" stroke="#1E2538" stroke-width="0.5" stroke-linecap="round" stroke-linejoin="round" stroke-miterlimit="10" points="
		20,53.7 8.7,58.1 8.7,60.7 16,63 31,57.4 	"/>
	
		<polygon fill="#3C3C3B" stroke="#1E2538" stroke-width="0.5" stroke-linecap="round" stroke-linejoin="round" stroke-miterlimit="10" points="
		20,53.9 8.7,49.7 8.7,58.1 	"/>
	
		<polygon fill="#3C3C3B" stroke="#1E2538" stroke-width="0.5" stroke-linecap="round" stroke-linejoin="round" stroke-miterlimit="10" points="
		61.3,69.1 61.3,66.8 53.4,64.5 41,69.1 	"/>
	
		<polygon fill="#FDE9A5" stroke="#1E2538" stroke-width="0.5" stroke-linecap="round" stroke-linejoin="round" stroke-miterlimit="10" points="
		53.4,64.5 42.4,60.9 27.1,66.6 35,69.1 41,69.1 	"/>
	<polygon opacity="0.5" fill="#FFFFFF" points="8.7,49.7 8.7,55.5 51,69.1 61.3,69.1 61.3,66.8 	"/>
</g>
<polygon fill="none" stroke="#1E2538" stroke-width="0.5" stroke-linecap="round" stroke-linejoin="round" stroke-miterlimit="10" points="
	61.3,66.8 53.4,64.5 42.4,60.9 31,57.4 20,53.7 8.7,49.7 8.7,58.1 8.7,60.7 16,63 27.1,66.6 35,69.1 41,69.1 61.3,69.1 "/>
</svg>
