<?xml version="1.0" encoding="utf-8"?>
<!-- Generator: Adobe Illustrator 18.1.1, SVG Export Plug-In . SVG Version: 6.00 Build 0)  -->
<svg version="1.1" id="Calque_1" xmlns="http://www.w3.org/2000/svg" xmlns:xlink="http://www.w3.org/1999/xlink" x="0px" y="0px"
	 viewBox="0 0 117.8 93.7" enable-background="new 0 0 117.8 93.7" xml:space="preserve">
<g>
	<g>
		<rect x="13.9" y="18.9" fill="#DED6E8" width="25.6" height="62"/>
		<path fill="#1E2538" d="M39.5,81.4H13.9c-0.3,0-0.5-0.2-0.5-0.5v-62c0-0.3,0.2-0.5,0.5-0.5h25.6c0.3,0,0.5,0.2,0.5,0.5v62
			C40,81.2,39.8,81.4,39.5,81.4z M14.4,80.4H39v-61H14.4V80.4z"/>
	</g>
	<g>
		<rect x="44.7" y="37.3" fill="#EDEDED" width="25.6" height="43.9"/>
		<path fill="#1E2538" d="M70.3,81.7H44.7c-0.3,0-0.5-0.2-0.5-0.5V37.3c0-0.3,0.2-0.5,0.5-0.5h25.6c0.3,0,0.5,0.2,0.5,0.5v43.9
			C70.8,81.4,70.6,81.7,70.3,81.7z M45.2,80.7h24.6V37.8H45.2V80.7z"/>
	</g>
	<g>
		<rect x="75.4" y="28.8" fill="#A49BB2" width="25.6" height="52.4"/>
		<path fill="#1E2538" d="M101,81.7H75.4c-0.3,0-0.5-0.2-0.5-0.5V28.8c0-0.3,0.2-0.5,0.5-0.5H101c0.3,0,0.5,0.2,0.5,0.5v52.4
			C101.5,81.4,101.3,81.7,101,81.7z M75.9,80.7h24.6V29.3H75.9V80.7z"/>
	</g>
	<g>
		<path fill="#1E2538" d="M6,93.7c-0.3,0-0.5-0.2-0.5-0.5V0.5C5.5,0.2,5.8,0,6,0s0.5,0.2,0.5,0.5v92.7C6.5,93.5,6.3,93.7,6,93.7z"/>
	</g>
	<g>
		<path fill="#1E2538" d="M117.3,88.8H0.5c-0.3,0-0.5-0.2-0.5-0.5s0.2-0.5,0.5-0.5h116.8c0.3,0,0.5,0.2,0.5,0.5
			S117.6,88.8,117.3,88.8z"/>
	</g>
	<g>
		<path fill="#1E2538" d="M9.7,4.6c-0.1,0-0.3,0-0.4-0.1L6,1.2L2.8,4.5c-0.2,0.2-0.5,0.2-0.7,0S1.9,4,2.1,3.8l3.6-3.6
			C5.9,0,6.2,0,6.4,0.1L10,3.8c0.2,0.2,0.2,0.5,0,0.7C9.9,4.6,9.8,4.6,9.7,4.6z"/>
	</g>
	<g>
		<path fill="#1E2538" d="M113.7,92.5c-0.1,0-0.3,0-0.4-0.1c-0.2-0.2-0.2-0.5,0-0.7l3.3-3.3l-3.3-3.3c-0.2-0.2-0.2-0.5,0-0.7
			s0.5-0.2,0.7,0l3.6,3.6c0.1,0.1,0.1,0.2,0.1,0.4s-0.1,0.3-0.1,0.4l-3.6,3.6C114,92.4,113.8,92.5,113.7,92.5z"/>
	</g>
	<g>
		<rect x="22.3" y="70.4" fill="#898293" width="8.8" height="10.5"/>
		<path fill="#1E2538" d="M31.1,81.4h-8.8c-0.3,0-0.5-0.2-0.5-0.5V70.4c0-0.3,0.2-0.5,0.5-0.5h8.8c0.3,0,0.5,0.2,0.5,0.5v10.5
			C31.6,81.2,31.4,81.4,31.1,81.4z M22.8,80.4h7.8v-9.5h-7.8V80.4z"/>
	</g>
	<g>
		<rect x="55.3" y="70.6" fill="#706F6F" width="4.5" height="10.5"/>
		<path fill="#1E2538" d="M59.8,81.7h-4.5c-0.3,0-0.5-0.2-0.5-0.5V70.6c0-0.3,0.2-0.5,0.5-0.5h4.5c0.3,0,0.5,0.2,0.5,0.5v10.5
			C60.3,81.4,60.1,81.7,59.8,81.7z M55.8,80.7h3.5v-9.5h-3.5V80.7z"/>
	</g>
	<g>
		<g>
			<path fill="#1E2538" d="M22.5,67.8c-0.3,0-0.5-0.2-0.5-0.5v-3.2c0-0.3,0.2-0.5,0.5-0.5s0.5,0.2,0.5,0.5v3.2
				C23,67.6,22.8,67.8,22.5,67.8z"/>
		</g>
		<g>
			<path fill="#1E2538" d="M22.5,61.8c-0.3,0-0.5-0.2-0.5-0.5v-3.2c0-0.3,0.2-0.5,0.5-0.5s0.5,0.2,0.5,0.5v3.2
				C23,61.6,22.8,61.8,22.5,61.8z"/>
		</g>
		<g>
			<path fill="#1E2538" d="M22.5,55.8c-0.3,0-0.5-0.2-0.5-0.5v-3.2c0-0.3,0.2-0.5,0.5-0.5s0.5,0.2,0.5,0.5v3.2
				C23,55.6,22.8,55.8,22.5,55.8z"/>
		</g>
		<g>
			<path fill="#1E2538" d="M22.5,49.8c-0.3,0-0.5-0.2-0.5-0.5v-3.2c0-0.3,0.2-0.5,0.5-0.5s0.5,0.2,0.5,0.5v3.2
				C23,49.6,22.8,49.8,22.5,49.8z"/>
		</g>
		<g>
			<path fill="#1E2538" d="M22.5,43.8c-0.3,0-0.5-0.2-0.5-0.5v-3.2c0-0.3,0.2-0.5,0.5-0.5s0.5,0.2,0.5,0.5v3.2
				C23,43.6,22.8,43.8,22.5,43.8z"/>
		</g>
		<g>
			<path fill="#1E2538" d="M22.5,37.8c-0.3,0-0.5-0.2-0.5-0.5v-3.2c0-0.3,0.2-0.5,0.5-0.5s0.5,0.2,0.5,0.5v3.2
				C23,37.6,22.8,37.8,22.5,37.8z"/>
		</g>
		<g>
			<path fill="#1E2538" d="M22.5,31.8c-0.3,0-0.5-0.2-0.5-0.5v-3.2c0-0.3,0.2-0.5,0.5-0.5s0.5,0.2,0.5,0.5v3.2
				C23,31.6,22.8,31.8,22.5,31.8z"/>
		</g>
		<g>
			<path fill="#1E2538" d="M22.5,25.8c-0.3,0-0.5-0.2-0.5-0.5v-3.2c0-0.3,0.2-0.5,0.5-0.5s0.5,0.2,0.5,0.5v3.2
				C23,25.6,22.8,25.8,22.5,25.8z"/>
		</g>
	</g>
	<g>
		<g>
			<path fill="#1E2538" d="M26.5,67.8c-0.3,0-0.5-0.2-0.5-0.5v-3.2c0-0.3,0.2-0.5,0.5-0.5s0.5,0.2,0.5,0.5v3.2
				C27,67.6,26.8,67.8,26.5,67.8z"/>
		</g>
		<g>
			<path fill="#1E2538" d="M26.5,61.8c-0.3,0-0.5-0.2-0.5-0.5v-3.2c0-0.3,0.2-0.5,0.5-0.5s0.5,0.2,0.5,0.5v3.2
				C27,61.6,26.8,61.8,26.5,61.8z"/>
		</g>
		<g>
			<path fill="#1E2538" d="M26.5,55.8c-0.3,0-0.5-0.2-0.5-0.5v-3.2c0-0.3,0.2-0.5,0.5-0.5s0.5,0.2,0.5,0.5v3.2
				C27,55.6,26.8,55.8,26.5,55.8z"/>
		</g>
		<g>
			<path fill="#1E2538" d="M26.5,49.8c-0.3,0-0.5-0.2-0.5-0.5v-3.2c0-0.3,0.2-0.5,0.5-0.5s0.5,0.2,0.5,0.5v3.2
				C27,49.6,26.8,49.8,26.5,49.8z"/>
		</g>
		<g>
			<path fill="#1E2538" d="M26.5,43.8c-0.3,0-0.5-0.2-0.5-0.5v-3.2c0-0.3,0.2-0.5,0.5-0.5s0.5,0.2,0.5,0.5v3.2
				C27,43.6,26.8,43.8,26.5,43.8z"/>
		</g>
		<g>
			<path fill="#1E2538" d="M26.5,37.8c-0.3,0-0.5-0.2-0.5-0.5v-3.2c0-0.3,0.2-0.5,0.5-0.5s0.5,0.2,0.5,0.5v3.2
				C27,37.6,26.8,37.8,26.5,37.8z"/>
		</g>
		<g>
			<path fill="#1E2538" d="M26.5,31.8c-0.3,0-0.5-0.2-0.5-0.5v-3.2c0-0.3,0.2-0.5,0.5-0.5s0.5,0.2,0.5,0.5v3.2
				C27,31.6,26.8,31.8,26.5,31.8z"/>
		</g>
		<g>
			<path fill="#1E2538" d="M26.5,25.8c-0.3,0-0.5-0.2-0.5-0.5v-3.2c0-0.3,0.2-0.5,0.5-0.5s0.5,0.2,0.5,0.5v3.2
				C27,25.6,26.8,25.8,26.5,25.8z"/>
		</g>
	</g>
	<g>
		<g>
			<path fill="#1E2538" d="M30.5,67.8c-0.3,0-0.5-0.2-0.5-0.5v-3.2c0-0.3,0.2-0.5,0.5-0.5s0.5,0.2,0.5,0.5v3.2
				C31,67.6,30.8,67.8,30.5,67.8z"/>
		</g>
		<g>
			<path fill="#1E2538" d="M30.5,61.8c-0.3,0-0.5-0.2-0.5-0.5v-3.2c0-0.3,0.2-0.5,0.5-0.5s0.5,0.2,0.5,0.5v3.2
				C31,61.6,30.8,61.8,30.5,61.8z"/>
		</g>
		<g>
			<path fill="#1E2538" d="M30.5,55.8c-0.3,0-0.5-0.2-0.5-0.5v-3.2c0-0.3,0.2-0.5,0.5-0.5s0.5,0.2,0.5,0.5v3.2
				C31,55.6,30.8,55.8,30.5,55.8z"/>
		</g>
		<g>
			<path fill="#1E2538" d="M30.5,49.8c-0.3,0-0.5-0.2-0.5-0.5v-3.2c0-0.3,0.2-0.5,0.5-0.5s0.5,0.2,0.5,0.5v3.2
				C31,49.6,30.8,49.8,30.5,49.8z"/>
		</g>
		<g>
			<path fill="#1E2538" d="M30.5,43.8c-0.3,0-0.5-0.2-0.5-0.5v-3.2c0-0.3,0.2-0.5,0.5-0.5s0.5,0.2,0.5,0.5v3.2
				C31,43.6,30.8,43.8,30.5,43.8z"/>
		</g>
		<g>
			<path fill="#1E2538" d="M30.5,37.8c-0.3,0-0.5-0.2-0.5-0.5v-3.2c0-0.3,0.2-0.5,0.5-0.5s0.5,0.2,0.5,0.5v3.2
				C31,37.6,30.8,37.8,30.5,37.8z"/>
		</g>
		<g>
			<path fill="#1E2538" d="M30.5,31.8c-0.3,0-0.5-0.2-0.5-0.5v-3.2c0-0.3,0.2-0.5,0.5-0.5s0.5,0.2,0.5,0.5v3.2
				C31,31.6,30.8,31.8,30.5,31.8z"/>
		</g>
		<g>
			<path fill="#1E2538" d="M30.5,25.8c-0.3,0-0.5-0.2-0.5-0.5v-3.2c0-0.3,0.2-0.5,0.5-0.5s0.5,0.2,0.5,0.5v3.2
				C31,25.6,30.8,25.8,30.5,25.8z"/>
		</g>
	</g>
	<g>
		<g>
			<path fill="#1E2538" d="M34.5,67.8c-0.3,0-0.5-0.2-0.5-0.5v-3.2c0-0.3,0.2-0.5,0.5-0.5s0.5,0.2,0.5,0.5v3.2
				C35,67.6,34.8,67.8,34.5,67.8z"/>
		</g>
		<g>
			<path fill="#1E2538" d="M34.5,61.8c-0.3,0-0.5-0.2-0.5-0.5v-3.2c0-0.3,0.2-0.5,0.5-0.5s0.5,0.2,0.5,0.5v3.2
				C35,61.6,34.8,61.8,34.5,61.8z"/>
		</g>
		<g>
			<path fill="#1E2538" d="M34.5,74.1c-0.3,0-0.5-0.2-0.5-0.5v-3.2c0-0.3,0.2-0.5,0.5-0.5s0.5,0.2,0.5,0.5v3.2
				C35,73.9,34.8,74.1,34.5,74.1z"/>
		</g>
		<g>
			<path fill="#1E2538" d="M34.5,55.8c-0.3,0-0.5-0.2-0.5-0.5v-3.2c0-0.3,0.2-0.5,0.5-0.5s0.5,0.2,0.5,0.5v3.2
				C35,55.6,34.8,55.8,34.5,55.8z"/>
		</g>
		<g>
			<path fill="#1E2538" d="M34.5,49.8c-0.3,0-0.5-0.2-0.5-0.5v-3.2c0-0.3,0.2-0.5,0.5-0.5s0.5,0.2,0.5,0.5v3.2
				C35,49.6,34.8,49.8,34.5,49.8z"/>
		</g>
		<g>
			<path fill="#1E2538" d="M34.5,43.8c-0.3,0-0.5-0.2-0.5-0.5v-3.2c0-0.3,0.2-0.5,0.5-0.5s0.5,0.2,0.5,0.5v3.2
				C35,43.6,34.8,43.8,34.5,43.8z"/>
		</g>
		<g>
			<path fill="#1E2538" d="M34.5,37.8c-0.3,0-0.5-0.2-0.5-0.5v-3.2c0-0.3,0.2-0.5,0.5-0.5s0.5,0.2,0.5,0.5v3.2
				C35,37.6,34.8,37.8,34.5,37.8z"/>
		</g>
		<g>
			<path fill="#1E2538" d="M34.5,31.8c-0.3,0-0.5-0.2-0.5-0.5v-3.2c0-0.3,0.2-0.5,0.5-0.5s0.5,0.2,0.5,0.5v3.2
				C35,31.6,34.8,31.8,34.5,31.8z"/>
		</g>
		<g>
			<path fill="#1E2538" d="M34.5,25.8c-0.3,0-0.5-0.2-0.5-0.5v-3.2c0-0.3,0.2-0.5,0.5-0.5s0.5,0.2,0.5,0.5v3.2
				C35,25.6,34.8,25.8,34.5,25.8z"/>
		</g>
	</g>
	<g>
		<g>
			<path fill="#1E2538" d="M18.5,67.8c-0.3,0-0.5-0.2-0.5-0.5v-3.2c0-0.3,0.2-0.5,0.5-0.5s0.5,0.2,0.5,0.5v3.2
				C19,67.6,18.8,67.8,18.5,67.8z"/>
		</g>
		<g>
			<path fill="#1E2538" d="M18.5,61.8c-0.3,0-0.5-0.2-0.5-0.5v-3.2c0-0.3,0.2-0.5,0.5-0.5s0.5,0.2,0.5,0.5v3.2
				C19,61.6,18.8,61.8,18.5,61.8z"/>
		</g>
		<g>
			<path fill="#1E2538" d="M18.5,74.1c-0.3,0-0.5-0.2-0.5-0.5v-3.2c0-0.3,0.2-0.5,0.5-0.5s0.5,0.2,0.5,0.5v3.2
				C19,73.9,18.8,74.1,18.5,74.1z"/>
		</g>
		<g>
			<path fill="#1E2538" d="M18.5,55.8c-0.3,0-0.5-0.2-0.5-0.5v-3.2c0-0.3,0.2-0.5,0.5-0.5s0.5,0.2,0.5,0.5v3.2
				C19,55.6,18.8,55.8,18.5,55.8z"/>
		</g>
		<g>
			<path fill="#1E2538" d="M18.5,49.8c-0.3,0-0.5-0.2-0.5-0.5v-3.2c0-0.3,0.2-0.5,0.5-0.5s0.5,0.2,0.5,0.5v3.2
				C19,49.6,18.8,49.8,18.5,49.8z"/>
		</g>
		<g>
			<path fill="#1E2538" d="M18.5,43.8c-0.3,0-0.5-0.2-0.5-0.5v-3.2c0-0.3,0.2-0.5,0.5-0.5s0.5,0.2,0.5,0.5v3.2
				C19,43.6,18.8,43.8,18.5,43.8z"/>
		</g>
		<g>
			<path fill="#1E2538" d="M18.5,37.8c-0.3,0-0.5-0.2-0.5-0.5v-3.2c0-0.3,0.2-0.5,0.5-0.5s0.5,0.2,0.5,0.5v3.2
				C19,37.6,18.8,37.8,18.5,37.8z"/>
		</g>
		<g>
			<path fill="#1E2538" d="M18.5,31.8c-0.3,0-0.5-0.2-0.5-0.5v-3.2c0-0.3,0.2-0.5,0.5-0.5s0.5,0.2,0.5,0.5v3.2
				C19,31.6,18.8,31.8,18.5,31.8z"/>
		</g>
		<g>
			<path fill="#1E2538" d="M18.5,25.8c-0.3,0-0.5-0.2-0.5-0.5v-3.2c0-0.3,0.2-0.5,0.5-0.5s0.5,0.2,0.5,0.5v3.2
				C19,25.6,18.8,25.8,18.5,25.8z"/>
		</g>
	</g>
	<g>
		<path fill="#1E2538" d="M84.4,68.6c-0.3,0-0.5-0.2-0.5-0.5v-3.2c0-0.3,0.2-0.5,0.5-0.5s0.5,0.2,0.5,0.5v3.2
			C84.9,68.4,84.7,68.6,84.4,68.6z"/>
	</g>
	<g>
		<path fill="#1E2538" d="M84.4,62.6c-0.3,0-0.5-0.2-0.5-0.5v-3.2c0-0.3,0.2-0.5,0.5-0.5s0.5,0.2,0.5,0.5v3.2
			C84.9,62.4,84.7,62.6,84.4,62.6z"/>
	</g>
	<g>
		<path fill="#1E2538" d="M84.4,56.6c-0.3,0-0.5-0.2-0.5-0.5v-3.2c0-0.3,0.2-0.5,0.5-0.5s0.5,0.2,0.5,0.5v3.2
			C84.9,56.4,84.7,56.6,84.4,56.6z"/>
	</g>
	<g>
		<path fill="#1E2538" d="M84.4,50.6c-0.3,0-0.5-0.2-0.5-0.5v-3.2c0-0.3,0.2-0.5,0.5-0.5s0.5,0.2,0.5,0.5v3.2
			C84.9,50.4,84.7,50.6,84.4,50.6z"/>
	</g>
	<g>
		<path fill="#1E2538" d="M84.4,44.6c-0.3,0-0.5-0.2-0.5-0.5v-3.2c0-0.3,0.2-0.5,0.5-0.5s0.5,0.2,0.5,0.5v3.2
			C84.9,44.4,84.7,44.6,84.4,44.6z"/>
	</g>
	<g>
		<path fill="#1E2538" d="M84.4,38.6c-0.3,0-0.5-0.2-0.5-0.5v-3.2c0-0.3,0.2-0.5,0.5-0.5s0.5,0.2,0.5,0.5v3.2
			C84.9,38.4,84.7,38.6,84.4,38.6z"/>
	</g>
	<g>
		<path fill="#1E2538" d="M88.4,68.6c-0.3,0-0.5-0.2-0.5-0.5v-3.2c0-0.3,0.2-0.5,0.5-0.5s0.5,0.2,0.5,0.5v3.2
			C88.9,68.4,88.7,68.6,88.4,68.6z"/>
	</g>
	<g>
		<path fill="#1E2538" d="M88.4,62.6c-0.3,0-0.5-0.2-0.5-0.5v-3.2c0-0.3,0.2-0.5,0.5-0.5s0.5,0.2,0.5,0.5v3.2
			C88.9,62.4,88.7,62.6,88.4,62.6z"/>
	</g>
	<g>
		<path fill="#1E2538" d="M88.4,56.6c-0.3,0-0.5-0.2-0.5-0.5v-3.2c0-0.3,0.2-0.5,0.5-0.5s0.5,0.2,0.5,0.5v3.2
			C88.9,56.4,88.7,56.6,88.4,56.6z"/>
	</g>
	<g>
		<path fill="#1E2538" d="M88.4,50.6c-0.3,0-0.5-0.2-0.5-0.5v-3.2c0-0.3,0.2-0.5,0.5-0.5s0.5,0.2,0.5,0.5v3.2
			C88.9,50.4,88.7,50.6,88.4,50.6z"/>
	</g>
	<g>
		<path fill="#1E2538" d="M88.4,44.6c-0.3,0-0.5-0.2-0.5-0.5v-3.2c0-0.3,0.2-0.5,0.5-0.5s0.5,0.2,0.5,0.5v3.2
			C88.9,44.4,88.7,44.6,88.4,44.6z"/>
	</g>
	<g>
		<path fill="#1E2538" d="M88.4,38.6c-0.3,0-0.5-0.2-0.5-0.5v-3.2c0-0.3,0.2-0.5,0.5-0.5s0.5,0.2,0.5,0.5v3.2
			C88.9,38.4,88.7,38.6,88.4,38.6z"/>
	</g>
	<g>
		<path fill="#1E2538" d="M92.4,68.6c-0.3,0-0.5-0.2-0.5-0.5v-3.2c0-0.3,0.2-0.5,0.5-0.5s0.5,0.2,0.5,0.5v3.2
			C92.9,68.4,92.7,68.6,92.4,68.6z"/>
	</g>
	<g>
		<path fill="#1E2538" d="M92.4,62.6c-0.3,0-0.5-0.2-0.5-0.5v-3.2c0-0.3,0.2-0.5,0.5-0.5s0.5,0.2,0.5,0.5v3.2
			C92.9,62.4,92.7,62.6,92.4,62.6z"/>
	</g>
	<g>
		<path fill="#1E2538" d="M92.4,56.6c-0.3,0-0.5-0.2-0.5-0.5v-3.2c0-0.3,0.2-0.5,0.5-0.5s0.5,0.2,0.5,0.5v3.2
			C92.9,56.4,92.7,56.6,92.4,56.6z"/>
	</g>
	<g>
		<path fill="#1E2538" d="M92.4,50.6c-0.3,0-0.5-0.2-0.5-0.5v-3.2c0-0.3,0.2-0.5,0.5-0.5s0.5,0.2,0.5,0.5v3.2
			C92.9,50.4,92.7,50.6,92.4,50.6z"/>
	</g>
	<g>
		<path fill="#1E2538" d="M92.4,44.6c-0.3,0-0.5-0.2-0.5-0.5v-3.2c0-0.3,0.2-0.5,0.5-0.5s0.5,0.2,0.5,0.5v3.2
			C92.9,44.4,92.7,44.6,92.4,44.6z"/>
	</g>
	<g>
		<path fill="#1E2538" d="M92.4,38.6c-0.3,0-0.5-0.2-0.5-0.5v-3.2c0-0.3,0.2-0.5,0.5-0.5s0.5,0.2,0.5,0.5v3.2
			C92.9,38.4,92.7,38.6,92.4,38.6z"/>
	</g>
	<g>
		<path fill="#1E2538" d="M96.4,68.6c-0.3,0-0.5-0.2-0.5-0.5v-3.2c0-0.3,0.2-0.5,0.5-0.5s0.5,0.2,0.5,0.5v3.2
			C96.9,68.4,96.7,68.6,96.4,68.6z"/>
	</g>
	<g>
		<path fill="#1E2538" d="M96.4,62.6c-0.3,0-0.5-0.2-0.5-0.5v-3.2c0-0.3,0.2-0.5,0.5-0.5s0.5,0.2,0.5,0.5v3.2
			C96.9,62.4,96.7,62.6,96.4,62.6z"/>
	</g>
	<g>
		<path fill="#1E2538" d="M96.4,56.6c-0.3,0-0.5-0.2-0.5-0.5v-3.2c0-0.3,0.2-0.5,0.5-0.5s0.5,0.2,0.5,0.5v3.2
			C96.9,56.4,96.7,56.6,96.4,56.6z"/>
	</g>
	<g>
		<path fill="#1E2538" d="M96.4,50.6c-0.3,0-0.5-0.2-0.5-0.5v-3.2c0-0.3,0.2-0.5,0.5-0.5s0.5,0.2,0.5,0.5v3.2
			C96.9,50.4,96.7,50.6,96.4,50.6z"/>
	</g>
	<g>
		<path fill="#1E2538" d="M96.4,44.6c-0.3,0-0.5-0.2-0.5-0.5v-3.2c0-0.3,0.2-0.5,0.5-0.5s0.5,0.2,0.5,0.5v3.2
			C96.9,44.4,96.7,44.6,96.4,44.6z"/>
	</g>
	<g>
		<path fill="#1E2538" d="M96.4,38.6c-0.3,0-0.5-0.2-0.5-0.5v-3.2c0-0.3,0.2-0.5,0.5-0.5s0.5,0.2,0.5,0.5v3.2
			C96.9,38.4,96.7,38.6,96.4,38.6z"/>
	</g>
	<g>
		<path fill="#1E2538" d="M80.4,68.6c-0.3,0-0.5-0.2-0.5-0.5v-3.2c0-0.3,0.2-0.5,0.5-0.5s0.5,0.2,0.5,0.5v3.2
			C80.9,68.4,80.7,68.6,80.4,68.6z"/>
	</g>
	<g>
		<path fill="#1E2538" d="M80.4,62.6c-0.3,0-0.5-0.2-0.5-0.5v-3.2c0-0.3,0.2-0.5,0.5-0.5s0.5,0.2,0.5,0.5v3.2
			C80.9,62.4,80.7,62.6,80.4,62.6z"/>
	</g>
	<g>
		<path fill="#1E2538" d="M80.4,56.6c-0.3,0-0.5-0.2-0.5-0.5v-3.2c0-0.3,0.2-0.5,0.5-0.5s0.5,0.2,0.5,0.5v3.2
			C80.9,56.4,80.7,56.6,80.4,56.6z"/>
	</g>
	<g>
		<path fill="#1E2538" d="M80.4,50.6c-0.3,0-0.5-0.2-0.5-0.5v-3.2c0-0.3,0.2-0.5,0.5-0.5s0.5,0.2,0.5,0.5v3.2
			C80.9,50.4,80.7,50.6,80.4,50.6z"/>
	</g>
	<g>
		<path fill="#1E2538" d="M80.4,44.6c-0.3,0-0.5-0.2-0.5-0.5v-3.2c0-0.3,0.2-0.5,0.5-0.5s0.5,0.2,0.5,0.5v3.2
			C80.9,44.4,80.7,44.6,80.4,44.6z"/>
	</g>
	<g>
		<path fill="#1E2538" d="M80.4,38.6c-0.3,0-0.5-0.2-0.5-0.5v-3.2c0-0.3,0.2-0.5,0.5-0.5s0.5,0.2,0.5,0.5v3.2
			C80.9,38.4,80.7,38.6,80.4,38.6z"/>
	</g>
	<g>
		<rect x="16" y="16.8" fill="#DED6E8" width="21.4" height="2.1"/>
		<path fill="#1E2538" d="M37.4,19.4H16c-0.3,0-0.5-0.2-0.5-0.5v-2.1c0-0.3,0.2-0.5,0.5-0.5h21.4c0.3,0,0.5,0.2,0.5,0.5v2.1
			C37.9,19.2,37.7,19.4,37.4,19.4z M16.5,18.4h20.4v-1.1H16.5V18.4z"/>
	</g>
	<g>
		<rect x="18.1" y="14.7" fill="#DED6E8" width="17.3" height="2.1"/>
		<path fill="#1E2538" d="M35.3,17.3H18.1c-0.3,0-0.5-0.2-0.5-0.5v-2.1c0-0.3,0.2-0.5,0.5-0.5h17.3c0.3,0,0.5,0.2,0.5,0.5v2.1
			C35.8,17.1,35.6,17.3,35.3,17.3z M18.6,16.3h16.3v-1.1H18.6V16.3z"/>
	</g>
	<g>
		<rect x="46.8" y="35.2" fill="#EDEDED" width="21.4" height="2.1"/>
		<path fill="#1E2538" d="M68.2,37.8H46.8c-0.3,0-0.5-0.2-0.5-0.5v-2.1c0-0.3,0.2-0.5,0.5-0.5h21.4c0.3,0,0.5,0.2,0.5,0.5v2.1
			C68.7,37.5,68.5,37.8,68.2,37.8z M47.3,36.8h20.4v-1.1H47.3V36.8z"/>
	</g>
	<g>
		<rect x="77.5" y="26.7" fill="#A49BB2" width="21.4" height="2.1"/>
		<path fill="#1E2538" d="M98.9,29.3H77.5c-0.3,0-0.5-0.2-0.5-0.5v-2.1c0-0.3,0.2-0.5,0.5-0.5h21.4c0.3,0,0.5,0.2,0.5,0.5v2.1
			C99.4,29.1,99.2,29.3,98.9,29.3z M78,28.3h20.4v-1.1H78V28.3z"/>
	</g>
	<g>
		<rect x="79.6" y="24.6" fill="#A49BB2" width="17.3" height="2.1"/>
		<path fill="#1E2538" d="M96.8,27.2H79.6c-0.3,0-0.5-0.2-0.5-0.5v-2.1c0-0.3,0.2-0.5,0.5-0.5h17.3c0.3,0,0.5,0.2,0.5,0.5v2.1
			C97.3,27,97.1,27.2,96.8,27.2z M80.1,26.2h16.3v-1.1H80.1V26.2z"/>
	</g>
	<g>
		<g>
			<circle fill="#1E2538" cx="55.3" cy="67" r="0.5"/>
		</g>
		<g>
			<circle fill="#1E2538" cx="55.3" cy="63.5" r="0.5"/>
		</g>
		<g>
			<circle fill="#1E2538" cx="55.3" cy="60" r="0.5"/>
		</g>
		<g>
			<circle fill="#1E2538" cx="55.3" cy="56.5" r="0.5"/>
		</g>
		<g>
			<circle fill="#1E2538" cx="55.3" cy="53" r="0.5"/>
		</g>
		<g>
			<circle fill="#1E2538" cx="55.3" cy="49.5" r="0.5"/>
		</g>
		<g>
			<circle fill="#1E2538" cx="55.3" cy="46" r="0.5"/>
		</g>
		<g>
			<circle fill="#1E2538" cx="55.3" cy="42.5" r="0.5"/>
		</g>
	</g>
	<g>
		<g>
			<circle fill="#1E2538" cx="59.9" cy="67" r="0.5"/>
		</g>
		<g>
			<circle fill="#1E2538" cx="59.9" cy="63.5" r="0.5"/>
		</g>
		<g>
			<circle fill="#1E2538" cx="59.9" cy="60" r="0.5"/>
		</g>
		<g>
			<circle fill="#1E2538" cx="59.9" cy="56.5" r="0.5"/>
		</g>
		<g>
			<circle fill="#1E2538" cx="59.9" cy="53" r="0.5"/>
		</g>
		<g>
			<circle fill="#1E2538" cx="59.9" cy="49.5" r="0.5"/>
		</g>
		<g>
			<circle fill="#1E2538" cx="59.9" cy="46" r="0.5"/>
		</g>
		<g>
			<circle fill="#1E2538" cx="59.9" cy="42.5" r="0.5"/>
		</g>
	</g>
	<g>
		<g>
			<circle fill="#1E2538" cx="57.6" cy="67" r="0.5"/>
		</g>
		<g>
			<circle fill="#1E2538" cx="57.6" cy="63.5" r="0.5"/>
		</g>
		<g>
			<circle fill="#1E2538" cx="57.6" cy="60" r="0.5"/>
		</g>
		<g>
			<circle fill="#1E2538" cx="57.6" cy="56.5" r="0.5"/>
		</g>
		<g>
			<circle fill="#1E2538" cx="57.6" cy="53" r="0.5"/>
		</g>
		<g>
			<circle fill="#1E2538" cx="57.6" cy="49.5" r="0.5"/>
		</g>
		<g>
			<circle fill="#1E2538" cx="57.6" cy="46" r="0.5"/>
		</g>
		<g>
			<circle fill="#1E2538" cx="57.6" cy="42.5" r="0.5"/>
		</g>
	</g>
	<g>
		<g>
			<circle fill="#1E2538" cx="62.2" cy="67" r="0.5"/>
		</g>
		<g>
			<circle fill="#1E2538" cx="62.2" cy="63.5" r="0.5"/>
		</g>
		<g>
			<circle fill="#1E2538" cx="62.2" cy="60" r="0.5"/>
		</g>
		<g>
			<circle fill="#1E2538" cx="62.2" cy="56.5" r="0.5"/>
		</g>
		<g>
			<circle fill="#1E2538" cx="62.2" cy="53" r="0.5"/>
		</g>
		<g>
			<circle fill="#1E2538" cx="62.2" cy="49.5" r="0.5"/>
		</g>
		<g>
			<circle fill="#1E2538" cx="62.2" cy="46" r="0.5"/>
		</g>
		<g>
			<circle fill="#1E2538" cx="62.2" cy="42.5" r="0.5"/>
		</g>
		<g>
			<circle fill="#1E2538" cx="62.2" cy="77.3" r="0.5"/>
		</g>
		<g>
			<circle fill="#1E2538" cx="62.2" cy="73.8" r="0.5"/>
		</g>
		<g>
			<circle fill="#1E2538" cx="62.2" cy="70.3" r="0.5"/>
		</g>
	</g>
	<g>
		<g>
			<circle fill="#1E2538" cx="64.5" cy="67" r="0.5"/>
		</g>
		<g>
			<circle fill="#1E2538" cx="64.5" cy="63.5" r="0.5"/>
		</g>
		<g>
			<circle fill="#1E2538" cx="64.5" cy="60" r="0.5"/>
		</g>
		<g>
			<circle fill="#1E2538" cx="64.5" cy="56.5" r="0.5"/>
		</g>
		<g>
			<circle fill="#1E2538" cx="64.5" cy="53" r="0.5"/>
		</g>
		<g>
			<circle fill="#1E2538" cx="64.5" cy="49.5" r="0.5"/>
		</g>
		<g>
			<circle fill="#1E2538" cx="64.5" cy="46" r="0.5"/>
		</g>
		<g>
			<circle fill="#1E2538" cx="64.5" cy="42.5" r="0.5"/>
		</g>
		<g>
			<circle fill="#1E2538" cx="64.5" cy="77.3" r="0.5"/>
		</g>
		<g>
			<circle fill="#1E2538" cx="64.5" cy="73.8" r="0.5"/>
		</g>
		<g>
			<circle fill="#1E2538" cx="64.5" cy="70.3" r="0.5"/>
		</g>
	</g>
	<g>
		<g>
			<circle fill="#1E2538" cx="66.8" cy="67" r="0.5"/>
		</g>
		<g>
			<circle fill="#1E2538" cx="66.8" cy="63.5" r="0.5"/>
		</g>
		<g>
			<circle fill="#1E2538" cx="66.8" cy="60" r="0.5"/>
		</g>
		<g>
			<circle fill="#1E2538" cx="66.8" cy="56.5" r="0.5"/>
		</g>
		<g>
			<circle fill="#1E2538" cx="66.8" cy="53" r="0.5"/>
		</g>
		<g>
			<circle fill="#1E2538" cx="66.8" cy="49.5" r="0.5"/>
		</g>
		<g>
			<circle fill="#1E2538" cx="66.8" cy="46" r="0.5"/>
		</g>
		<g>
			<circle fill="#1E2538" cx="66.8" cy="42.5" r="0.5"/>
		</g>
		<g>
			<circle fill="#1E2538" cx="66.8" cy="77.3" r="0.5"/>
		</g>
		<g>
			<circle fill="#1E2538" cx="66.8" cy="73.8" r="0.5"/>
		</g>
		<g>
			<circle fill="#1E2538" cx="66.8" cy="70.3" r="0.5"/>
		</g>
	</g>
	<g>
		<g>
			<circle fill="#1E2538" cx="48.3" cy="67" r="0.5"/>
		</g>
		<g>
			<circle fill="#1E2538" cx="48.3" cy="63.5" r="0.5"/>
		</g>
		<g>
			<circle fill="#1E2538" cx="48.3" cy="60" r="0.5"/>
		</g>
		<g>
			<circle fill="#1E2538" cx="48.3" cy="56.5" r="0.5"/>
		</g>
		<g>
			<circle fill="#1E2538" cx="48.3" cy="53" r="0.5"/>
		</g>
		<g>
			<circle fill="#1E2538" cx="48.3" cy="49.5" r="0.5"/>
		</g>
		<g>
			<circle fill="#1E2538" cx="48.3" cy="46" r="0.5"/>
		</g>
		<g>
			<circle fill="#1E2538" cx="48.3" cy="42.5" r="0.5"/>
		</g>
		<g>
			<circle fill="#1E2538" cx="48.3" cy="77.3" r="0.5"/>
		</g>
		<g>
			<circle fill="#1E2538" cx="48.3" cy="73.8" r="0.5"/>
		</g>
		<g>
			<circle fill="#1E2538" cx="48.3" cy="70.3" r="0.5"/>
		</g>
	</g>
	<g>
		<g>
			<circle fill="#1E2538" cx="50.6" cy="67" r="0.5"/>
		</g>
		<g>
			<circle fill="#1E2538" cx="50.6" cy="63.5" r="0.5"/>
		</g>
		<g>
			<circle fill="#1E2538" cx="50.6" cy="60" r="0.5"/>
		</g>
		<g>
			<circle fill="#1E2538" cx="50.6" cy="56.5" r="0.5"/>
		</g>
		<g>
			<circle fill="#1E2538" cx="50.6" cy="53" r="0.5"/>
		</g>
		<g>
			<circle fill="#1E2538" cx="50.6" cy="49.5" r="0.5"/>
		</g>
		<g>
			<circle fill="#1E2538" cx="50.6" cy="46" r="0.5"/>
		</g>
		<g>
			<circle fill="#1E2538" cx="50.6" cy="42.5" r="0.5"/>
		</g>
		<g>
			<circle fill="#1E2538" cx="50.6" cy="77.3" r="0.5"/>
		</g>
		<g>
			<circle fill="#1E2538" cx="50.6" cy="73.8" r="0.5"/>
		</g>
		<g>
			<circle fill="#1E2538" cx="50.6" cy="70.3" r="0.5"/>
		</g>
	</g>
	<g>
		<g>
			<circle fill="#1E2538" cx="52.9" cy="67" r="0.5"/>
		</g>
		<g>
			<circle fill="#1E2538" cx="52.9" cy="63.5" r="0.5"/>
		</g>
		<g>
			<circle fill="#1E2538" cx="52.9" cy="60" r="0.5"/>
		</g>
		<g>
			<circle fill="#1E2538" cx="52.9" cy="56.5" r="0.5"/>
		</g>
		<g>
			<circle fill="#1E2538" cx="52.9" cy="53" r="0.5"/>
		</g>
		<g>
			<circle fill="#1E2538" cx="52.9" cy="49.5" r="0.5"/>
		</g>
		<g>
			<circle fill="#1E2538" cx="52.9" cy="46" r="0.5"/>
		</g>
		<g>
			<circle fill="#1E2538" cx="52.9" cy="42.5" r="0.5"/>
		</g>
		<g>
			<circle fill="#1E2538" cx="52.9" cy="77.3" r="0.5"/>
		</g>
		<g>
			<circle fill="#1E2538" cx="52.9" cy="73.8" r="0.5"/>
		</g>
		<g>
			<circle fill="#1E2538" cx="52.9" cy="70.3" r="0.5"/>
		</g>
	</g>
	<g>
		<rect x="81.5" y="73.4" fill="#69617C" width="6.9" height="7.8"/>
		<path fill="#1E2538" d="M88.4,81.7h-6.9c-0.3,0-0.5-0.2-0.5-0.5v-7.8c0-0.3,0.2-0.5,0.5-0.5h6.9c0.3,0,0.5,0.2,0.5,0.5v7.8
			C88.9,81.4,88.7,81.7,88.4,81.7z M82,80.7h5.9v-6.8H82V80.7z"/>
	</g>
	<g>
		<rect x="88.4" y="73.4" fill="#69617C" width="7.3" height="7.8"/>
		<path fill="#1E2538" d="M95.7,81.7h-7.3c-0.3,0-0.5-0.2-0.5-0.5v-7.8c0-0.3,0.2-0.5,0.5-0.5h7.3c0.3,0,0.5,0.2,0.5,0.5v7.8
			C96.2,81.4,96,81.7,95.7,81.7z M88.9,80.7h6.3v-6.8h-6.3V80.7z"/>
	</g>
</g>
</svg>
