<?xml version="1.0" encoding="utf-8"?>
<!-- Generator: Adobe Illustrator 18.1.1, SVG Export Plug-In . SVG Version: 6.00 Build 0)  -->
<svg version="1.1" id="Calque_1" xmlns="http://www.w3.org/2000/svg" xmlns:xlink="http://www.w3.org/1999/xlink" x="0px" y="0px"
	 viewBox="0 0 72 71.6" enable-background="new 0 0 72 71.6" xml:space="preserve">
<g>
	<g>
		<path fill="#E8E3FE" d="M66.2,2L41.5,23c0,0-0.7,0.6-0.8,1.4c-0.1,0.7-0.7,4,0.8,4s1-3.9,1-3.9s-0.3-0.7,1.4-1.5l23.1-12.7
			c2.2-1.2,3-4,1.8-6.2l0,0C68,2.8,66.8,2,65.4,1.8"/>
	</g>
	<g>
		<path fill="none" d="M66.2,2c-0.2-0.1-0.4-0.1-0.6-0.2c0.1,0.1,0.2,0.3,0.4,0.4L66.2,2z"/>
	</g>
	<g>
		<path fill="none" d="M41.6,25c0,0-0.4-0.6,1.3-1.6l22-14.5c2.1-1.4,2.7-4.2,1.3-6.3c-0.1-0.1-0.2-0.2-0.3-0.4L41.5,23
			c0,0-0.7,0.6-0.8,1.4c-0.1,0.7-0.7,4,0.8,4c0.1,0,0.2,0,0.2,0C42.2,27.3,41.6,25,41.6,25z"/>
	</g>
	<g>
		<path fill="#D1C7FD" d="M68.7,4.1c-0.6-1-1.5-1.7-2.5-2.1l-0.3,0.2c0.1,0.1,0.2,0.2,0.3,0.4c1.4,2.1,0.8,4.9-1.3,6.3l-22,14.5
			c-1.7,1-1.3,1.6-1.3,1.6s0.5,2.3,0.1,3.4c1.2-0.4,0.7-3.9,0.7-3.9s-0.3-0.7,1.4-1.5l23.1-12.7C69.1,9.1,69.9,6.3,68.7,4.1z"/>
	</g>
	<g>
		<g>
			<circle fill="#EDEDED" cx="12.8" cy="26.2" r="7.6"/>
		</g>
		<g>
			<circle fill="#EDEDED" cx="22.1" cy="23.2" r="7.6"/>
		</g>
		<g>
			<circle fill="#EDEDED" cx="11.3" cy="13.6" r="9.8"/>
		</g>
		<g>
			<circle fill="#EDEDED" cx="27" cy="10.6" r="9.8"/>
		</g>
	</g>
	<g>
		<path fill="none" stroke="#000000" stroke-linecap="round" stroke-linejoin="round" stroke-miterlimit="10" d="M32,67.2"/>
	</g>
	<g>
		<path fill="#1E2538" d="M39.6,56.8c-3.7,0-6.6-2.1-8.1-3.5c-0.2-0.2-0.2-0.4-0.1-0.6l6.5-11.8v-6.4c0-0.3,0.2-0.5,0.5-0.5
			s0.5,0.2,0.5,0.5V41c0,0.1,0,0.2-0.1,0.2l-6.3,11.6c1.6,1.4,4.7,3.4,8.4,2.9c2.5-0.4,3.7-1.6,4.8-2.8c1-1.1,2-2.2,3.8-2.5l-5-9.1
			c0-0.1-0.1-0.2-0.1-0.2v-6.5c0-0.3,0.2-0.5,0.5-0.5s0.5,0.2,0.5,0.5v6.4l5.3,9.6c0.1,0.1,0.1,0.3,0,0.5s-0.2,0.2-0.4,0.3
			c-2,0.1-2.9,1.1-3.9,2.3c-1.2,1.3-2.5,2.7-5.3,3.1C40.6,56.7,40.1,56.8,39.6,56.8z"/>
	</g>
	<g>
		<path fill="#D2F4DB" d="M58.8,66.3l-0.2-0.4l-8.3-15.2c-4.4,0.3-4,4.6-9.3,5.4c-4.2,0.6-7.6-1.8-9.1-3.2l-7.1,13l-0.2,0.4
			c-0.2,0.4-0.3,0.9-0.3,1.4c0,1.8,1.5,3.3,3.3,3.3h14h0.3h14c1.8,0,3.3-1.5,3.3-3.3C59.2,67.2,59.1,66.7,58.8,66.3z"/>
		<path fill="#1E2538" d="M55.9,71.6H27.5c-2.1,0-3.8-1.7-3.8-3.8c0-0.6,0.1-1.1,0.4-1.7l0.2-0.4l7.1-13c0.1-0.1,0.2-0.2,0.4-0.3
			c0.2,0,0.3,0,0.4,0.1c1.3,1.2,4,3.2,7.4,3.2c0.4,0,0.9,0,1.3-0.1c2.5-0.4,3.7-1.6,4.8-2.8c1.1-1.2,2.2-2.4,4.6-2.6
			c0.2,0,0.4,0.1,0.5,0.3l8.5,15.6c0.3,0.5,0.4,1.1,0.4,1.7C59.7,69.9,58,71.6,55.9,71.6z M32,53.7l-7,12.8
			c-0.2,0.4-0.3,0.8-0.3,1.2c0,1.5,1.3,2.8,2.8,2.8h28.3c1.5,0,2.8-1.3,2.8-2.8c0-0.4-0.1-0.8-0.3-1.2l-0.2-0.3L50,51.3
			c-1.8,0.2-2.6,1.2-3.6,2.3c-1.2,1.3-2.5,2.7-5.3,3.1c-0.5,0.1-0.9,0.1-1.4,0.1C36.3,56.8,33.6,55,32,53.7z"/>
	</g>
	<g>
		<path fill="#A8E9B8" d="M58.8,66.3l-0.2-0.4l-8.3-15.2c-1,0.1-1.8,0.4-2.4,0.8l7.9,14.5l0.2,0.4c0.2,0.4,0.3,0.9,0.3,1.4
			c0,1.8-1.5,3.3-3.3,3.3h2.8c1.8,0,3.3-1.5,3.3-3.3C59.2,67.2,59.1,66.7,58.8,66.3z"/>
	</g>
	<g>
		<path fill="#1E2538" d="M43.8,60.8H41c-0.3,0-0.5-0.2-0.5-0.5s0.2-0.5,0.5-0.5h2.8c0.3,0,0.5,0.2,0.5,0.5S44.1,60.8,43.8,60.8z"/>
	</g>
	<g>
		<path fill="#1E2538" d="M43.8,63h-5.1c-0.3,0-0.5-0.2-0.5-0.5s0.2-0.5,0.5-0.5h5.1c0.3,0,0.5,0.2,0.5,0.5S44.1,63,43.8,63z"/>
	</g>
	<g>
		<path fill="#1E2538" d="M43.8,65.2H41c-0.3,0-0.5-0.2-0.5-0.5s0.2-0.5,0.5-0.5h2.8c0.3,0,0.5,0.2,0.5,0.5S44.1,65.2,43.8,65.2z"/>
	</g>
	<g>
		<path fill="#1E2538" d="M43.8,67.1h-5.1c-0.3,0-0.5-0.2-0.5-0.5s0.2-0.5,0.5-0.5h5.1c0.3,0,0.5,0.2,0.5,0.5S44.1,67.1,43.8,67.1z"
			/>
	</g>
	<g>
		<path fill="#1E2538" d="M43.8,69.3H41c-0.3,0-0.5-0.2-0.5-0.5s0.2-0.5,0.5-0.5h2.8c0.3,0,0.5,0.2,0.5,0.5S44.1,69.3,43.8,69.3z"/>
	</g>
	<g>
		<g>
			<path fill="#1E2538" d="M19.3,20.1c-0.1,0-0.2,0-0.3-0.1c-1.8-1.6-2.9-3.8-3-6.2c-0.1-2.4,0.7-4.7,2.2-6.5s3.8-2.9,6.2-3
				c2.4-0.1,4.7,0.6,6.5,2.2c0.2,0.2,0.2,0.5,0,0.7c-0.2,0.2-0.5,0.2-0.7,0c-1.6-1.4-3.7-2.1-5.8-2c-2.1,0.1-4.1,1.1-5.5,2.7
				c-2.9,3.3-2.6,8.4,0.7,11.3c0.2,0.2,0.2,0.5,0,0.7C19.6,20,19.5,20.1,19.3,20.1z"/>
		</g>
		<g>
			<path fill="#1E2538" d="M25.1,30c-1.8,0-3.5-0.7-4.8-1.9c-1.4-1.3-2.2-3-2.3-4.9c-0.2-3.9,2.9-7.2,6.8-7.4c0.3,0,0.5,0.2,0.5,0.5
				c0,0.3-0.2,0.5-0.5,0.5c-3.4,0.1-6,3-5.9,6.4c0.1,1.6,0.8,3.1,2,4.2c1.2,1.1,2.8,1.7,4.4,1.6c0.3,0,0.5,0.2,0.5,0.5
				c0,0.3-0.2,0.5-0.5,0.5C25.3,30,25.2,30,25.1,30z"/>
		</g>
		<g>
			<path fill="#1E2538" d="M3.8,25.3c-0.1,0-0.2,0-0.3-0.1c-4.3-3.8-4.7-10.4-0.9-14.7C4.5,8.4,7,7.1,9.8,7c2.8-0.2,5.5,0.8,7.5,2.6
				c0.2,0.2,0.2,0.5,0,0.7c-0.2,0.2-0.5,0.2-0.7,0C14.8,8.7,12.4,7.8,9.8,8C7.3,8.1,5,9.2,3.4,11.1C-0.1,15,0.3,21,4.2,24.4
				c0.2,0.2,0.2,0.5,0,0.7C4.1,25.3,4,25.3,3.8,25.3z"/>
		</g>
		<g>
			<path fill="#1E2538" d="M12.7,39.4C12.7,39.4,12.7,39.4,12.7,39.4c-5.8-0.3-10.2-5.2-9.9-11c0.2-2.8,1.4-5.3,3.4-7.2
				c2.1-1.9,4.8-2.8,7.5-2.6c0.3,0,0.5,0.3,0.5,0.5c0,0.3-0.3,0.5-0.5,0.5c-5.2-0.3-9.6,3.7-9.9,8.9c-0.3,5.2,3.7,9.6,8.9,9.9
				c0.3,0,0.5,0.2,0.5,0.5C13.2,39.2,13,39.4,12.7,39.4z"/>
		</g>
	</g>
	<g>
		<path fill="none" stroke="#000000" stroke-linecap="round" stroke-linejoin="round" stroke-miterlimit="10" d="M47,10.9"/>
	</g>
	<g>
		<path fill="#1E2538" d="M41.6,28.9c-0.4,0-0.8-0.2-1-0.5c-0.7-0.8-0.6-2.4-0.3-3.9l0-0.2c0.1-0.9,0.9-1.6,1-1.7l24-20.4
			c-0.8-0.1-1.7,0.1-2.4,0.5L39.8,15.4c-0.2,0.1-0.5,0-0.7-0.2c-0.1-0.2,0-0.5,0.2-0.7L62.4,1.9c1.2-0.7,2.6-0.8,3.9-0.4
			c1.3,0.4,2.4,1.2,3,2.4c1.3,2.5,0.4,5.5-2,6.9L44.2,23.4c-1,0.5-1.2,0.9-1.2,0.9c0.1,0.6,0.4,3.1-0.4,4.1
			C42.3,28.8,42,28.9,41.6,28.9z M66.4,2.6L41.9,23.4c-0.2,0.1-0.6,0.6-0.6,1.1l0,0.2c-0.2,1.7-0.2,2.7,0.1,3.1
			c0.1,0.1,0.3,0.2,0.5,0c0.4-0.5,0.4-2.1,0.2-3.2c0-0.1-0.1-0.3,0-0.6c0.2-0.5,0.7-1,1.6-1.5l23-12.7c2-1.1,2.7-3.6,1.6-5.5
			C67.9,3.6,67.3,2.9,66.4,2.6z"/>
	</g>
	<g>
		<g>
			<path fill="#1E2538" d="M50.6,12.7c-0.2,0-0.3-0.1-0.4-0.3l-1.4-2.5c-0.1-0.2,0-0.5,0.2-0.7c0.2-0.1,0.5,0,0.7,0.2l1.4,2.5
				c0.1,0.2,0,0.5-0.2,0.7C50.7,12.6,50.7,12.7,50.6,12.7z"/>
		</g>
		<g>
			<path fill="#1E2538" d="M53.6,13.6c-0.2,0-0.3-0.1-0.4-0.3l-2.5-4.5c-0.1-0.2,0-0.5,0.2-0.7c0.2-0.1,0.5,0,0.7,0.2l2.5,4.5
				c0.1,0.2,0,0.5-0.2,0.7C53.7,13.6,53.7,13.6,53.6,13.6z"/>
		</g>
		<g>
			<path fill="#1E2538" d="M54.4,10.6c-0.2,0-0.3-0.1-0.4-0.3l-1.4-2.5c-0.1-0.2,0-0.5,0.2-0.7c0.2-0.1,0.5,0,0.7,0.2l1.4,2.5
				c0.1,0.2,0,0.5-0.2,0.7C54.6,10.5,54.5,10.6,54.4,10.6z"/>
		</g>
		<g>
			<path fill="#1E2538" d="M57.2,11.6c-0.2,0-0.3-0.1-0.4-0.3l-2.5-4.5c-0.1-0.2,0-0.5,0.2-0.7c0.2-0.1,0.5,0,0.7,0.2l2.5,4.5
				c0.1,0.2,0,0.5-0.2,0.7C57.4,11.6,57.3,11.6,57.2,11.6z"/>
		</g>
		<g>
			<path fill="#1E2538" d="M58,8.6c-0.2,0-0.3-0.1-0.4-0.3l-1.4-2.5c-0.1-0.2,0-0.5,0.2-0.7c0.2-0.1,0.5,0,0.7,0.2l1.4,2.5
				c0.1,0.2,0,0.5-0.2,0.7C58.2,8.5,58.1,8.6,58,8.6z"/>
		</g>
	</g>
	<g>
		<path fill="#1E2538" d="M39.6,56.8c-3.7,0-6.6-2.1-8.1-3.5c-0.2-0.2-0.2-0.4-0.1-0.6l6.5-11.8v-6.4c0-0.3,0.2-0.5,0.5-0.5
			s0.5,0.2,0.5,0.5V41c0,0.1,0,0.2-0.1,0.2l-6.3,11.6c1.6,1.4,4.7,3.4,8.4,2.9c2.5-0.4,3.7-1.6,4.8-2.8c1-1.1,2-2.2,3.8-2.5l-5-9.1
			c0-0.1-0.1-0.2-0.1-0.2v-6.5c0-0.3,0.2-0.5,0.5-0.5s0.5,0.2,0.5,0.5v6.4l5.3,9.6c0.1,0.1,0.1,0.3,0,0.5s-0.2,0.2-0.4,0.3
			c-2,0.1-2.9,1.1-3.9,2.3c-1.2,1.3-2.5,2.7-5.3,3.1C40.6,56.7,40.1,56.8,39.6,56.8z"/>
	</g>
	<g>
		<path fill="none" d="M42.7,55.7c2-0.8,3-2.3,4.1-3.4C45,52.9,44.2,54.4,42.7,55.7z"/>
	</g>
	<g>
		<path fill="none" d="M47.9,51.5c-0.4,0.2-0.7,0.5-1,0.8c0.4-0.1,0.8-0.2,1.3-0.2L47.9,51.5z"/>
	</g>
	<g>
		<path fill="#1E2538" d="M55.9,71.6H27.5c-2.1,0-3.8-1.7-3.8-3.8c0-0.6,0.1-1.1,0.4-1.7l0.2-0.4l7.1-13c0.1-0.1,0.2-0.2,0.4-0.3
			c0.2,0,0.3,0,0.4,0.1c1.3,1.2,4,3.2,7.4,3.2c0.4,0,0.9,0,1.3-0.1c2.5-0.4,3.7-1.6,4.8-2.8c1.1-1.2,2.2-2.4,4.6-2.6
			c0.2,0,0.4,0.1,0.5,0.3l8.5,15.6c0.3,0.5,0.4,1.1,0.4,1.7C59.7,69.9,58,71.6,55.9,71.6z M32,53.7l-7,12.8
			c-0.2,0.4-0.3,0.8-0.3,1.2c0,1.5,1.3,2.8,2.8,2.8h28.3c1.5,0,2.8-1.3,2.8-2.8c0-0.4-0.1-0.8-0.3-1.2l-0.2-0.3L50,51.3
			c-1.8,0.2-2.6,1.2-3.6,2.3c-1.2,1.3-2.5,2.7-5.3,3.1c-0.5,0.1-0.9,0.1-1.4,0.1C36.3,56.8,33.6,55,32,53.7z"/>
	</g>
	<g opacity="0.22">
		
			<rect x="53.1" y="-9" transform="matrix(0.482 0.8762 -0.8762 0.482 37.3053 -42.1811)" fill="#FFFFFF" width="2.5" height="38.9"/>
	</g>
	<g>
		<path d="M32.8,29.9v-2.6h-0.6v-0.7h1.5v3.3H32.8z"/>
	</g>
	<g>
		<path d="M41.6,48.2v-2.6H41v-0.7h1.5v3.3H41.6z"/>
	</g>
	<g>
		<path d="M33.4,10.9V8.2h-0.6V7.5h1.5v3.3H33.4z"/>
	</g>
	<g>
		<path d="M39.2,19c0,1.1-0.5,1.7-1.5,1.7c-0.9,0-1.5-0.6-1.5-1.7c0-1.1,0.5-1.7,1.5-1.7C38.7,17.3,39.2,17.9,39.2,19z M37.2,19
			c0,0.8,0.2,1.1,0.6,1.1c0.4,0,0.6-0.3,0.6-1.1s-0.2-1.1-0.6-1.1C37.3,17.9,37.2,18.2,37.2,19z"/>
	</g>
	<g>
		<path d="M47.9,29.2c0,1.1-0.5,1.7-1.5,1.7c-0.9,0-1.5-0.6-1.5-1.7c0-1.1,0.5-1.7,1.5-1.7C47.4,27.5,47.9,28.1,47.9,29.2z
			 M45.9,29.2c0,0.8,0.2,1.1,0.6,1.1c0.4,0,0.6-0.3,0.6-1.1s-0.2-1.1-0.6-1.1C46.1,28.1,45.9,28.4,45.9,29.2z"/>
	</g>
	<g>
		<path d="M34.8,21.4c0,1.1-0.5,1.7-1.5,1.7c-0.9,0-1.5-0.6-1.5-1.7c0-1.1,0.5-1.7,1.5-1.7C34.2,19.7,34.8,20.3,34.8,21.4z
			 M32.7,21.4c0,0.8,0.2,1.1,0.6,1.1c0.4,0,0.6-0.3,0.6-1.1s-0.2-1.1-0.6-1.1C32.9,20.3,32.7,20.6,32.7,21.4z"/>
	</g>
	<g>
		<path d="M30.8,15c0,1.1-0.5,1.7-1.5,1.7c-0.9,0-1.5-0.6-1.5-1.7c0-1.1,0.5-1.7,1.5-1.7C30.3,13.3,30.8,13.9,30.8,15z M28.7,15
			c0,0.8,0.2,1.1,0.6,1.1c0.4,0,0.6-0.3,0.6-1.1S29.8,14,29.3,14C28.9,14,28.7,14.3,28.7,15z"/>
	</g>
</g>
</svg>
