<?xml version="1.0" encoding="utf-8"?>
<!-- Generator: Adobe Illustrator 18.1.1, SVG Export Plug-In . SVG Version: 6.00 Build 0)  -->
<svg version="1.1" id="Calque_1" xmlns="http://www.w3.org/2000/svg" xmlns:xlink="http://www.w3.org/1999/xlink" x="0px" y="0px"
	 viewBox="0 0 681.5 361.9" enable-background="new 0 0 681.5 361.9" xml:space="preserve">
<g>
	<line fill="none" stroke="#ACBBD1" stroke-width="2" stroke-miterlimit="10" x1="326.1" y1="234.4" x2="371.6" y2="262.8"/>
	<polygon fill="none" stroke="#ACBBD1" stroke-width="2" stroke-miterlimit="10" points="184.1,130.2 69.1,65.5 202.7,25 	"/>
	<line fill="none" stroke="#ACBBD1" stroke-width="2" stroke-miterlimit="10" x1="578.9" y1="269.1" x2="653.4" y2="330.9"/>
	<polygon fill="none" stroke="#ACBBD1" stroke-width="2" stroke-miterlimit="10" points="116.6,171.9 175.9,262.3 184.1,130.2 	"/>
	<polygon fill="none" stroke="#ACBBD1" stroke-width="2" stroke-miterlimit="10" points="116.6,171.9 181.1,179.4 184.1,130.2 	"/>
	<polygon fill="none" stroke="#ACBBD1" stroke-width="2" stroke-miterlimit="10" points="175.9,262.3 459.2,263.1 275.6,101.3 	"/>
	<polygon fill="none" stroke="#ACBBD1" stroke-width="2" stroke-miterlimit="10" points="275.6,101.3 202.7,25 203.4,217.8 	"/>
	<polygon fill="none" stroke="#ACBBD1" stroke-width="2" stroke-miterlimit="10" points="202.7,25 293.7,72.7 275.6,101.3 	"/>
	<polygon fill="none" stroke="#ACBBD1" stroke-width="2" stroke-miterlimit="10" points="293.7,72.7 434,77.4 308,129.9 	"/>
	<polygon fill="none" stroke="#ACBBD1" stroke-width="2" stroke-miterlimit="10" points="308,129.9 293.7,72.7 330.9,120.4 	"/>
	<polygon fill="none" stroke="#ACBBD1" stroke-width="2" stroke-miterlimit="10" points="330.9,120.4 459.2,263.1 308,129.9 	"/>
	<polygon fill="none" stroke="#ACBBD1" stroke-width="2" stroke-miterlimit="10" points="377.3,172 446.5,173.4 434,77.4 	"/>
	<polygon fill="none" stroke="#ACBBD1" stroke-width="2" stroke-miterlimit="10" points="446.5,173.4 564.5,181.6 459.2,263.1 	"/>
	<polygon fill="none" stroke="#ACBBD1" stroke-width="2" stroke-miterlimit="10" points="446.5,173.4 508.8,224.7 459.2,263.1 	"/>
	<polygon fill="none" stroke="#ACBBD1" stroke-width="2" stroke-miterlimit="10" points="184.1,130.2 293.7,72.7 238.7,160.9 	"/>
	<polygon fill="none" stroke="#ACBBD1" stroke-width="2" stroke-miterlimit="10" points="459.2,263.1 578.9,269.1 564.5,181.6 	"/>
	<polygon fill="none" stroke="#ACBBD1" stroke-width="2" stroke-miterlimit="10" points="459.2,263.1 540.2,336.7 528.9,266.6 	"/>
	<polygon fill="none" stroke="#ACBBD1" stroke-width="2" stroke-miterlimit="10" points="203.4,217.8 201.7,335.2 326.1,234.4 	"/>
	<polygon fill="none" stroke="#ACBBD1" stroke-width="2" stroke-miterlimit="10" points="181.1,179.4 222.4,186.5 184.1,130.2 	"/>
</g>
<polygon fill="#FFFFFF" stroke="#1E2538" stroke-width="1.5" stroke-linecap="round" stroke-linejoin="round" stroke-miterlimit="10" points="
	572,28.2 613.4,13.4 586.7,37.2 "/>
<polygon fill="#FFFFFF" stroke="#1E2538" stroke-width="1.5" stroke-linecap="round" stroke-linejoin="round" stroke-miterlimit="10" points="
	601.7,55.1 613.8,13.3 589.8,39.8 "/>
<polygon fill="#FFFFFF" stroke="#1E2538" stroke-width="1.5" stroke-linecap="round" stroke-linejoin="round" stroke-miterlimit="10" points="
	589,46.9 589,46.9 589.8,39.8 593.1,44.1 "/>
<polygon fill="#FFFFFF" stroke="#1E2538" stroke-width="1.5" stroke-linecap="round" stroke-linejoin="round" stroke-miterlimit="10" points="
	589,46.9 586.7,37.2 613.4,13.4 589.8,39.8 "/>
<polygon fill="#FAFAFA" stroke="#1E2538" stroke-width="1.5" stroke-linecap="round" stroke-linejoin="round" stroke-miterlimit="10" points="
	21.6,310.9 25.2,307.4 17.7,300 26.6,297.1 0.7,284.9 11,311.8 14.2,303.5 "/>
<circle fill="#FFFFFF" cx="430.8" cy="81.7" r="28.1"/>
<circle fill="#FFFFFF" cx="116.6" cy="172" r="28.1"/>
<circle fill="#FFFFFF" cx="653.4" cy="326.5" r="28.1"/>
<circle fill="#FFFFFF" cx="201.7" cy="28.1" r="28.1"/>
<circle fill="#FFFFFF" cx="293.5" cy="179.2" r="28.1"/>
<circle fill="#FFFFFF" cx="563.3" cy="180.4" r="29.6"/>
<circle fill="#FFFFFF" cx="371.6" cy="262.8" r="28"/>
<circle fill="#FFFFFF" cx="215.1" cy="200.1" r="28"/>
<g>
	<circle fill="#EAE5E2" stroke="#1E2538" stroke-width="1.5" stroke-miterlimit="10" cx="184.1" cy="129.9" r="3.7"/>
	<circle fill="#EAE5E2" stroke="#1E2538" stroke-width="1.5" stroke-miterlimit="10" cx="308.7" cy="129.2" r="3.7"/>
	<circle fill="#EAE5E2" stroke="#1E2538" stroke-width="1.5" stroke-miterlimit="10" cx="239.3" cy="160.1" r="3.7"/>
	<circle fill="#EAE5E2" stroke="#1E2538" stroke-width="1.5" stroke-miterlimit="10" cx="175.9" cy="262.3" r="3.7"/>
	<circle fill="#EAE5E2" stroke="#1E2538" stroke-width="1.5" stroke-miterlimit="10" cx="326.1" cy="234.4" r="3.7"/>
	<circle fill="#EAE5E2" stroke="#1E2538" stroke-width="1.5" stroke-miterlimit="10" cx="378.1" cy="171.4" r="3.7"/>
	<circle fill="#EAE5E2" stroke="#1E2538" stroke-width="1.5" stroke-miterlimit="10" cx="446.5" cy="173.4" r="3.7"/>
	<circle fill="#EAE5E2" stroke="#1E2538" stroke-width="1.5" stroke-miterlimit="10" cx="508.8" cy="224.7" r="3.7"/>
	<circle fill="#EAE5E2" stroke="#1E2538" stroke-width="1.5" stroke-miterlimit="10" cx="578.9" cy="269.1" r="3.7"/>
	<circle fill="#EAE5E2" stroke="#1E2538" stroke-width="1.5" stroke-miterlimit="10" cx="530" cy="266.9" r="3.7"/>
	<circle fill="#EAE5E2" stroke="#1E2538" stroke-width="1.5" stroke-miterlimit="10" cx="459.2" cy="263.1" r="3.7"/>
</g>
<circle fill="#FFFFFF" cx="69.1" cy="64.1" r="28"/>
<circle fill="#FFFFFF" cx="293.7" cy="60.8" r="28"/>
<circle fill="#FFFFFF" cx="202.7" cy="332" r="28"/>
<circle fill="#FFFFFF" cx="540.2" cy="333.9" r="28"/>
<rect x="49.2" y="34.2" fill="none" width="0" height="0"/>
<line fill="#FAFAFA" stroke="#1E2538" stroke-width="1.5" stroke-linecap="round" stroke-linejoin="round" stroke-miterlimit="10" x1="558.7" y1="173.6" x2="566.6" y2="184.4"/>
<line fill="#FAFAFA" stroke="#1E2538" stroke-width="1.5" stroke-linecap="round" stroke-linejoin="round" stroke-miterlimit="10" x1="569.6" y1="184.4" x2="574.8" y2="170.1"/>
<line fill="#FAFAFA" stroke="#1E2538" stroke-width="1.5" stroke-linecap="round" stroke-linejoin="round" stroke-miterlimit="10" x1="550.3" y1="190.5" x2="556.3" y2="173.9"/>
<circle fill="#D2F4DB" stroke="#1E2538" stroke-width="1.5" stroke-linecap="round" stroke-linejoin="round" stroke-miterlimit="10" cx="557.5" cy="172.1" r="3.6"/>
<circle fill="#D2F4DB" stroke="#1E2538" stroke-width="1.5" stroke-linecap="round" stroke-linejoin="round" stroke-miterlimit="10" cx="568.6" cy="184.9" r="3.6"/>
<circle fill="#D2F4DB" stroke="#1E2538" stroke-width="1.5" stroke-linecap="round" stroke-linejoin="round" stroke-miterlimit="10" cx="550.3" cy="190.5" r="3.6"/>
<circle fill="#D2F4DB" stroke="#1E2538" stroke-width="1.5" stroke-linecap="round" stroke-linejoin="round" stroke-miterlimit="10" cx="574.8" cy="170.1" r="3.6"/>
<path fill="none" d="M196.4,22.8c0,2.9,2.4,5.3,5.3,5.3l0,0V17.6l0,0C198.8,17.6,196.4,19.9,196.4,22.8z"/>
<path fill="none" d="M206.9,22.8c0-2.9-2.4-5.3-5.3-5.3v10.5C204.6,28.1,206.9,25.8,206.9,22.8z"/>
<path fill="#FEC3C0" stroke="#1E2538" stroke-width="1.5" stroke-linecap="round" stroke-linejoin="round" stroke-miterlimit="10" d="
	M215.2,23c0-7.5-6.1-13.5-13.5-13.5c-7.5,0-13.5,6.1-13.5,13.5c0,3.7,2.1,6.9,3.9,9.5h0l9.6,15.6l9.6-15.6h0
	C213,29.8,215.2,26.7,215.2,23z M201.7,28.1c-2.9,0-5.3-2.4-5.3-5.3c0-2.9,2.4-5.3,5.3-5.3c2.9,0,5.3,2.4,5.3,5.3
	C206.9,25.8,204.6,28.1,201.7,28.1z"/>
<path fill="#DADADA" stroke="#1E2538" stroke-width="1.5" stroke-miterlimit="10" d="M129.6,190.2h-25.9c-0.6,0-1-0.4-1-1v-34.4
	c0-0.6,0.4-1,1-1h25.9c0.6,0,1,0.4,1,1v34.4C130.6,189.8,130.1,190.2,129.6,190.2z"/>
<path fill="#FAFAFA" stroke="#1E2538" stroke-width="1.5" stroke-miterlimit="10" d="M126.5,183.3h-19.7c-0.6,0-1-0.5-1-1v-21.7
	c0-0.6,0.4-1,1-1h19.7c0.6,0,1,0.4,1,1v21.7C127.5,182.8,127,183.3,126.5,183.3z"/>
<circle fill="#FAFAFA" stroke="#1E2538" stroke-width="1.5" stroke-miterlimit="10" cx="116.6" cy="186.9" r="1"/>
<path fill="none" d="M283.1,191.4h0.8v0C283.6,191.4,283.4,191.4,283.1,191.4z"/>
<path fill="#E6F3FC" stroke="#1E2538" stroke-width="1.5" stroke-linecap="round" stroke-linejoin="round" stroke-miterlimit="10" d="
	M312.7,184.9c0-3.6-2.9-6.5-6.5-6.5c-0.2,0-0.4,0-0.5,0c0-0.3,0-0.5,0-0.8c0-5.8-4.7-10.5-10.5-10.5c-4.6,0-8.5,2.9-9.9,7.1
	c-0.7-0.2-1.4-0.3-2.1-0.3c-4.8,0-8.8,3.9-8.8,8.8c0,4.8,3.9,8.8,8.8,8.8c0.3,0,0.6,0,0.8,0v0h23.3v-0.1
	C310.3,190.8,312.7,188.2,312.7,184.9z"/>
<g>
	<path fill="#8DC2ED" stroke="#1E2538" stroke-width="1.5" stroke-miterlimit="10" d="M426.8,96.6h5.9c0,0,0-8.2,0-14.8h4.4l0.5-5.9
		H433v-2.4c0-1.2,0.8-1.4,1.3-1.4c0.5,0,3.3,0,3.3,0v-5.1l-4.6,0c-5.1,0-6.2,3.8-6.2,6.2v2.7h-2.9v5.9h3
		C426.8,88.4,426.8,96.6,426.8,96.6z"/>
</g>
<path fill="#FAFAFA" stroke="#1E2538" stroke-width="1.5" stroke-linecap="round" stroke-linejoin="round" stroke-miterlimit="10" d="
	M63.1,71.9c0-7.9,4.7-14.3,10.4-14.3S83.9,64,83.9,71.9H63.1z"/>
<path fill="#FFFFFF" stroke="#1E2538" stroke-width="1.5" stroke-linecap="round" stroke-linejoin="round" stroke-miterlimit="10" d="
	M63.1,71.9c0-7.9,4.7-14.3,10.4-14.3S83.9,64,83.9,71.9H63.1z"/>
<circle fill="#FFFFFF" stroke="#1E2538" stroke-width="1.5" stroke-linecap="round" stroke-linejoin="round" stroke-miterlimit="10" cx="73.5" cy="52.9" r="6.8"/>
<path fill="#3ED2A6" stroke="#1E2538" stroke-width="1.5" stroke-linecap="round" stroke-linejoin="round" stroke-miterlimit="10" d="
	M54.3,78.9c0-7.9,4.7-14.3,10.4-14.3S75,71,75,78.9H54.3z"/>
<path fill="#FEF3D1" stroke="#1E2538" stroke-width="1.5" stroke-linecap="round" stroke-linejoin="round" stroke-miterlimit="10" d="
	M54.3,78.9c0-7.9,4.7-14.3,10.4-14.3S75,71,75,78.9H54.3z"/>
<circle fill="#FEF3D1" stroke="#1E2538" stroke-width="1.5" stroke-linecap="round" stroke-linejoin="round" stroke-miterlimit="10" cx="64.7" cy="59.8" r="6.8"/>
<path fill="#FCF1F0" stroke="#1E2538" stroke-width="1.5" stroke-linecap="round" stroke-linejoin="round" stroke-miterlimit="10" d="
	M306.3,69.2l-10.1-9.4l-2.3-0.3c-1.6,4-5,3.1-5,3.1l1.5-4.4l3.1-2.3l3.3-0.6l6.9,1.2l4.7,10.7"/>
<path fill="#FFFFFF" stroke="#1E2538" stroke-width="1.5" stroke-linecap="round" stroke-linejoin="round" stroke-miterlimit="10" d="
	M294.6,73l2.6,2c0.7,0.7,1.7,0.7,2.4,0s0.7-1.7,0-2.4l-5.9-5.2l7.1,6.2c0.7,0.7,1.7,0.7,2.4,0s0.7-1.7,0-2.4l-6.5-5.8l7.1,6.2
	c0.7,0.7,1.7,0.7,2.4,0s0.7-1.7,0-2.4"/>
<path fill="#FFFFFF" stroke="#1E2538" stroke-width="1.5" stroke-linecap="round" stroke-linejoin="round" stroke-miterlimit="10" d="
	M294,72.5l2.5,1.9c0.6,0.7,0.5,1.8-0.2,2.4c-0.7,0.6-1.8,0.5-2.4-0.2l-1.5-1.2"/>
<line fill="#FFFFFF" stroke="#1E2538" stroke-width="1.5" stroke-linecap="round" stroke-linejoin="round" stroke-miterlimit="10" x1="294.2" y1="55.7" x2="284.4" y2="56.4"/>
<line fill="#FFFFFF" stroke="#1E2538" stroke-width="1.5" stroke-linecap="round" stroke-linejoin="round" stroke-miterlimit="10" x1="280.7" y1="67.3" x2="282.8" y2="68"/>
<path fill="#FCF1F0" stroke="#1E2538" stroke-width="1.5" stroke-linecap="round" stroke-linejoin="round" stroke-miterlimit="10" d="
	M288.8,74l-1.1-0.9c-0.3-0.2-0.4-0.7-0.1-1l2.3-3c0.2-0.3,0.7-0.4,1-0.1l1.1,0.9c0.3,0.2,0.4,0.7,0.1,1l-2.3,3
	C289.6,74.2,289.1,74.3,288.8,74z"/>
<path fill="#FCF1F0" stroke="#1E2538" stroke-width="1.5" stroke-linecap="round" stroke-linejoin="round" stroke-miterlimit="10" d="
	M286.1,72.4l-1.1-0.9c-0.3-0.2-0.4-0.7-0.1-1l2.6-3.3c0.2-0.3,0.7-0.4,1-0.1l1.1,0.9c0.3,0.2,0.4,0.7,0.1,1l-2.6,3.3
	C286.9,72.6,286.4,72.7,286.1,72.4z"/>
<path fill="#FCF1F0" stroke="#1E2538" stroke-width="1.5" stroke-linecap="round" stroke-linejoin="round" stroke-miterlimit="10" d="
	M283.3,70.8l-1.1-0.9c-0.3-0.2-0.4-0.7-0.1-1l2.3-3c0.2-0.3,0.7-0.4,1-0.1l1.1,0.9c0.3,0.2,0.4,0.7,0.1,1l-2.3,3
	C284.1,71,283.6,71,283.3,70.8z"/>
<path fill="#FCF1F0" stroke="#1E2538" stroke-width="1.5" stroke-linecap="round" stroke-linejoin="round" stroke-miterlimit="10" d="
	M291.3,75.4l-1.1-0.9c-0.3-0.2-0.4-0.7-0.1-1l1.7-2.1c0.2-0.3,0.7-0.4,1-0.1l1.1,0.9c0.3,0.2,0.4,0.7,0.1,1l-1.7,2.1
	C292.1,75.6,291.6,75.7,291.3,75.4z"/>
<polyline fill="#FFFFFF" stroke="#1E2538" stroke-width="1.5" stroke-linecap="round" stroke-linejoin="round" stroke-miterlimit="10" points="
	306.3,69.2 305.7,68.6 308.4,67.1 "/>
<rect x="305.4" y="51.8" transform="matrix(0.9155 -0.4023 0.4023 0.9155 2.0787 129.562)" fill="#D1C7FD" stroke="#1E2538" stroke-width="1.5" stroke-linecap="round" stroke-linejoin="round" stroke-miterlimit="10" width="8.2" height="16.1"/>
<rect x="275" y="51.8" transform="matrix(-0.9155 -0.4023 0.4023 -0.9155 510.4562 226.8813)" fill="#A8E9B8" stroke="#1E2538" stroke-width="1.5" stroke-linecap="round" stroke-linejoin="round" stroke-miterlimit="10" width="8.2" height="16.1"/>
<polygon fill="#E8E3FE" points="307.2,64.9 308.9,68.8 316.4,65.5 314.8,61.7 "/>
<polygon fill="#D2F4DB" points="273.8,61.6 272.1,65.6 279.6,68.9 281.3,65 "/>
<rect x="305.4" y="51.8" transform="matrix(0.9155 -0.4023 0.4023 0.9155 2.0787 129.562)" fill="none" stroke="#1E2538" stroke-width="1.5" stroke-linecap="round" stroke-linejoin="round" stroke-miterlimit="10" width="8.2" height="16.1"/>
<rect x="275" y="51.8" transform="matrix(-0.9155 -0.4023 0.4023 -0.9155 510.4562 226.8813)" fill="none" stroke="#1E2538" stroke-width="1.5" stroke-linecap="round" stroke-linejoin="round" stroke-miterlimit="10" width="8.2" height="16.1"/>
<path fill="none" stroke="#1E2538" stroke-width="1.5" stroke-miterlimit="10" d="M126.5,183.3h-19.7c-0.6,0-1-0.5-1-1v-21.7
	c0-0.6,0.4-1,1-1h19.7c0.6,0,1,0.4,1,1v21.7C127.5,182.8,127,183.3,126.5,183.3z"/>
<path fill="#F6F6F6" stroke="#000000" stroke-width="1.5" stroke-linecap="round" stroke-linejoin="round" stroke-miterlimit="10" d="
	M208.3,341.7h-12.8c-1.1,0-2-0.9-2-2v-15.4c0-1.1,0.9-2,2-2h12.8c1.1,0,2,0.9,2,2v15.4C210.3,340.8,209.4,341.7,208.3,341.7z"/>
<line fill="none" stroke="#000000" stroke-width="1.5" stroke-linecap="round" stroke-linejoin="round" stroke-miterlimit="10" x1="202" y1="326.5" x2="202" y2="333.9"/>
<line fill="none" stroke="#000000" stroke-width="1.5" stroke-linecap="round" stroke-linejoin="round" stroke-miterlimit="10" x1="204.8" y1="330.9" x2="202" y2="333.9"/>
<path fill="none" stroke="#000000" stroke-width="1.5" stroke-linecap="round" stroke-linejoin="round" stroke-miterlimit="10" d="
	M210.3,330.5h0.8l0,0c0.5,0,0.8,0.4,0.8,0.8v1.4c0,0.5-0.4,0.8-0.8,0.8l0,0h-0.8V330.5z"/>
<path fill="#FACDC2" stroke="#000000" stroke-width="1.5" stroke-linecap="round" stroke-linejoin="round" stroke-miterlimit="10" d="
	M206.1,314v8.3h-8.3V314v0.9v-1.7c0-0.5,0.4-0.9,0.9-0.9h6.5c0.5,0,0.9,0.4,0.9,0.9v1.7V314z"/>
<path fill="#FACDC2" stroke="#000000" stroke-width="1.5" stroke-linecap="round" stroke-linejoin="round" stroke-miterlimit="10" d="
	M206.1,349.1v1.7c0,0.5-0.4,0.9-0.9,0.9h-6.5c-0.5,0-0.9-0.4-0.9-0.9v-1.7v0.9v-8.3h8.3v8.3V349.1z"/>
<path opacity="0.5" fill="#FFFFFF" d="M198.4,338.3h-1.3c-0.4,0-0.6-0.3-0.6-0.6v-11.3c0-0.4,0.3-0.6,0.6-0.6h1.3
	c0.4,0,0.6,0.3,0.6,0.6v11.3C199,338,198.7,338.3,198.4,338.3z"/>
<rect x="357.8" y="246.2" fill="#D1C7FD" stroke="#1E2538" stroke-width="1.5" stroke-linecap="round" stroke-linejoin="round" stroke-miterlimit="10" width="7.3" height="33.1"/>
<rect x="378.1" y="249.8" fill="#D1C7FD" stroke="#1E2538" stroke-width="1.5" stroke-linecap="round" stroke-linejoin="round" stroke-miterlimit="10" width="7.3" height="29.5"/>
<rect x="367.9" y="258.5" fill="#E8E3FE" stroke="#1E2538" stroke-width="1.5" stroke-linecap="round" stroke-linejoin="round" stroke-miterlimit="10" width="7.3" height="20.8"/>
<g>
	<path fill="none" stroke="#1E2538" stroke-width="1.5" stroke-linecap="round" stroke-linejoin="round" stroke-miterlimit="10" d="
		M661.4,321.2c0.8-0.8,1.2-1.7,1.2-2.7c0-2.9-4.1-5.3-9.2-5.3c-5.1,0-9.2,2.4-9.2,5.3c0,1,0.5,1.9,1.2,2.7"/>
	<path fill="none" stroke="#1E2538" stroke-width="1.5" stroke-linecap="round" stroke-linejoin="round" stroke-miterlimit="10" d="
		M644.1,323.8c0,1,0.5,1.9,1.2,2.7"/>
	<path fill="none" stroke="#1E2538" stroke-width="1.5" stroke-linecap="round" stroke-linejoin="round" stroke-miterlimit="10" d="
		M653.4,323.8c-3.4,0-6.4-1.1-8-2.7"/>
	<path fill="none" stroke="#1E2538" stroke-width="1.5" stroke-linecap="round" stroke-linejoin="round" stroke-miterlimit="10" d="
		M661.4,321.2c-1.6,1.6-4.6,2.7-8,2.7"/>
	<path fill="none" stroke="#1E2538" stroke-width="1.5" stroke-linecap="round" stroke-linejoin="round" stroke-miterlimit="10" d="
		M661.4,326.5c0.8-0.8,1.2-1.7,1.2-2.7"/>
	<path fill="none" stroke="#1E2538" stroke-width="1.5" stroke-linecap="round" stroke-linejoin="round" stroke-miterlimit="10" d="
		M661.4,326.5c-1.6,1.6-4.6,2.7-8,2.7"/>
	<path fill="none" stroke="#1E2538" stroke-width="1.5" stroke-linecap="round" stroke-linejoin="round" stroke-miterlimit="10" d="
		M661.4,331.8c0.8-0.8,1.2-1.7,1.2-2.7"/>
	<path fill="none" stroke="#1E2538" stroke-width="1.5" stroke-linecap="round" stroke-linejoin="round" stroke-miterlimit="10" d="
		M644.1,329.2c0,1,0.5,1.9,1.2,2.7"/>
	<path fill="none" stroke="#1E2538" stroke-width="1.5" stroke-linecap="round" stroke-linejoin="round" stroke-miterlimit="10" d="
		M653.4,329.2c-3.4,0-6.4-1.1-8-2.7"/>
	<path fill="none" stroke="#1E2538" stroke-width="1.5" stroke-linecap="round" stroke-linejoin="round" stroke-miterlimit="10" d="
		M644.1,334.5c0,2.9,4.1,5.3,9.2,5.3c5.1,0,9.2-2.4,9.2-5.3"/>
	<path fill="none" stroke="#1E2538" stroke-width="1.5" stroke-linecap="round" stroke-linejoin="round" stroke-miterlimit="10" d="
		M661.4,331.8c-1.6,1.6-4.6,2.7-8,2.7s-6.4-1.1-8-2.7"/>
	
		<line fill="none" stroke="#1E2538" stroke-width="1.5" stroke-linecap="round" stroke-linejoin="round" stroke-miterlimit="10" x1="644.1" y1="318.5" x2="644.1" y2="334.5"/>
	
		<line fill="none" stroke="#1E2538" stroke-width="1.5" stroke-linecap="round" stroke-linejoin="round" stroke-miterlimit="10" x1="662.6" y1="334.5" x2="662.6" y2="319.3"/>
</g>
<g>
	
		<polyline fill="#F6F6F6" stroke="#1E2538" stroke-width="1.5" stroke-linecap="round" stroke-linejoin="round" stroke-miterlimit="10" points="
		210.1,190.3 210.1,191.3 200.6,191.3 	"/>
	
		<path fill="#F6F6F6" stroke="#1E2538" stroke-width="1.5" stroke-linecap="round" stroke-linejoin="round" stroke-miterlimit="10" d="
		M200.6,192v-3.7c0-0.4,0.3-0.7,0.7-0.7h5.5l3.3,3.4v1H200.6"/>
	
		<path fill="#F6F6F6" stroke="#1E2538" stroke-width="1.5" stroke-linecap="round" stroke-linejoin="round" stroke-miterlimit="10" d="
		M200.6,211.7v-20.4c0-0.6,0.4-1,1-1h27c0.6,0,1,0.4,1,1v20.4c0,0.6-0.4,1-1,1h-27C201,212.7,200.6,212.2,200.6,211.7z"/>
</g>
<path fill="#F6F6F6" stroke="#1E2538" stroke-width="1.5" stroke-linecap="round" stroke-linejoin="round" stroke-miterlimit="10" d="
	M200.6,211.7v-20.4c0-0.6,0.4-1,1-1h27c0.6,0,1,0.4,1,1v20.4c0,0.6-0.4,1-1,1h-27C201,212.7,200.6,212.2,200.6,211.7z"/>
<path fill="#FAFAFA" stroke="#1E2538" stroke-width="1.5" stroke-miterlimit="10" d="M578.9,269.1"/>
<g>
	
		<path fill="#F6F6F6" stroke="#1E2538" stroke-width="1.5" stroke-linecap="round" stroke-linejoin="round" stroke-miterlimit="10" d="
		M545.2,321.4h-14c-0.3,0-0.6,0.3-0.6,0.6v23.9c0,0.3,0.3,0.6,0.6,0.6h17.9c0.3,0,0.6-0.3,0.6-0.6v-20.1L545.2,321.4z"/>
	
		<path fill="#DADADA" stroke="#1E2538" stroke-width="1.5" stroke-linecap="round" stroke-linejoin="round" stroke-miterlimit="10" d="
		M545.2,325.2c0,0.3,0.3,0.6,0.6,0.6h3.8l-4.5-4.5V325.2z"/>
</g>
</svg>
