<?xml version="1.0" encoding="utf-8"?>
<!-- Generator: Adobe Illustrator 18.1.1, SVG Export Plug-In . SVG Version: 6.00 Build 0)  -->
<svg version="1.1" id="Calque_1" xmlns="http://www.w3.org/2000/svg" xmlns:xlink="http://www.w3.org/1999/xlink" x="0px" y="0px"
	 viewBox="0 0 81.3 82.2" enable-background="new 0 0 81.3 82.2" xml:space="preserve">
<g>
	<path fill="#1E2538" d="M75.1,2.9H43.7c-0.3,0-0.5-0.2-0.5-0.5s0.2-0.5,0.5-0.5h31.4c0.3,0,0.5,0.2,0.5,0.5S75.4,2.9,75.1,2.9z"/>
</g>
<g>
	<path fill="#1E2538" d="M75.1,80.3H44.2c-0.3,0-0.5-0.2-0.5-0.5s0.2-0.5,0.5-0.5h30.9c0.3,0,0.5,0.2,0.5,0.5S75.4,80.3,75.1,80.3z"
		/>
</g>
<g>
	<path fill="#1E2538" d="M75.1,80.3c-0.3,0-0.5-0.2-0.5-0.5V56.5c0-0.3,0.2-0.5,0.5-0.5s0.5,0.2,0.5,0.5v23.3
		C75.6,80.1,75.4,80.3,75.1,80.3z"/>
</g>
<g>
	<path fill="#1E2538" d="M78.9,19.2c-0.2,0-0.4-0.2-0.5-0.4L74.6,2.5C74.5,2.3,74.7,2,75,1.9c0.3-0.1,0.5,0.1,0.6,0.4l3.8,16.3
		c0.1,0.3-0.1,0.5-0.4,0.6C79,19.2,79,19.2,78.9,19.2z"/>
</g>
<g>
	
		<rect x="19.9" y="55.1" transform="matrix(0.4974 0.8675 -0.8675 0.4974 66.3595 -3.4255)" fill="#1E2538" width="32.4" height="1"/>
</g>
<g>
	
		<rect x="35.4" y="7.8" transform="matrix(0.8983 0.4394 -0.4394 0.8983 14.8746 -13.1699)" fill="#1E2538" width="1" height="35.5"/>
</g>
<g>
	<path fill="#1E2538" d="M28.1,42c-0.2,0-0.4-0.1-0.5-0.3c-0.1-0.3,0-0.5,0.3-0.7l23.9-9.8c0.3-0.1,0.5,0,0.7,0.3s0,0.5-0.3,0.7
		L28.3,42C28.2,42,28.1,42,28.1,42z"/>
</g>
<g>
	<path fill="#1E2538" d="M28.1,42c-0.3,0-0.5-0.2-0.5-0.5c0-0.3,0.2-0.5,0.5-0.5l28.6-1.9c0.3,0,0.5,0.2,0.5,0.5
		c0,0.3-0.2,0.5-0.5,0.5L28.1,42C28.1,42,28.1,42,28.1,42z"/>
</g>
<g>
	<path fill="#1E2538" d="M67.1,55.1c-0.1,0-0.1,0-0.2,0L27.9,42c-0.3-0.1-0.4-0.4-0.3-0.6c0.1-0.3,0.4-0.4,0.6-0.3l39.1,13.1
		c0.3,0.1,0.4,0.4,0.3,0.6C67.5,55,67.3,55.1,67.1,55.1z"/>
</g>
<g>
	<path fill="#1E2538" d="M44.2,70.1c-0.2,0-0.3-0.1-0.4-0.2c-0.1-0.2-0.1-0.5,0.2-0.7l23.6-15c0.2-0.1,0.5-0.1,0.7,0.2
		c0.1,0.2,0.1,0.5-0.2,0.7L44.5,70C44.4,70.1,44.3,70.1,44.2,70.1z"/>
</g>
<g>
	<path fill="#1E2538" d="M44.2,80.3c-0.1,0-0.2,0-0.3-0.1c-0.2-0.2-0.2-0.5,0-0.7l22.9-25.2c0.2-0.2,0.5-0.2,0.7,0
		c0.2,0.2,0.2,0.5,0,0.7L44.6,80.1C44.5,80.3,44.3,80.3,44.2,80.3z"/>
</g>
<g>
	<path fill="#1E2538" d="M72.1,48.9c-0.2,0-0.3-0.1-0.4-0.2l-28.4-46c-0.1-0.2-0.1-0.5,0.2-0.7c0.2-0.1,0.5-0.1,0.7,0.2l28.4,46
		c0.1,0.2,0.1,0.5-0.2,0.7C72.2,48.9,72.1,48.9,72.1,48.9z"/>
</g>
<g>
	<path fill="#1E2538" d="M56.7,40.1c-0.2,0-0.3-0.1-0.4-0.2L51.6,32c-0.1-0.2-0.1-0.5,0.2-0.7c0.2-0.1,0.5-0.1,0.7,0.2l4.7,7.8
		c0.1,0.2,0.1,0.5-0.2,0.7C56.9,40.1,56.8,40.1,56.7,40.1z"/>
</g>
<g>
	<path fill="#1E2538" d="M78.9,19.2c0,0-0.1,0-0.1,0l-35.2-9.2c-0.3-0.1-0.4-0.3-0.4-0.6c0.1-0.3,0.3-0.4,0.6-0.4L79,18.3
		c0.3,0.1,0.4,0.3,0.4,0.6C79.3,19.1,79.1,19.2,78.9,19.2z"/>
</g>
<g>
	<path fill="#1E2538" d="M52,32.3c-0.2,0-0.4-0.1-0.5-0.3c-0.1-0.2,0-0.5,0.2-0.7l26.9-13c0.2-0.1,0.5,0,0.7,0.2
		c0.1,0.2,0,0.5-0.2,0.7l-26.9,13C52.1,32.2,52.1,32.3,52,32.3z"/>
</g>
<g>
	<path fill="#1E2538" d="M56.7,40.1c-0.1,0-0.3-0.1-0.4-0.2c-0.2-0.2-0.2-0.5,0-0.7l22.2-20.9c0.2-0.2,0.5-0.2,0.7,0
		c0.2,0.2,0.2,0.5,0,0.7L57.1,40C57,40.1,56.8,40.1,56.7,40.1z"/>
</g>
<g>
	<path fill="#1E2538" d="M72.1,48.9c0,0-0.1,0-0.1,0c-0.3-0.1-0.4-0.3-0.4-0.6l6.9-29.7c0.1-0.3,0.3-0.4,0.6-0.4
		c0.3,0.1,0.4,0.3,0.4,0.6l-6.9,29.7C72.5,48.8,72.3,48.9,72.1,48.9z"/>
</g>
<g>
	<path fill="#1E2538" d="M67.1,55.1c-0.2,0-0.3-0.1-0.4-0.2l-10.4-15c-0.2-0.2-0.1-0.5,0.1-0.7c0.2-0.2,0.5-0.1,0.7,0.1l10.4,15
		c0.2,0.2,0.1,0.5-0.1,0.7C67.3,55.1,67.2,55.1,67.1,55.1z"/>
</g>
<g>
	<g>
		<defs>
			<path id="SVGID_1_" d="M44.2,69.6H6.3c-0.6,0-1-0.5-1-1v-58c0-0.5,0.4-1,1-1h4.8h30.9h2.1 M44.2,2.8h-7H6.2H1.5c-0.6,0-1,0.4-1,1
				v75c0,0.6,0.4,1,1,1h42.7"/>
		</defs>
		<clipPath id="SVGID_2_">
			<use xlink:href="#SVGID_1_"  overflow="visible"/>
		</clipPath>
		<path clip-path="url(#SVGID_2_)" fill="#EDEDED" d="M0.5,2.8v77V2.8z"/>
		<rect x="0.5" y="2.8" clip-path="url(#SVGID_2_)" fill="#EDEDED" width="2.4" height="77"/>
		<rect x="2.9" y="2.8" clip-path="url(#SVGID_2_)" fill="#EDEDED" width="2.4" height="77"/>
		<rect x="5.4" y="2.8" clip-path="url(#SVGID_2_)" fill="#EDEDED" width="2.4" height="77"/>
		<rect x="7.8" y="2.8" clip-path="url(#SVGID_2_)" fill="#EDEDED" width="2.4" height="77"/>
		<rect x="10.2" y="2.8" clip-path="url(#SVGID_2_)" fill="#EDEDED" width="2.4" height="77"/>
		<rect x="12.6" y="2.8" clip-path="url(#SVGID_2_)" fill="#EEEEEE" width="2.4" height="77"/>
		<rect x="15.1" y="2.8" clip-path="url(#SVGID_2_)" fill="#EEEEEE" width="2.4" height="77"/>
		<rect x="17.5" y="2.8" clip-path="url(#SVGID_2_)" fill="#EFEFEF" width="2.4" height="77"/>
		<rect x="19.9" y="2.8" clip-path="url(#SVGID_2_)" fill="#EFEFEF" width="2.4" height="77"/>
		<rect x="22.3" y="2.8" clip-path="url(#SVGID_2_)" fill="#F0F0F0" width="2.4" height="77"/>
		<rect x="24.8" y="2.8" clip-path="url(#SVGID_2_)" fill="#F1F1F1" width="2.4" height="77"/>
		<rect x="27.2" y="2.8" clip-path="url(#SVGID_2_)" fill="#F3F3F3" width="2.4" height="77"/>
		<rect x="29.6" y="2.8" clip-path="url(#SVGID_2_)" fill="#F4F4F4" width="2.4" height="77"/>
		<rect x="32.1" y="2.8" clip-path="url(#SVGID_2_)" fill="#F6F6F6" width="2.4" height="77"/>
		<rect x="34.5" y="2.8" clip-path="url(#SVGID_2_)" fill="#F8F8F8" width="2.4" height="77"/>
		<rect x="36.9" y="2.8" clip-path="url(#SVGID_2_)" fill="#FAFAFA" width="2.4" height="77"/>
		<rect x="39.3" y="2.8" clip-path="url(#SVGID_2_)" fill="#FCFCFC" width="2.4" height="77"/>
		<rect x="41.8" y="2.8" clip-path="url(#SVGID_2_)" fill="#FFFFFF" width="2.4" height="77"/>
		<path clip-path="url(#SVGID_2_)" fill="#FFFFFF" d="M44.2,79.8v-77V79.8z"/>
		<rect x="5.3" y="9.6" clip-path="url(#SVGID_2_)" fill="#EDEDED" width="0" height="60"/>
		<rect x="5.4" y="9.6" clip-path="url(#SVGID_2_)" fill="#EDEDED" width="2.4" height="60"/>
		<rect x="7.8" y="9.6" clip-path="url(#SVGID_2_)" fill="#EDEDED" width="2.4" height="60"/>
		<rect x="10.2" y="9.6" clip-path="url(#SVGID_2_)" fill="#EDEDED" width="2.4" height="60"/>
		<rect x="12.6" y="9.6" clip-path="url(#SVGID_2_)" fill="#EEEEEE" width="2.4" height="60"/>
		<rect x="15.1" y="9.6" clip-path="url(#SVGID_2_)" fill="#EEEEEE" width="2.4" height="60"/>
		<rect x="17.5" y="9.6" clip-path="url(#SVGID_2_)" fill="#EFEFEF" width="2.4" height="60"/>
		<rect x="19.9" y="9.6" clip-path="url(#SVGID_2_)" fill="#EFEFEF" width="2.4" height="60"/>
		<rect x="22.3" y="9.6" clip-path="url(#SVGID_2_)" fill="#F0F0F0" width="2.4" height="60"/>
		<rect x="24.8" y="9.6" clip-path="url(#SVGID_2_)" fill="#F1F1F1" width="2.4" height="60"/>
		<rect x="27.2" y="9.6" clip-path="url(#SVGID_2_)" fill="#F3F3F3" width="2.4" height="60"/>
		<rect x="29.6" y="9.6" clip-path="url(#SVGID_2_)" fill="#F4F4F4" width="2.4" height="60"/>
		<rect x="32.1" y="9.6" clip-path="url(#SVGID_2_)" fill="#F6F6F6" width="2.4" height="60"/>
		<rect x="34.5" y="9.6" clip-path="url(#SVGID_2_)" fill="#F8F8F8" width="2.4" height="60"/>
		<rect x="36.9" y="9.6" clip-path="url(#SVGID_2_)" fill="#FAFAFA" width="2.4" height="60"/>
		<rect x="39.3" y="9.6" clip-path="url(#SVGID_2_)" fill="#FCFCFC" width="2.4" height="60"/>
		<rect x="41.8" y="9.6" clip-path="url(#SVGID_2_)" fill="#FFFFFF" width="2.4" height="60"/>
		<path clip-path="url(#SVGID_2_)" fill="#FFFFFF" d="M44.2,69.6v-60V69.6z"/>
	</g>
	<path fill="#1E2538" d="M44.2,80.3H1.5c-0.8,0-1.5-0.7-1.5-1.5v-75C0,3,0.7,2.3,1.5,2.3h42.7v1H1.5C1.2,3.3,1,3.5,1,3.8v75
		c0,0.3,0.2,0.5,0.5,0.5h42.7V80.3z M44.2,70.1H6.3c-0.8,0-1.5-0.7-1.5-1.5v-58c0-0.8,0.7-1.5,1.5-1.5h37.9v1H6.3
		c-0.3,0-0.5,0.2-0.5,0.5v58c0,0.3,0.2,0.5,0.5,0.5h37.9V70.1z"/>
</g>
<g>
	<path fill="#1E2538" d="M44.2,70.1H6.3c-0.8,0-1.5-0.7-1.5-1.5v-58c0-0.8,0.7-1.5,1.5-1.5h37.9v1H6.3c-0.3,0-0.5,0.2-0.5,0.5v58
		c0,0.3,0.2,0.5,0.5,0.5h37.9V70.1z"/>
</g>
<g>
	<circle fill="#1E2538" cx="30" cy="6.1" r="0.8"/>
</g>
<g>
	<path fill="#1E2538" d="M44.2,80.3H1.5c-0.8,0-1.5-0.7-1.5-1.5v-75C0,3,0.7,2.3,1.5,2.3h42.7v1H1.5C1.2,3.3,1,3.5,1,3.8v75
		c0,0.3,0.2,0.5,0.5,0.5h42.7V80.3z M44.2,70.1H6.3c-0.8,0-1.5-0.7-1.5-1.5v-58c0-0.8,0.7-1.5,1.5-1.5h37.9v1H6.3
		c-0.3,0-0.5,0.2-0.5,0.5v58c0,0.3,0.2,0.5,0.5,0.5h37.9V70.1z"/>
</g>
<g>
	<circle fill="#1E2538" cx="30" cy="74.2" r="1.9"/>
</g>
<g>
	<circle fill="#FDE6E2" cx="43.7" cy="2.4" r="1.9"/>
	<path fill="#1E2538" d="M43.7,4.8c-1.3,0-2.4-1.1-2.4-2.4c0-1.3,1.1-2.4,2.4-2.4c1.3,0,2.4,1.1,2.4,2.4C46.1,3.7,45,4.8,43.7,4.8z
		 M43.7,1c-0.8,0-1.4,0.6-1.4,1.4c0,0.8,0.6,1.4,1.4,1.4c0.8,0,1.4-0.6,1.4-1.4C45.1,1.6,44.5,1,43.7,1z"/>
</g>
<g>
	<circle fill="#FDE6E2" cx="43.7" cy="9.6" r="1.9"/>
	<path fill="#1E2538" d="M43.7,12c-1.3,0-2.4-1.1-2.4-2.4s1.1-2.4,2.4-2.4c1.3,0,2.4,1.1,2.4,2.4S45,12,43.7,12z M43.7,8.2
		c-0.8,0-1.4,0.6-1.4,1.4s0.6,1.4,1.4,1.4c0.8,0,1.4-0.6,1.4-1.4S44.5,8.2,43.7,8.2z"/>
</g>
<g>
	<circle fill="#FDE6E2" cx="44.2" cy="69.6" r="1.9"/>
	<path fill="#1E2538" d="M44.2,72c-1.3,0-2.4-1.1-2.4-2.4c0-1.3,1.1-2.4,2.4-2.4c1.3,0,2.4,1.1,2.4,2.4C46.6,70.9,45.5,72,44.2,72z
		 M44.2,68.2c-0.8,0-1.4,0.6-1.4,1.4c0,0.8,0.6,1.4,1.4,1.4c0.8,0,1.4-0.6,1.4-1.4C45.6,68.8,45,68.2,44.2,68.2z"/>
</g>
<g>
	<circle fill="#FDE6E2" cx="44.2" cy="79.8" r="1.9"/>
	<path fill="#1E2538" d="M44.2,82.2c-1.3,0-2.4-1.1-2.4-2.4c0-1.3,1.1-2.4,2.4-2.4c1.3,0,2.4,1.1,2.4,2.4
		C46.6,81.1,45.5,82.2,44.2,82.2z M44.2,78.4c-0.8,0-1.4,0.6-1.4,1.4c0,0.8,0.6,1.4,1.4,1.4c0.8,0,1.4-0.6,1.4-1.4
		C45.6,79,45,78.4,44.2,78.4z"/>
</g>
<g>
	<circle fill="#FDE6E2" cx="56.7" cy="39.6" r="1.9"/>
	<path fill="#1E2538" d="M56.7,42c-1.3,0-2.4-1.1-2.4-2.4s1.1-2.4,2.4-2.4c1.3,0,2.4,1.1,2.4,2.4S58,42,56.7,42z M56.7,38.2
		c-0.8,0-1.4,0.6-1.4,1.4s0.6,1.4,1.4,1.4c0.8,0,1.4-0.6,1.4-1.4S57.5,38.2,56.7,38.2z"/>
</g>
<g>
	<circle fill="#FDE6E2" cx="28.1" cy="41.5" r="1.9"/>
	<path fill="#1E2538" d="M28.1,43.9c-1.3,0-2.4-1.1-2.4-2.4c0-1.3,1.1-2.4,2.4-2.4s2.4,1.1,2.4,2.4C30.5,42.8,29.4,43.9,28.1,43.9z
		 M28.1,40.1c-0.8,0-1.4,0.6-1.4,1.4s0.6,1.4,1.4,1.4s1.4-0.6,1.4-1.4S28.9,40.1,28.1,40.1z"/>
</g>
<g>
	<circle fill="#FDE6E2" cx="52" cy="31.8" r="1.9"/>
	<path fill="#1E2538" d="M52,34.2c-1.3,0-2.4-1.1-2.4-2.4c0-1.3,1.1-2.4,2.4-2.4c1.3,0,2.4,1.1,2.4,2.4C54.4,33.1,53.3,34.2,52,34.2
		z M52,30.3c-0.8,0-1.4,0.6-1.4,1.4c0,0.8,0.6,1.4,1.4,1.4c0.8,0,1.4-0.6,1.4-1.4C53.4,31,52.8,30.3,52,30.3z"/>
</g>
<g>
	<circle fill="#FDE6E2" cx="78.9" cy="18.7" r="1.9"/>
	<path fill="#1E2538" d="M78.9,21.2c-1.3,0-2.4-1.1-2.4-2.4c0-1.3,1.1-2.4,2.4-2.4c1.3,0,2.4,1.1,2.4,2.4
		C81.3,20.1,80.2,21.2,78.9,21.2z M78.9,17.3c-0.8,0-1.4,0.6-1.4,1.4c0,0.8,0.6,1.4,1.4,1.4c0.8,0,1.4-0.6,1.4-1.4
		C80.3,18,79.7,17.3,78.9,17.3z"/>
</g>
<g>
	<circle fill="#FDE6E2" cx="67.1" cy="54.6" r="1.9"/>
	<path fill="#1E2538" d="M67.1,57c-1.3,0-2.4-1.1-2.4-2.4c0-1.3,1.1-2.4,2.4-2.4c1.3,0,2.4,1.1,2.4,2.4C69.5,55.9,68.5,57,67.1,57z
		 M67.1,53.2c-0.8,0-1.4,0.6-1.4,1.4c0,0.8,0.6,1.4,1.4,1.4c0.8,0,1.4-0.6,1.4-1.4C68.5,53.8,67.9,53.2,67.1,53.2z"/>
</g>
<g>
	<circle fill="#FDE6E2" cx="72.1" cy="48.4" r="1.9"/>
	<path fill="#1E2538" d="M72.1,50.8c-1.3,0-2.4-1.1-2.4-2.4c0-1.3,1.1-2.4,2.4-2.4s2.4,1.1,2.4,2.4C74.5,49.7,73.4,50.8,72.1,50.8z
		 M72.1,47c-0.8,0-1.4,0.6-1.4,1.4c0,0.8,0.6,1.4,1.4,1.4s1.4-0.6,1.4-1.4C73.5,47.6,72.8,47,72.1,47z"/>
</g>
<g>
	<circle fill="#FDE6E2" cx="75.1" cy="56.5" r="1.9"/>
	<path fill="#1E2538" d="M75.1,58.9c-1.3,0-2.4-1.1-2.4-2.4c0-1.3,1.1-2.4,2.4-2.4c1.3,0,2.4,1.1,2.4,2.4
		C77.5,57.8,76.4,58.9,75.1,58.9z M75.1,55.1c-0.8,0-1.4,0.6-1.4,1.4c0,0.8,0.6,1.4,1.4,1.4c0.8,0,1.4-0.6,1.4-1.4
		C76.5,55.7,75.9,55.1,75.1,55.1z"/>
</g>
<g>
	<circle fill="#FDE6E2" cx="75.1" cy="79.8" r="1.9"/>
	<path fill="#1E2538" d="M75.1,82.2c-1.3,0-2.4-1.1-2.4-2.4c0-1.3,1.1-2.4,2.4-2.4c1.3,0,2.4,1.1,2.4,2.4
		C77.5,81.1,76.4,82.2,75.1,82.2z M75.1,78.4c-0.8,0-1.4,0.6-1.4,1.4c0,0.8,0.6,1.4,1.4,1.4c0.8,0,1.4-0.6,1.4-1.4
		C76.5,79,75.9,78.4,75.1,78.4z"/>
</g>
<g>
	<circle fill="#FDE6E2" cx="75.1" cy="2.4" r="1.9"/>
	<path fill="#1E2538" d="M75.1,4.8c-1.3,0-2.4-1.1-2.4-2.4c0-1.3,1.1-2.4,2.4-2.4c1.3,0,2.4,1.1,2.4,2.4C77.5,3.7,76.4,4.8,75.1,4.8
		z M75.1,1c-0.8,0-1.4,0.6-1.4,1.4c0,0.8,0.6,1.4,1.4,1.4c0.8,0,1.4-0.6,1.4-1.4C76.5,1.6,75.9,1,75.1,1z"/>
</g>
<g>
	<line fill="#FDE6E2" x1="72.8" y1="50.2" x2="74.5" y2="54.7"/>
	<path fill="#1E2538" d="M74.5,55.2c-0.2,0-0.4-0.1-0.5-0.3l-1.7-4.5c-0.1-0.3,0-0.5,0.3-0.6c0.3-0.1,0.5,0,0.6,0.3l1.7,4.5
		c0.1,0.3,0,0.5-0.3,0.6C74.6,55.2,74.6,55.2,74.5,55.2z"/>
</g>
<g>
	<line fill="#FDE6E2" x1="73.2" y1="56.5" x2="68.8" y2="55.6"/>
	<path fill="#1E2538" d="M73.2,57c0,0-0.1,0-0.1,0l-4.4-0.9c-0.3-0.1-0.4-0.3-0.4-0.6c0.1-0.3,0.3-0.4,0.6-0.4l4.4,0.9
		c0.3,0.1,0.4,0.3,0.4,0.6C73.6,56.9,73.4,57,73.2,57z"/>
</g>
<g>
	<line fill="#FDE6E2" x1="68.1" y1="53" x2="70.6" y2="49.7"/>
	<path fill="#1E2538" d="M68.1,53.5c-0.1,0-0.2,0-0.3-0.1c-0.2-0.2-0.3-0.5-0.1-0.7l2.5-3.3c0.2-0.2,0.5-0.3,0.7-0.1
		c0.2,0.2,0.3,0.5,0.1,0.7l-2.5,3.3C68.4,53.4,68.2,53.5,68.1,53.5z"/>
</g>
</svg>
