<?xml version="1.0" encoding="utf-8"?>
<!-- Generator: Adobe Illustrator 18.1.1, SVG Export Plug-In . SVG Version: 6.00 Build 0)  -->
<svg version="1.1" id="Calque_1" xmlns="http://www.w3.org/2000/svg" xmlns:xlink="http://www.w3.org/1999/xlink" x="0px" y="0px"
	 viewBox="0 0 49.8 57.8" enable-background="new 0 0 49.8 57.8" xml:space="preserve">
<g>
	<g>
		<path fill="#EDEDED" d="M46,48.7H10.8c-0.6,0-1-0.5-1-1V1.5c0-0.6,0.4-1,1-1H46c0.6,0,1,0.5,1,1v46.2C47,48.3,46.6,48.7,46,48.7z"
			/>
		<path fill="#1E2538" d="M46,49.2H10.8c-0.8,0-1.5-0.7-1.5-1.5V1.5C9.3,0.7,10,0,10.8,0H46c0.8,0,1.5,0.7,1.5,1.5v46.2
			C47.5,48.5,46.9,49.2,46,49.2z M10.8,1c-0.3,0-0.5,0.2-0.5,0.5v46.2c0,0.3,0.2,0.5,0.5,0.5H46c0.3,0,0.5-0.2,0.5-0.5V1.5
			C46.5,1.2,46.3,1,46,1H10.8z"/>
	</g>
	<g>
		<path fill="#EDEDED" d="M41.4,53H6.2c-0.5,0-1-0.4-1-1V5.8c0-0.5,0.5-1,1-1h35.2c0.5,0,1,0.5,1,1V52C42.4,52.5,41.9,53,41.4,53z"
			/>
		<path fill="#1E2538" d="M41.4,53.5H6.2c-0.8,0-1.5-0.7-1.5-1.5V5.8c0-0.8,0.7-1.5,1.5-1.5h35.2c0.8,0,1.5,0.7,1.5,1.5V52
			C42.9,52.8,42.2,53.5,41.4,53.5z M6.2,5.3c-0.3,0-0.5,0.2-0.5,0.5V52c0,0.3,0.2,0.5,0.5,0.5h35.2c0.3,0,0.5-0.2,0.5-0.5V5.8
			c0-0.3-0.2-0.5-0.5-0.5H6.2z"/>
	</g>
	<g>
		<path fill="#F7F7F7" d="M36.7,57.3H1.5c-0.5,0-1-0.5-1-1V10.1c0-0.5,0.5-1,1-1h35.2c0.5,0,1,0.5,1,1v46.2
			C37.7,56.8,37.3,57.3,36.7,57.3z"/>
		<path fill="#1E2538" d="M36.7,57.8H1.5c-0.8,0-1.5-0.7-1.5-1.5V10.1c0-0.8,0.7-1.5,1.5-1.5h35.2c0.8,0,1.5,0.7,1.5,1.5v46.2
			C38.2,57.1,37.5,57.8,36.7,57.8z M1.5,9.6C1.2,9.6,1,9.8,1,10.1v46.2c0,0.3,0.2,0.5,0.5,0.5h35.2c0.3,0,0.5-0.2,0.5-0.5V10.1
			c0-0.3-0.2-0.5-0.5-0.5H1.5z"/>
	</g>
	<g>
		<path fill="#1E2538" d="M28.8,16.2H5.6c-0.3,0-0.5-0.2-0.5-0.5c0-0.3,0.2-0.5,0.5-0.5h23.2c0.3,0,0.5,0.2,0.5,0.5
			C29.3,16,29.1,16.2,28.8,16.2z"/>
	</g>
	<g>
		<path fill="#1E2538" d="M21,19.5H5.6c-0.3,0-0.5-0.2-0.5-0.5s0.2-0.5,0.5-0.5H21c0.3,0,0.5,0.2,0.5,0.5S21.3,19.5,21,19.5z"/>
	</g>
	<g>
		<path fill="#1E2538" d="M28.8,22.9H5.6c-0.3,0-0.5-0.2-0.5-0.5s0.2-0.5,0.5-0.5h23.2c0.3,0,0.5,0.2,0.5,0.5S29.1,22.9,28.8,22.9z"
			/>
	</g>
	<g>
		<circle fill="#EAE5E2" cx="27.4" cy="20.7" r="10.2"/>
		<path fill="#1E2538" d="M27.4,31.3c-5.9,0-10.7-4.8-10.7-10.7S21.5,10,27.4,10c5.9,0,10.7,4.8,10.7,10.7S33.3,31.3,27.4,31.3z
			 M27.4,11c-5.3,0-9.7,4.3-9.7,9.7s4.3,9.7,9.7,9.7c5.3,0,9.7-4.3,9.7-9.7S32.8,11,27.4,11z"/>
	</g>
	<g>
		<circle fill="#D7EEF7" cx="27.4" cy="20.7" r="7.5"/>
		<path fill="#1E2538" d="M27.4,28.7c-4.4,0-8-3.6-8-8c0-4.4,3.6-8,8-8s8,3.6,8,8C35.5,25.1,31.9,28.7,27.4,28.7z M27.4,13.6
			c-3.9,0-7,3.2-7,7s3.2,7,7,7s7-3.2,7-7S31.3,13.6,27.4,13.6z"/>
	</g>
	<g opacity="0.5">
		<path fill="#FFFFFF" d="M22.2,21.6c-0.5,0-0.9-0.4-0.9-0.9c0-3.4,2.8-6.2,6.2-6.2c0.5,0,0.9,0.4,0.9,0.9s-0.4,0.9-0.9,0.9
			c-2.4,0-4.4,2-4.4,4.4C23.1,21.2,22.7,21.6,22.2,21.6z"/>
	</g>
	<g>
		<path fill="#FCF8DE" d="M35.6,27.4l13.3,13.3h0c0.6,0.6,0.6,1.5,0,2.1s-1.5,0.6-2.1,0l-0.1-0.1L33.3,29.3"/>
		<path fill="#1E2538" d="M47.8,43.7c-0.5,0-1-0.2-1.4-0.6L46.3,43L33,29.7c-0.2-0.2-0.2-0.5,0-0.7s0.5-0.2,0.7,0l13.4,13.4
			c0.4,0.4,1,0.4,1.4,0c0.4-0.4,0.4-1,0-1.4c0,0-0.1-0.1-0.1-0.1L35.2,27.7c-0.2-0.2-0.2-0.5,0-0.7s0.5-0.2,0.7,0l13.3,13.3
			c0,0,0.1,0.1,0.1,0.1c0.6,0.8,0.6,1.9-0.1,2.7C48.8,43.5,48.3,43.7,47.8,43.7z"/>
	</g>
	<g>
		<path fill="#1E2538" d="M27.4,23.6c-0.3,0-0.5-0.2-0.5-0.5v-5c0-0.3,0.2-0.5,0.5-0.5s0.5,0.2,0.5,0.5v5
			C27.9,23.4,27.7,23.6,27.4,23.6z"/>
	</g>
	<g>
		<path fill="#1E2538" d="M29.9,21.2h-5c-0.3,0-0.5-0.2-0.5-0.5s0.2-0.5,0.5-0.5h5c0.3,0,0.5,0.2,0.5,0.5S30.2,21.2,29.9,21.2z"/>
	</g>
</g>
</svg>
