<?xml version="1.0" encoding="UTF-8" standalone="no"?>
<svg width="73px" height="71px" viewBox="0 0 73 71" version="1.1" xmlns="http://www.w3.org/2000/svg" xmlns:xlink="http://www.w3.org/1999/xlink" xmlns:sketch="http://www.bohemiancoding.com/sketch/ns">
    <!-- Generator: Sketch 3.3.1 (12005) - http://www.bohemiancoding.com/sketch -->
    <title>Imported Layers Copy 2</title>
    <desc>Created with Sketch.</desc>
    <defs></defs>
    <g id="Homepage" stroke="none" stroke-width="1" fill="none" fill-rule="evenodd" sketch:type="MSPage">
        <g id="Homepage-Copy" sketch:type="MSArtboardGroup" transform="translate(-478.000000, -2113.000000)" fill="#FFFFFF">
            <g id="Group" sketch:type="MSLayerGroup" transform="translate(99.500000, 1946.000000)">
                <g id="Counts-Github" transform="translate(300.175000, 127.000000)" sketch:type="MSShapeGroup">
                    <g id="13,753-lines-+-Imported-Layers-Copy-2" transform="translate(33.416667, 40.222397)">
                        <path d="M81.7398035,0.0178893095 C61.9209815,0.0178893095 45.8482122,16.1508893 45.8482122,36.0533439 C45.8482122,51.9717681 56.1322284,65.4789802 70.3958747,70.2438893 C72.1917764,70.5757075 72.8462338,69.4630105 72.8462338,68.5073742 C72.8462338,67.6512832 72.815384,65.3860711 72.7977555,62.3775863 C62.8134235,64.5565257 60.7068198,57.5485257 60.7068198,57.5485257 C59.0739815,53.3853136 56.7205791,52.2770408 56.7205791,52.2770408 C53.4615133,50.0405863 56.9673778,50.0870408 56.9673778,50.0870408 C60.570199,50.3414348 62.4652609,53.8011923 62.4652609,53.8011923 C65.6692377,59.307162 70.8674366,57.7166469 72.9123407,56.7941923 C73.2384676,54.4648287 74.1661665,52.8787378 75.1908221,51.9761923 C67.2205442,51.0670105 58.8404041,47.9766772 58.8404041,34.1686166 C58.8404041,30.2332529 60.239665,27.0168287 62.5357749,24.4972226 C62.1677803,23.5858287 60.93599,19.922556 62.8883445,14.9607681 C62.8883445,14.9607681 65.9028151,13.991859 72.7580914,18.6550105 C75.6227199,17.8564348 78.6922795,17.4560408 81.7442106,17.4427681 C84.7939382,17.4560408 87.8634978,17.8564348 90.7325334,18.6550105 C97.5834026,13.991859 100.593466,14.9607681 100.593466,14.9607681 C102.550228,19.922556 101.318437,23.5858287 100.950443,24.4972226 C103.25096,27.0168287 104.639203,30.2332529 104.639203,34.1686166 C104.639203,48.009859 96.248045,51.0559499 88.2513244,51.9496469 C89.5404072,53.0623439 90.6862586,55.2611923 90.6862586,58.6214045 C90.6862586,63.4394045 90.644391,67.3261014 90.644391,68.5073742 C90.644391,69.471859 91.2900342,70.5911923 93.1123786,70.2394651 C107.362804,65.4657075 117.638006,51.969556 117.638006,36.0533439 C117.638006,16.1508893 101.565236,0.0178893095 81.7398035,0.0178893095" id="Imported-Layers-Copy-2"></path>
                    </g>
                </g>
            </g>
        </g>
    </g>
</svg>