<?xml version="1.0" encoding="utf-8"?>
<!-- Generator: Adobe Illustrator 18.1.1, SVG Export Plug-In . SVG Version: 6.00 Build 0)  -->
<svg version="1.1" id="Calque_1" xmlns="http://www.w3.org/2000/svg" xmlns:xlink="http://www.w3.org/1999/xlink" x="0px" y="0px"
	 viewBox="0 0 111.9 156.3" enable-background="new 0 0 111.9 156.3" xml:space="preserve">
<g>
	<path fill="#FCF0EB" d="M23.6,125.1l-10.1-3.8c0,0-3.4-9.5-4.5-13.9c-1.8-7.2-8.2-9.1-8.2-9.1l7.7,34.2l23.4,9l5.1,14.1l12.5-4.5
		l-5.6-15.5c0,0-2.4-8.4-10.6-12.9c-8-4.4-8-6.1-8-6.1s-4.7-11.6-11.8-11.4l5.8,14.7c0.4,1,1,1.9,1.7,2.6L23.6,125.1"/>
</g>
<g>
	<path fill="#1E2538" d="M49.5,151.8c-0.3,0-0.6-0.2-0.7-0.5l-5.6-15.5c0-0.1-2.4-8.2-10.2-12.5c-6.9-3.8-8.2-5.8-8.4-6.6
		c-0.4-0.8-4.3-9.8-9.9-10.8l5.4,13.6c0.4,0.9,0.9,1.7,1.5,2.4l6.6,7.1c0.3,0.3,0.3,0.8,0,1.1c-0.3,0.3-0.8,0.3-1.1,0l-6.6-7.1
		c-0.8-0.8-1.4-1.8-1.8-2.9l-5.8-14.7c-0.1-0.2-0.1-0.5,0.1-0.7c0.1-0.2,0.4-0.3,0.6-0.3c0.1,0,0.1,0,0.2,0
		c7.4,0,12.2,11.4,12.4,11.9c0,0,0,0.1,0,0.1c0.1,0.2,0.9,1.8,7.7,5.6c8.4,4.7,10.8,13,10.9,13.4l5.6,15.5c0.1,0.4-0.1,0.8-0.5,1
		C49.7,151.7,49.6,151.8,49.5,151.8z"/>
</g>
<g>
	<path fill="#1E2538" d="M37,156.3c-0.3,0-0.6-0.2-0.7-0.5l-5-13.8l-23.1-8.8c-0.2-0.1-0.4-0.3-0.5-0.5L0,98.4
		c-0.1-0.3,0-0.5,0.2-0.7c0.2-0.2,0.5-0.2,0.7-0.2c0.3,0.1,6.9,2.1,8.8,9.7c0.9,3.9,3.8,11.8,4.4,13.5l9.8,3.7
		c0.4,0.1,0.6,0.6,0.4,1c-0.1,0.4-0.6,0.6-1,0.4l-10.1-3.8c-0.2-0.1-0.4-0.2-0.4-0.4c-0.1-0.4-3.5-9.6-4.5-14
		c-1.2-4.9-4.6-7.1-6.5-8.1l7.3,32.4l23.1,8.8c0.2,0.1,0.4,0.2,0.4,0.4l5.1,14.1c0.1,0.4-0.1,0.8-0.5,1
		C37.1,156.2,37,156.3,37,156.3z"/>
</g>
<g>
	<path fill="#FCF0EB" d="M88.4,124l10.1-3.8c0,0,3.4-9.5,4.5-13.9c1.8-7.2,8.2-9.1,8.2-9.1l-7.7,34.2l-23.4,9L75,154.4l-12.5-4.5
		l5.6-15.5c0,0,2.4-8.4,10.6-12.9c8-4.4,8-6.1,8-6.1s4.7-11.6,11.8-11.4l-5.8,14.7c-0.4,1-1,1.9-1.7,2.6L88.4,124"/>
</g>
<g>
	<path fill="#1E2538" d="M62.5,150.6c-0.1,0-0.2,0-0.3,0c-0.4-0.1-0.6-0.6-0.5-1l5.6-15.5c0.1-0.3,2.5-8.7,10.9-13.3
		c6.8-3.8,7.6-5.4,7.7-5.6c0,0,0-0.1,0-0.1c0.2-0.5,4.9-11.9,12.4-11.9c0.1,0,0.1,0,0.2,0c0.2,0,0.5,0.1,0.6,0.3
		c0.1,0.2,0.2,0.5,0.1,0.7l-5.8,14.7c-0.4,1.1-1,2-1.8,2.9l-6.6,7.1c-0.3,0.3-0.8,0.3-1.1,0c-0.3-0.3-0.3-0.8,0-1.1l6.6-7.1
		c0.7-0.7,1.2-1.5,1.5-2.4l5.4-13.6c-5.7,1-9.6,10-9.9,10.8c-0.2,0.8-1.5,2.7-8.4,6.6c-7.8,4.4-10.2,12.4-10.2,12.5l-5.6,15.6
		C63.1,150.4,62.8,150.6,62.5,150.6z"/>
</g>
<g>
	<path fill="#1E2538" d="M75,155.1c-0.1,0-0.2,0-0.3,0c-0.4-0.1-0.6-0.6-0.5-1l5.1-14.1c0.1-0.2,0.2-0.4,0.4-0.4l23.1-8.8l7.3-32.4
		c-1.9,0.9-5.3,3.2-6.5,8.1c-1.1,4.4-4.4,13.6-4.5,14c-0.1,0.2-0.2,0.4-0.4,0.4l-10.1,3.8c-0.4,0.1-0.8,0-1-0.4
		c-0.1-0.4,0-0.8,0.4-1l9.8-3.7c0.6-1.7,3.4-9.7,4.4-13.5c1.8-7.6,8.5-9.6,8.8-9.7c0.3-0.1,0.5,0,0.7,0.2s0.3,0.5,0.2,0.7l-7.7,34.2
		c-0.1,0.2-0.2,0.4-0.5,0.5l-23.1,8.8l-5,13.8C75.6,154.9,75.3,155.1,75,155.1z"/>
</g>
<g>
	<path fill="#EDEDED" d="M75.5,47.2c-0.2,0.2-0.5,0.2-0.6,0l-8.2-8.3c-0.2,0.2-0.4,0.5-0.4,0.8v9.8c0,0.6,0.5,1.1,1.1,1.1h15.4
		c0.6,0,1.1-0.5,1.1-1.1v-9.8c0-0.3-0.1-0.5-0.3-0.7L75.5,47.2z"/>
	<path fill="#1E2538" d="M82.8,51.4H67.3c-1,0-1.9-0.8-1.9-1.9v-9.8c0-0.5,0.2-1,0.6-1.4c0.3-0.3,0.8-0.3,1,0l8,8l8-8
		c0.1-0.1,0.3-0.2,0.6-0.2c0.2,0,0.4,0.1,0.5,0.3c0.3,0.4,0.5,0.8,0.5,1.2v9.8C84.7,50.6,83.8,51.4,82.8,51.4z M67,40.4v9.2
		c0,0.2,0.2,0.4,0.4,0.4h15.4c0.2,0,0.4-0.2,0.4-0.4v-9L76,47.7c-0.5,0.5-1.3,0.5-1.7,0L67,40.4z"/>
</g>
<g>
	<path fill="#F6F6F6" d="M75.5,47.2l8.2-8.2c-0.2-0.2-0.5-0.4-0.8-0.4H67.3c-0.3,0-0.6,0.1-0.8,0.3l8.2,8.3
		C75,47.4,75.3,47.4,75.5,47.2z"/>
	<path fill="#1E2538" d="M75.1,48.1c-0.3,0-0.6-0.1-0.9-0.4L66,39.5c-0.1-0.1-0.2-0.3-0.2-0.5c0-0.2,0.1-0.4,0.2-0.5
		c0.4-0.3,0.8-0.5,1.3-0.5h15.4c0.5,0,1.1,0.2,1.4,0.7c0.3,0.3,0.2,0.7,0,1L76,47.7C75.8,47.9,75.5,48.1,75.1,48.1z M68.1,39.4
		l7.1,7.1l7.1-7.1H68.1z"/>
</g>
<g>
	<path fill="#F6F6F6" d="M72.3,0.8h-8.4c-0.2,0-0.4,0.2-0.4,0.4v16.6c0,0.2,0.2,0.4,0.4,0.4h12.4c0.2,0,0.4-0.2,0.4-0.4v-13
		L72.3,0.8z"/>
	<path fill="#1E2538" d="M76.4,19H63.9c-0.7,0-1.2-0.5-1.2-1.2V1.2c0-0.7,0.5-1.2,1.2-1.2h8.4c0.2,0,0.4,0.1,0.5,0.2l4.5,4.1
		c0.2,0.1,0.2,0.3,0.2,0.6v13C77.6,18.5,77,19,76.4,19z M64.2,17.5h11.8V5.2l-4-3.7h-7.8V17.5z"/>
</g>
<g>
	<path fill="#FDD0A7" d="M65.4,105.3c0-5.5-4.4-9.9-9.9-9.9c-5.5,0-9.9,4.4-9.9,9.9c0,2.7,1.5,5,2.9,7l0,0l7,11.4l7-11.4h0
		C63.8,110.2,65.4,108,65.4,105.3z M55.5,109c-2.1,0-3.8-1.7-3.8-3.8c0-2.1,1.7-3.8,3.8-3.8c2.1,0,3.8,1.7,3.8,3.8
		C59.4,107.3,57.6,109,55.5,109z"/>
	<path fill="#1E2538" d="M55.5,124.4c-0.3,0-0.5-0.1-0.6-0.4l-7-11.4c-1.2-1.8-3-4.3-3-7.4c0-5.9,4.8-10.6,10.6-10.6
		c5.9,0,10.6,4.8,10.6,10.6c0,2.8-1.5,5.1-2.8,7.1l-0.2,0.3l-7,11.4C56,124.2,55.8,124.4,55.5,124.4z M55.5,96.1
		c-5,0-9.1,4.1-9.1,9.1c0,2.6,1.6,4.9,2.7,6.5l6.4,10.4l6.6-10.7c1.2-1.8,2.5-3.9,2.5-6.2C64.7,100.2,60.6,96.1,55.5,96.1z
		 M55.5,109.7c-2.5,0-4.6-2.1-4.6-4.6s2.1-4.6,4.6-4.6s4.6,2.1,4.6,4.6S58.1,109.7,55.5,109.7z M55.5,102c-1.7,0-3.1,1.4-3.1,3.1
		s1.4,3.1,3.1,3.1c1.7,0,3.1-1.4,3.1-3.1S57.2,102,55.5,102z"/>
</g>
<g>
	<path fill="#A8E9B8" d="M18.2,61.3c0-4.9,2.9-8.9,6.5-8.9s6.5,4,6.5,8.9H18.2z"/>
	<path fill="#1E2538" d="M31.2,62.1C31.2,62.1,31.2,62.1,31.2,62.1h-13c-0.4,0-0.8-0.3-0.8-0.8c0-5.3,3.2-9.7,7.2-9.7
		c3.9,0,7.2,4.3,7.2,9.5c0,0.1,0,0.1,0,0.2C32,61.7,31.6,62.1,31.2,62.1z M19,60.6h11.4c-0.3-4.2-2.7-7.4-5.7-7.4S19.3,56.4,19,60.6
		z"/>
</g>
<g>
	<circle fill="#D2F4DB" cx="24.7" cy="49.4" r="4.2"/>
	<path fill="#1E2538" d="M24.7,54.4c-2.7,0-5-2.2-5-5s2.2-5,5-5s5,2.2,5,5S27.5,54.4,24.7,54.4z M24.7,46c-1.9,0-3.5,1.6-3.5,3.5
		s1.6,3.5,3.5,3.5s3.5-1.6,3.5-3.5S26.6,46,24.7,46z"/>
</g>
<g>
	<path fill="#FACDC2" d="M74,81.6l-4.9,4.9l-6.7-6.7c-1.4-1.4-1.4-3.6,0-4.9l0,0c1.4-1.4,3.6-1.4,4.9,0l1.7,1.7l0,0l1.7-1.7
		c1.4-1.4,3.6-1.4,4.9,0l0,0c1.4,1.4,1.4,3.6,0,4.9l-6.7,6.7l-4.9-4.9"/>
	<path fill="#1E2538" d="M69.1,87.2c-0.2,0-0.4-0.1-0.5-0.2l-4.9-4.9c0,0,0,0,0,0l-1.7-1.7c-1.6-1.6-1.6-4.3,0-6
		c1.6-1.6,4.3-1.6,6,0l1.2,1.2l1.2-1.2c1.6-1.6,4.3-1.6,6,0c1.6,1.6,1.6,4.3,0,6L74.6,82c0,0,0,0,0,0L69.6,87
		C69.5,87.2,69.3,87.2,69.1,87.2L69.1,87.2C69.1,87.2,69.1,87.2,69.1,87.2z M64.9,74.6c-0.7,0-1.4,0.3-1.9,0.8
		c-1.1,1.1-1.1,2.8,0,3.9l6.1,6.1l6.1-6.1c1.1-1.1,1.1-2.8,0-3.9c-1-1-2.8-1-3.9,0l-1.7,1.7c-0.1,0.1-0.3,0.2-0.5,0.2l0,0
		c-0.2,0-0.4-0.1-0.5-0.2l-1.7-1.7C66.3,74.9,65.6,74.6,64.9,74.6z"/>
</g>
<g>
	<path fill="#DFEBF4" d="M58.2,30c0-3-2.4-5.3-5.3-5.3c-0.1,0-0.3,0-0.4,0c0-0.2,0-0.4,0-0.7c0-4.8-3.9-8.7-8.7-8.7
		c-3.8,0-7,2.4-8.2,5.8c-0.6-0.1-1.1-0.2-1.7-0.2c-4,0-7.2,3.2-7.2,7.2c0,4,3.2,7.2,7.2,7.2c0.2,0,0.5,0,0.7,0v0h19.2v-0.1
		C56.2,34.9,58.2,32.7,58.2,30z"/>
	<path fill="#1E2538" d="M53.6,36.1H34.5c-0.1,0-0.1,0-0.2,0c-0.2,0-0.3,0-0.5,0c-4.4,0-8-3.6-8-8c0-4.8,4.3-8.7,9.3-7.9
		c1.5-3.4,4.9-5.7,8.7-5.7c5.2,0,9.4,4.2,9.4,9.4c3.2,0.2,5.8,2.8,5.8,6.1c0,2.9-2,5.4-4.9,6C53.9,36.1,53.8,36.1,53.6,36.1z
		 M34.7,34.6h18.6c0.1,0,0.1,0,0.2-0.1c2.3-0.3,3.9-2.3,3.9-4.5c0-2.5-2.1-4.6-4.6-4.6c-0.1,0-0.3,0-0.4,0c-0.2,0-0.4-0.1-0.6-0.2
		c-0.2-0.2-0.2-0.4-0.2-0.6c0-0.2,0-0.4,0-0.6c0-4.4-3.6-7.9-7.9-7.9c-3.4,0-6.4,2.1-7.5,5.3c-0.1,0.4-0.5,0.6-0.9,0.5
		c-0.5-0.1-1.1-0.2-1.6-0.2c-3.6,0-6.5,2.9-6.5,6.5c0,3.6,2.9,6.5,6.5,6.5c0.2,0,0.4,0,0.6,0C34.5,34.6,34.6,34.6,34.7,34.6z"/>
</g>
<g>
	<path fill="#FEF3D1" d="M56,60.2c0,0-2.7,3-2.7,6h-4.9c0-3-2.7-6-2.7-6L45,59.5c-0.6-1-1-2.3-1-3.6c0-3.7,3-6.8,6.8-6.8
		c3.7,0,6.8,3,6.8,6.8c0,1.4-0.4,2.7-1.2,3.8L56,60.2z"/>
	<path fill="#1E2538" d="M53.3,67h-4.9c-0.4,0-0.7-0.3-0.8-0.7c0-2.7-2.5-5.5-2.5-5.5l-0.6-0.8c-0.8-1.2-1.1-2.6-1.1-4
		c0-4.1,3.4-7.5,7.5-7.5s7.5,3.4,7.5,7.5c0,1.5-0.4,3-1.3,4.2l-0.5,0.6c0,0-2.5,2.9-2.5,5.6C54,66.7,53.7,67,53.3,67z M49,65.5h3.5
		c0.4-3,2.7-5.7,2.9-5.8l0.4-0.5c0.6-0.9,1-2.1,1-3.3c0-3.3-2.7-6-6-6s-6,2.7-6,6c0,1.1,0.3,2.2,0.9,3.2l0.5,0.7
		C46.3,59.9,48.6,62.6,49,65.5z"/>
</g>
<g>
	<path fill="#1E2538" d="M53.2,69.1h-5.1c-0.4,0-0.8-0.3-0.8-0.8s0.3-0.8,0.8-0.8h5.1c0.4,0,0.8,0.3,0.8,0.8S53.6,69.1,53.2,69.1z"
		/>
</g>
<g>
	<path fill="#1E2538" d="M53.2,70.9h-5.1c-0.4,0-0.8-0.3-0.8-0.8s0.3-0.8,0.8-0.8h5.1c0.4,0,0.8,0.3,0.8,0.8S53.6,70.9,53.2,70.9z"
		/>
</g>
<g opacity="0.7">
	<path fill="#FFFFFF" d="M46.5,56.8c-0.4,0-0.7-0.3-0.7-0.7c0-2.7,2.2-4.8,4.8-4.8c0.4,0,0.7,0.3,0.7,0.7c0,0.4-0.3,0.7-0.7,0.7
		c-1.9,0-3.4,1.5-3.4,3.4C47.2,56.5,46.9,56.8,46.5,56.8z"/>
</g>
<g>
	<path fill="#DADADA" d="M72.3,3.6c0,1.2,0,1.2,1.6,1.2h2.8l-4.5-4.1V3.6z"/>
	<path fill="#1E2538" d="M76.8,5.6H74c-1.8,0-2.4-0.1-2.4-2V0.7c0-0.3,0.2-0.6,0.4-0.7c0.3-0.1,0.6-0.1,0.8,0.1l4.5,4.1
		c0.2,0.2,0.3,0.5,0.2,0.8S77.1,5.6,76.8,5.6z M73.1,4c0.2,0,0.5,0,0.9,0h0.9l-1.8-1.6v1.2C73.1,3.8,73.1,3.9,73.1,4z"/>
</g>
</svg>
