<?xml version="1.0" encoding="utf-8"?>
<!-- Generator: Adobe Illustrator 17.1.0, SVG Export Plug-In . SVG Version: 6.00 Build 0)  -->
<!DOCTYPE svg PUBLIC "-//W3C//DTD SVG 1.1//EN" "http://www.w3.org/Graphics/SVG/1.1/DTD/svg11.dtd">
<svg version="1.1" id="Calque_1" xmlns="http://www.w3.org/2000/svg" xmlns:xlink="http://www.w3.org/1999/xlink" x="0px" y="0px"
	 viewBox="0 0 8503.9 5102.4" enable-background="new 0 0 8503.9 5102.4" xml:space="preserve">
<g>
	<path fill="#1E2538" d="M5027.7,4750.5c-96,0-191.9-32-271.9-112L4260,4270.6c-32-16-32-64-16-80c16-32,64-32,80-16l495.8,367.9
		c112,112,271.9,112,367.9,0c96-96,96-271.9,0-367.9L4100,3199c-32-16-32-64,0-80c16-32,64-32,80,0l1327.6,1151.6
		c112,112,271.9,112,367.9,0c48-48,80-112,80-175.9s-32-128-80-175.9L4659.8,2847.1c-32-16-32-64,0-80c16-32,64-32,80,0
		l1327.6,1151.6c112,96,271.9,96,367.9,0c48-48,80-112,80-175.9c0-64-12.2-140.5-60.2-188.5c-16-16-16-64,0-80s64-16,80,0
		c144,144,124.2,396.4-19.8,556.3c-112,112-303.9,144-447.9,64c0,16,0,32,0,32c0,96-32,191.9-112,271.9c-144,144-399.9,144-543.8,0
		l-32-32c0,16,0,16,0,32c0,96-32,191.9-112,271.9C5235.7,4702.5,5139.7,4750.5,5027.7,4750.5z"/>
</g>
<g>
	<path fill="#1E2538" d="M4435.9,5086.4c-16,0-16,0-32,0c-96-16-191.9-64-255.9-128l-271.9-223.9c-32-16-32-64-16-80
		c16-32,64-32,80-16l271.9,223.9c48,64,112,96,175.9,96c64,0,144-16,191.9-64c48-48,80-112,96-175.9c0-64-16-144-64-191.9
		L4148,4174.7c-32-16-32-64-16-80c16-32,64-32,80-16l479.8,367.9c80,80,112,191.9,96,287.9s-64,191.9-128,255.9
		C4611.9,5054.4,4515.9,5086.4,4435.9,5086.4z"/>
</g>
<g>
	<line fill="none" x1="4244" y1="1007.7" x2="2404.6" y2="1119.6"/>
	<path fill="#1E2538" d="M2404.6,1167.6c-32,0-64-32-64-64c0-32,16-64,64-64l1839.4-112c32,0,64,16,64,64c0,32-16,64-64,64
		L2404.6,1167.6L2404.6,1167.6z"/>
</g>
<g>
	<line fill="none" x1="1716.8" y1="3167" x2="2116.7" y2="3278.9"/>
	<path fill="#1E2538" d="M2116.7,3342.9h-16l-399.9-112c-32-16-48-48-48-80c16-32,48-48,80-48l399.9,112c32,16,48,48,48,80
		C2164.6,3326.9,2132.7,3342.9,2116.7,3342.9z"/>
</g>
<g>
	<g>
		<path fill="#FCF0E3" d="M6387.3,3406.9L4627.8,1759.4l-447.9-64c-303.9,751.8-943.7,591.8-943.7,591.8l287.9-831.7l575.8-431.9
			l607.8-112l1279.6,239.9L6867.1,3151L6387.3,3406.9z"/>
		<path fill="#1E2538" d="M6387.3,3470.9c-16,0-32,0-48-16L4579.9,1807.4l-351.9-48c-335.9,751.8-991.7,575.8-991.7,575.8
			c-16,0-32-16-32-32s-16-32,0-48l255.9-815.7c0-16,16-16,16-32L4052,975.7c0,0,16-16,32-16l607.8-112h16l1279.6,239.9
			c16,0,32,16,48,32L6915.1,3119c16,32,0,64-32,80l-479.8,271.9C6419.3,3470.9,6403.3,3470.9,6387.3,3470.9z M4180,1631.5
			L4180,1631.5l447.9,48c16,0,32,0,32,16l1743.4,1631.5l383.9-223.9l-847.7-1919.4L4691.8,959.7l-591.8,112l-543.8,415.9
			l-239.9,751.8c159.9,16,575.8,0,799.7-559.8C4132,1647.5,4164,1631.5,4180,1631.5z"/>
	</g>
	<g>
		<path fill="#FCF0E3" d="M3124.3,4334.6L3124.3,4334.6c-112-96-144-255.9-48-383.9l271.9-335.9c96-112,255.9-144,383.9-48l0,0
			c112,96,144,255.9,48,383.9l-271.9,335.9C3412.2,4414.6,3236.3,4430.6,3124.3,4334.6z"/>
		<path fill="#1E2538" d="M3284.3,4446.6c-80,0-144-32-207.9-64c-64-48-112-128-128-223.9c-16-80,16-175.9,64-239.9l271.9-335.9
			c112-144,319.9-159.9,463.9-64c64,48,112,128,128,223.9c16,80-16,175.9-64,239.9l-271.9,335.9
			C3492.2,4414.6,3396.2,4446.6,3284.3,4446.6z M3556.2,3566.9c-64,0-128,32-159.9,80l-271.9,351.9c-32,48-48,96-48,159.9
			c0,48,32,112,80,144c96,64,223.9,48,287.9-32l271.9-335.9c32-48,48-96,48-159.9c0-48-32-112-80-144
			C3652.2,3582.8,3604.2,3566.9,3556.2,3566.9z"/>
	</g>
	<g>
		<path fill="#FCF0E3" d="M2612.5,4046.7L2612.5,4046.7c-112-96-144-255.9-48-383.9l319.9-415.9c96-112,255.9-144,383.9-48l0,0
			c112,96,144,255.9,48,383.9l-319.9,415.9C2900.4,4110.7,2740.5,4126.7,2612.5,4046.7z"/>
		<path fill="#1E2538" d="M2788.4,4158.7c-80,0-144-32-207.9-64c-144-112-175.9-319.9-64-463.9l319.9-415.9
			c112-144,319.9-159.9,463.9-64c64,48,112,128,128,223.9c16,80-16,175.9-64,239.9l-319.9,415.9
			C2980.4,4110.7,2884.4,4158.7,2788.4,4158.7z M3108.3,3199c-64,0-128,32-159.9,80l-319.9,415.9c-64,96-48,223.9,32,287.9
			c96,64,223.9,48,287.9-32l319.9-415.9c32-48,48-96,48-159.9c0-48-32-112-80-144C3204.3,3215,3156.3,3199,3108.3,3199z"/>
	</g>
	<g>
		<path fill="#FCF0E3" d="M2100.7,3726.8L2100.7,3726.8c-112-96-144-255.9-48-383.9l271.9-335.9c96-112,255.9-144,383.9-48l0,0
			c112,96,144,255.9,48,383.9l-271.9,335.9C2388.6,3806.8,2228.6,3822.8,2100.7,3726.8z"/>
		<path fill="#1E2538" d="M2276.6,3854.8c-80,0-144-32-207.9-64c-64-48-112-128-128-223.9c-16-80,16-175.9,64-239.9l271.9-335.9
			c112-144,319.9-159.9,463.9-64c64,48,112,128,128,223.9c16,80-16,175.9-64,239.9l-271.9,335.9
			C2468.5,3806.8,2372.6,3854.8,2276.6,3854.8z M2532.5,2975c-64,0-128,32-159.9,80l-271.9,335.9c-32,48-48,96-48,159.9
			c0,48,32,112,80,144c96,64,223.9,48,287.9-32l271.9-335.9c32-48,48-96,48-159.9c0-48-32-112-80-144
			C2628.5,2991,2580.5,2975,2532.5,2975z"/>
	</g>
	<g>
		<path fill="#FCF0E3" d="M3604.2,4606.5L3604.2,4606.5c-112-96-144-255.9-48-383.9l144-191.9c96-112,255.9-144,383.9-48l0,0
			c112,96,144,255.9,48,383.9l-144,191.9C3892.1,4670.5,3716.1,4686.5,3604.2,4606.5z"/>
		<path fill="#1E2538" d="M3764.1,4718.5c-80,0-144-32-207.9-64c-64-48-112-128-128-223.9c-16-80,16-175.9,64-239.9l144-191.9
			c112-144,319.9-159.9,463.9-64c144,112,175.9,319.9,64,463.9l-144,191.9C3956.1,4670.5,3876.1,4718.5,3764.1,4718.5z
			 M3908.1,3998.7c-64,0-128,32-159.9,80l-144,191.9c-32,48-48,96-48,159.9c0,48,32,112,80,144c96,64,223.9,48,287.9-32l144-191.9
			c64-96,48-223.9-32-287.9C4004,4014.7,3956.1,3998.7,3908.1,3998.7z"/>
	</g>
</g>
<g>
	<polyline fill="#FFFFFF" points="6499.2,3518.9 6387.3,3406.9 6899.1,3135 	"/>
	<path fill="#1E2538" d="M6499.2,3566.9c-16,0-32,0-48-16l-112-96c-16-16-16-32-16-48c0-16,16-32,32-48l495.8-287.9
		c32-16,64,0,80,16c16,32,0,64-16,80l-431.9,239.9l48,48c31.8,42.5,132.8,209.5,0,80C6547.2,3566.9,6515.2,3566.9,6499.2,3566.9z"/>
</g>
<g>
	
		<rect x="6336.8" y="253.9" transform="matrix(-0.9155 0.4023 -0.4023 -0.9155 14315.7461 508.0911)" fill="#8DC2ED" width="1535.5" height="3007"/>
	<path fill="#1E2538" d="M6995.1,3502.9h-16c-16,0-32-16-32-32L5731.5,719.8c0-16,0-32,0-48c0-16,16-32,32-32L7171,16
		c32-16,64,0,80,32l1215.6,2751.1c16,32,0,64-32,80l-1407.5,623.8C7011.1,3502.9,7011.1,3502.9,6995.1,3502.9z M5875.4,735.8
		l1167.6,2639.2l1295.6-575.8L7171,159.9L5875.4,735.8z"/>
</g>
<g>
	
		<rect x="635.4" y="263.7" transform="matrix(0.9155 0.4023 -0.4023 0.9155 829.4926 -415.1908)" fill="#FDE9A5" width="1535.5" height="3007"/>
	<path fill="#1E2538" d="M1508.9,3502.9c-16,0-16,0-32,0L69.3,2879.1c-32-16-48-48-32-80L1252.9,48c16-16,48-32,80-16l1407.5,607.8
		c32,16,48,48,32,80L1556.8,3470.9c0,16-16,32-32,32C1524.8,3502.9,1508.9,3502.9,1508.9,3502.9z M181.3,2799.1l1295.6,575.8
		L2644.5,735.8L1332.9,159.9L181.3,2799.1z"/>
</g>
<g>
	<line fill="none" x1="6867.1" y1="3151" x2="6387.3" y2="3406.9"/>
	<path fill="#1E2538" d="M6391.3,3476.9c-16,0-48-16-48-32c-16-32,0-64,16-80l479.8-271.9c32-16,64,0,80,16c16,32,0,64-16,80
		l-479.8,271.9C6423.3,3476.9,6407.3,3476.9,6391.3,3476.9z"/>
</g>
<g>
	<path fill="#C6E1F6" d="M8402.6,2799.1l-223.9-495.8C7730.9,2975,7091.1,2975,6771.2,2927.1l223.9,495.8L8402.6,2799.1z"/>
</g>
<g>
	<path fill="#FCF8DE" d="M1508.9,3406.9l223.9-495.8C933,3039,501.2,2575.2,325.2,2303.3l-223.9,495.8L1508.9,3406.9z"/>
</g>
<g>
	<path fill="#1E2538" d="M6979.1,3502.9c-17.1-5.5-22.1-15.5-32-32L5731.5,719.8c0-16,0-32,0-48c0-16,16-32,32-32L7171,16
		c32-16,64,0,80,32l1215.6,2751.1c16,32,0,64-32,80l-1407.5,623.8 M5875.4,735.8l1167.6,2639.2l1295.6-575.8L7171,159.9
		L5875.4,735.8z"/>
</g>
<g>
	<path fill="#1E2538" d="M1508.9,3502.9c-16,0-16,0-32,0L69.3,2879.1c-32-16-48-48-32-80L1252.9,48c16-16,48-32,80-16l1407.5,607.8
		c32,16,48,48,32,80L1556.8,3470.9c0,16-16,32-32,32C1524.8,3502.9,1508.9,3502.9,1508.9,3502.9z M181.3,2799.1l1295.6,575.8
		L2644.5,735.8L1332.9,159.9L181.3,2799.1z"/>
</g>
</svg>
