<?xml version="1.0" encoding="UTF-8" standalone="no"?>
<svg width="82px" height="73px" viewBox="0 0 82 73" version="1.1" xmlns="http://www.w3.org/2000/svg" xmlns:xlink="http://www.w3.org/1999/xlink" xmlns:sketch="http://www.bohemiancoding.com/sketch/ns">
    <!-- Generator: Sketch 3.3.1 (12005) - http://www.bohemiancoding.com/sketch -->
    <title>Imported Layers Copy</title>
    <desc>Created with Sketch.</desc>
    <defs></defs>
    <g id="Homepage" stroke="none" stroke-width="1" fill="none" fill-rule="evenodd" sketch:type="MSPage">
        <g id="Homepage-Copy" sketch:type="MSArtboardGroup" transform="translate(-746.000000, -2035.000000)" fill="#FB6667">
            <g id="Group" sketch:type="MSLayerGroup" transform="translate(99.500000, 1946.000000)">
                <g id="Rectangle-24-Copy-15-+-13,75-pixels-+-Imported-Layers-Copy" transform="translate(570.225000, 49.000000)" sketch:type="MSShapeGroup">
                    <g id="13,75-pixels-+-Imported-Layers-Copy" transform="translate(17.500000, 40.079110)">
                        <path d="M132.459487,9.62112518 L132.459487,0.654110254 L104.345947,0.654110254 L104.345947,9.62112518 L95.276317,9.62112518 L95.276317,0.654110254 L67.1627774,0.654110254 L67.1627774,9.62112518 L59,9.62112518 L59,36.5232595 L67.1627774,36.5232595 L67.1627774,46.3880655 L76.2313057,46.3880655 L76.2313057,54.4583789 L85.299834,54.4583789 L85.299834,64.3231849 L94.3694642,64.3231849 L94.3694642,72.3934983 L105.251698,72.3934983 L105.251698,64.3231849 L114.320226,64.3231849 L114.320226,54.4583789 L123.388755,54.4583789 L123.388755,46.3880655 L132.459487,46.3880655 L132.459487,36.5232595 L140.621162,36.5232595 L140.621162,9.62112518 M78.9518642,19.5872595 L78.9518642,29.3496476 L68.0696302,29.3496476 L68.0696302,10.5178267 L78.9518642,10.5178267 L78.9518642,19.5872595" id="Imported-Layers-Copy"></path>
                    </g>
                </g>
            </g>
        </g>
    </g>
</svg>