<?xml version="1.0" encoding="utf-8"?>
<!-- Generator: Adobe Illustrator 18.1.1, SVG Export Plug-In . SVG Version: 6.00 Build 0)  -->
<svg version="1.1" id="Calque_1" xmlns="http://www.w3.org/2000/svg" xmlns:xlink="http://www.w3.org/1999/xlink" x="0px" y="0px"
	 viewBox="0 0 48.9 46.5" enable-background="new 0 0 48.9 46.5" xml:space="preserve">
<g>
	<g>
		<polygon fill="#FDE9A5" points="24.5,0.5 16.5,14.9 0.5,17.8 11.2,29.4 9.4,46 24.5,39 39.4,46 37.5,29.5 48.4,17.6 32.2,14.5 		
			"/>
	</g>
	<g>
		<polygon fill="#FEF3D1" points="48.4,17.6 32.3,14.5 24.5,0.5 24.4,0.6 24.4,39 24.5,39 39.4,46 37.5,29.5 		"/>
	</g>
	<g>
		<path fill="#1E2538" d="M9.4,46.5c-0.1,0-0.2,0-0.3-0.1c-0.1-0.1-0.2-0.3-0.2-0.5l1.8-16.4L0.1,18.1C0,18,0,17.8,0,17.6
			c0.1-0.2,0.2-0.3,0.4-0.3l15.8-2.8l7.9-14.2C24.2,0.1,24.3,0,24.5,0h0c0.2,0,0.3,0.1,0.4,0.3l7.6,13.8l15.9,3.1
			c0.2,0,0.3,0.2,0.4,0.3s0,0.4-0.1,0.5L38,29.7l1.8,16.3c0,0.2-0.1,0.4-0.2,0.5c-0.1,0.1-0.3,0.1-0.5,0l-14.7-6.9L9.6,46.5
			C9.5,46.5,9.4,46.5,9.4,46.5z M1.5,18.1l10.1,11c0.1,0.1,0.1,0.3,0.1,0.4L10,45.2l14.3-6.6c0.1-0.1,0.3-0.1,0.4,0l14.1,6.6
			L37,29.6c0-0.1,0-0.3,0.1-0.4l10.3-11.2l-15.2-3c-0.1,0-0.3-0.1-0.3-0.2L24.5,1.5l-7.6,13.6c-0.1,0.1-0.2,0.2-0.3,0.2L1.5,18.1z"
			/>
	</g>
	<g>
		<g>
			<path fill="#1E2538" d="M20.5,29.1L20.5,29.1c-0.8,0-1.5-0.7-1.5-1.5v-6.7c0-0.8,0.7-1.5,1.5-1.5h0c0.8,0,1.5,0.7,1.5,1.5v6.7
				C22,28.4,21.3,29.1,20.5,29.1z"/>
		</g>
		<g>
			<path fill="#FFFFFF" d="M20.5,24.2L20.5,24.2c-0.3,0-0.5-0.2-0.5-0.5v-2.3c0-0.3,0.2-0.5,0.5-0.5h0c0.3,0,0.5,0.2,0.5,0.5v2.3
				C21,24,20.7,24.2,20.5,24.2z"/>
		</g>
		<g>
			<path fill="#1E2538" d="M28.4,29.1L28.4,29.1c-0.8,0-1.5-0.7-1.5-1.5v-6.7c0-0.8,0.7-1.5,1.5-1.5h0c0.8,0,1.5,0.7,1.5,1.5v6.7
				C29.9,28.4,29.2,29.1,28.4,29.1z"/>
		</g>
		<g>
			<path fill="#FFFFFF" d="M28.4,24.2L28.4,24.2c-0.3,0-0.5-0.2-0.5-0.5v-2.3c0-0.3,0.2-0.5,0.5-0.5h0c0.3,0,0.5,0.2,0.5,0.5v2.3
				C28.9,24,28.7,24.2,28.4,24.2z"/>
		</g>
	</g>
	<g opacity="0.5">
		<path fill="#FFFFFF" d="M5.8,19.2L5.8,19.2c-0.1-0.4,0.2-0.9,0.7-0.9l7.6-1.3c0.4-0.1,0.9,0.2,0.9,0.7v0c0.1,0.4-0.2,0.9-0.7,0.9
			l-7.6,1.3C6.3,19.9,5.9,19.6,5.8,19.2z"/>
	</g>
</g>
</svg>
