<?xml version="1.0" encoding="utf-8"?>
<!-- Generator: Adobe Illustrator 18.1.1, SVG Export Plug-In . SVG Version: 6.00 Build 0)  -->
<svg version="1.1" id="Calque_1" xmlns="http://www.w3.org/2000/svg" xmlns:xlink="http://www.w3.org/1999/xlink" x="0px" y="0px"
	 viewBox="0 0 54.3 87.6" enable-background="new 0 0 54.3 87.6" xml:space="preserve">
<g>
	<g>
		<rect x="9.3" y="34.1" fill="#EDEDED" width="35.7" height="30.4"/>
		<path fill="#1E2538" d="M45,65H9.3c-0.3,0-0.5-0.2-0.5-0.5V34.1c0-0.3,0.2-0.5,0.5-0.5H45c0.3,0,0.5,0.2,0.5,0.5v30.4
			C45.5,64.8,45.3,65,45,65z M9.8,64h34.7V34.6H9.8V64z"/>
	</g>
	<g>
		<rect x="14.8" y="64.5" fill="#DADADA" width="9.5" height="22.6"/>
		<path fill="#1E2538" d="M24.3,87.6h-9.5c-0.3,0-0.5-0.2-0.5-0.5V64.5c0-0.3,0.2-0.5,0.5-0.5h9.5c0.3,0,0.5,0.2,0.5,0.5v22.6
			C24.8,87.4,24.6,87.6,24.3,87.6z M15.3,86.6h8.5V65h-8.5V86.6z"/>
	</g>
	<g>
		<rect x="30" y="64.5" fill="#DADADA" width="9.5" height="22.6"/>
		<path fill="#1E2538" d="M39.5,87.6H30c-0.3,0-0.5-0.2-0.5-0.5V64.5c0-0.3,0.2-0.5,0.5-0.5h9.5c0.3,0,0.5,0.2,0.5,0.5v22.6
			C40,87.4,39.8,87.6,39.5,87.6z M30.5,86.6H39V65h-8.5V86.6z"/>
	</g>
	<g>
		<rect x="11.8" y="13" fill="#EDEDED" width="30.7" height="21.1"/>
		<path fill="#1E2538" d="M42.5,34.6H11.8c-0.3,0-0.5-0.2-0.5-0.5V13c0-0.3,0.2-0.5,0.5-0.5h30.7c0.3,0,0.5,0.2,0.5,0.5v21.1
			C43,34.4,42.8,34.6,42.5,34.6z M12.3,33.6H42V13.5H12.3V33.6z"/>
	</g>
	<g>
		<rect x="22.8" y="27.9" fill="#1E2538" width="8.8" height="1.1"/>
	</g>
	<g>
		<circle fill="#F7F7F7" cx="19.3" cy="21" r="3.7"/>
		<path fill="#1E2538" d="M19.3,25.1c-2.3,0-4.2-1.9-4.2-4.2s1.9-4.2,4.2-4.2s4.2,1.9,4.2,4.2S21.6,25.1,19.3,25.1z M19.3,17.8
			c-1.8,0-3.2,1.4-3.2,3.2s1.4,3.2,3.2,3.2s3.2-1.4,3.2-3.2S21.1,17.8,19.3,17.8z"/>
	</g>
	<g>
		<circle fill="#F7F7F7" cx="35" cy="21" r="3.7"/>
		<path fill="#1E2538" d="M35,25.1c-2.3,0-4.2-1.9-4.2-4.2s1.9-4.2,4.2-4.2c2.3,0,4.2,1.9,4.2,4.2S37.3,25.1,35,25.1z M35,17.8
			c-1.8,0-3.2,1.4-3.2,3.2s1.4,3.2,3.2,3.2s3.2-1.4,3.2-3.2S36.8,17.8,35,17.8z"/>
	</g>
	<g>
		<path fill="#1E2538" d="M19.3,19.3c-0.9,0-1.7,0.7-1.7,1.7s0.8,1.7,1.7,1.7c0.9,0,1.7-0.7,1.7-1.7h-1.7V19.3z"/>
	</g>
	<g>
		<path fill="#1E2538" d="M35,21v-1.7c-0.9,0-1.7,0.7-1.7,1.7s0.7,1.7,1.7,1.7s1.7-0.7,1.7-1.7c0,0,0,0,0,0H35z"/>
	</g>
	<g>
		<path fill="#FDD0A7" d="M10.7,27.1c-2,0-3.6-1.6-3.6-3.6s1.6-3.6,3.6-3.6V27.1z"/>
		<path fill="#1E2538" d="M10.7,27.6c-2.3,0-4.1-1.9-4.1-4.1c0-2.3,1.9-4.1,4.1-4.1c0.3,0,0.5,0.2,0.5,0.5v7.3
			C11.2,27.4,11,27.6,10.7,27.6z M10.2,20.4c-1.5,0.2-2.6,1.5-2.6,3.1c0,1.6,1.1,2.9,2.6,3.1V20.4z"/>
	</g>
	<g>
		<path fill="#FDD0A7" d="M43.6,19.8c2,0,3.6,1.6,3.6,3.6s-1.6,3.6-3.6,3.6V19.8z"/>
		<path fill="#1E2538" d="M43.6,27.6c-0.3,0-0.5-0.2-0.5-0.5v-7.3c0-0.3,0.2-0.5,0.5-0.5c2.3,0,4.1,1.9,4.1,4.1
			C47.7,25.7,45.9,27.6,43.6,27.6z M44.1,20.4v6.2c1.5-0.2,2.6-1.5,2.6-3.1C46.7,21.9,45.6,20.6,44.1,20.4z"/>
	</g>
	<g opacity="0.5">
		<path fill="#FFFFFF" d="M47.8,24.3c-1.7,0-3-1.4-3-3s1.4-3,3-3V24.3z"/>
	</g>
	<g opacity="0.5">
		<path fill="#FFFFFF" d="M6.5,24.3c1.7,0,3-1.4,3-3s-1.4-3-3-3V24.3z"/>
	</g>
	<g>
		<path fill="#1E2538" d="M27.2,13.5c-0.3,0-0.5-0.2-0.5-0.5V8.8c0-0.3,0.2-0.5,0.5-0.5s0.5,0.2,0.5,0.5V13
			C27.7,13.2,27.4,13.5,27.2,13.5z"/>
	</g>
	<g>
		<circle fill="#FACDC2" cx="27.2" cy="6.6" r="2"/>
		<path fill="#1E2538" d="M27.2,9.1c-1.4,0-2.5-1.1-2.5-2.5s1.1-2.5,2.5-2.5c1.4,0,2.5,1.1,2.5,2.5S28.5,9.1,27.2,9.1z M27.2,5.1
			c-0.8,0-1.5,0.7-1.5,1.5s0.7,1.5,1.5,1.5s1.5-0.7,1.5-1.5S28,5.1,27.2,5.1z"/>
	</g>
	<g>
		<path fill="#1E2538" d="M27.2,3.2c-0.3,0-0.5-0.2-0.5-0.5V0.5c0-0.3,0.2-0.5,0.5-0.5s0.5,0.2,0.5,0.5v2.2
			C27.7,3,27.4,3.2,27.2,3.2z"/>
	</g>
	<g>
		<path fill="#1E2538" d="M29.9,4.4c-0.1,0-0.3,0-0.4-0.1c-0.2-0.2-0.2-0.5,0-0.7l1.6-1.6c0.2-0.2,0.5-0.2,0.7,0s0.2,0.5,0,0.7
			l-1.6,1.6C30.2,4.3,30.1,4.4,29.9,4.4z"/>
	</g>
	<g>
		<path fill="#1E2538" d="M33.3,7.1h-2.2c-0.3,0-0.5-0.2-0.5-0.5s0.2-0.5,0.5-0.5h2.2c0.3,0,0.5,0.2,0.5,0.5S33.6,7.1,33.3,7.1z"/>
	</g>
	<g>
		<path fill="#1E2538" d="M24.4,4.4c-0.1,0-0.3,0-0.4-0.1l-1.6-1.6c-0.2-0.2-0.2-0.5,0-0.7s0.5-0.2,0.7,0l1.6,1.6
			c0.2,0.2,0.2,0.5,0,0.7C24.6,4.3,24.5,4.4,24.4,4.4z"/>
	</g>
	<g>
		<path fill="#1E2538" d="M23.2,7.1H21c-0.3,0-0.5-0.2-0.5-0.5s0.2-0.5,0.5-0.5h2.2c0.3,0,0.5,0.2,0.5,0.5S23.5,7.1,23.2,7.1z"/>
	</g>
	<g>
		<rect x="42.5" y="18.9" fill="#C6C6C6" width="1.3" height="9.1"/>
		<path fill="#1E2538" d="M43.8,28.5h-1.3c-0.3,0-0.5-0.2-0.5-0.5v-9.1c0-0.3,0.2-0.5,0.5-0.5h1.3c0.3,0,0.5,0.2,0.5,0.5V28
			C44.3,28.3,44.1,28.5,43.8,28.5z M43,27.5h0.3v-8.1H43V27.5z"/>
	</g>
	<g>
		<rect x="45.4" y="37.2" fill="#C6C6C6" width="1.3" height="9.1"/>
		<path fill="#1E2538" d="M46.8,46.8h-1.3c-0.3,0-0.5-0.2-0.5-0.5v-9.1c0-0.3,0.2-0.5,0.5-0.5h1.3c0.3,0,0.5,0.2,0.5,0.5v9.1
			C47.3,46.6,47,46.8,46.8,46.8z M45.9,45.8h0.3v-8.1h-0.3V45.8z"/>
	</g>
	<g>
		<rect x="7.5" y="37.2" fill="#C6C6C6" width="1.3" height="9.1"/>
		<path fill="#1E2538" d="M8.9,46.8H7.5c-0.3,0-0.5-0.2-0.5-0.5v-9.1c0-0.3,0.2-0.5,0.5-0.5h1.3c0.3,0,0.5,0.2,0.5,0.5v9.1
			C9.4,46.6,9.2,46.8,8.9,46.8z M8,45.8h0.3v-8.1H8V45.8z"/>
	</g>
	<g>
		<rect x="10.5" y="18.9" fill="#C6C6C6" width="1.3" height="9.1"/>
		<path fill="#1E2538" d="M11.8,28.5h-1.3c-0.3,0-0.5-0.2-0.5-0.5v-9.1c0-0.3,0.2-0.5,0.5-0.5h1.3c0.3,0,0.5,0.2,0.5,0.5V28
			C12.3,28.3,12.1,28.5,11.8,28.5z M11,27.5h0.3v-8.1H11V27.5z"/>
	</g>
	<g>
		<rect x="46.8" y="39" fill="#DADADA" width="7" height="21.4"/>
		<path fill="#1E2538" d="M53.8,60.9h-7c-0.3,0-0.5-0.2-0.5-0.5V39c0-0.3,0.2-0.5,0.5-0.5h7c0.3,0,0.5,0.2,0.5,0.5v21.4
			C54.3,60.6,54.1,60.9,53.8,60.9z M47.3,59.9h6V39.5h-6V59.9z"/>
	</g>
	<g>
		<rect x="0.5" y="39" fill="#DADADA" width="7" height="21.4"/>
		<path fill="#1E2538" d="M7.5,60.9h-7c-0.3,0-0.5-0.2-0.5-0.5V39c0-0.3,0.2-0.5,0.5-0.5h7C7.8,38.5,8,38.7,8,39v21.4
			C8,60.6,7.8,60.9,7.5,60.9z M1,59.9h6V39.5H1V59.9z"/>
	</g>
	<g>
		<path fill="#D7EEF7" d="M16,49.3c0-6.1,5-11.1,11.1-11.1s11.1,5,11.1,11.1H16z"/>
		<path fill="#1E2538" d="M38.3,49.8C38.3,49.8,38.3,49.8,38.3,49.8H16c-0.3,0-0.5-0.2-0.5-0.5c0-6.4,5.2-11.6,11.6-11.6
			c6.4,0,11.5,5.1,11.6,11.5c0,0,0,0.1,0,0.1C38.8,49.6,38.6,49.8,38.3,49.8z M16.5,48.8h21.2c-0.3-5.6-4.9-10.1-10.6-10.1
			S16.8,43.2,16.5,48.8z"/>
	</g>
	<g>
		<polygon fill="#FEC3C0" points="26,49.2 27.2,44.4 28.1,49.2 		"/>
		<path fill="#1E2538" d="M28.1,49.7C28.1,49.7,28.1,49.7,28.1,49.7H26c-0.2,0-0.3-0.1-0.4-0.2c-0.1-0.1-0.1-0.3-0.1-0.4l1.1-4.8
			c0.1-0.2,0.2-0.4,0.5-0.4c0.2,0,0.4,0.2,0.5,0.4l0.9,4.6c0,0.1,0.1,0.1,0.1,0.2C28.6,49.5,28.4,49.7,28.1,49.7z M26.7,48.7h0.8
			l-0.4-1.9L26.7,48.7z"/>
	</g>
	<g>
		<path fill="#1E2538" d="M27.2,40.4c-0.3,0-0.5-0.2-0.5-0.5v-1.7c0-0.3,0.2-0.5,0.5-0.5s0.5,0.2,0.5,0.5v1.7
			C27.7,40.2,27.4,40.4,27.2,40.4z"/>
	</g>
	<g>
		<path fill="#1E2538" d="M22.5,41.7c-0.2,0-0.3-0.1-0.4-0.2l-0.9-1.5c-0.1-0.2-0.1-0.5,0.2-0.7c0.2-0.1,0.5-0.1,0.7,0.2l0.9,1.5
			c0.1,0.2,0.1,0.5-0.2,0.7C22.7,41.7,22.6,41.7,22.5,41.7z"/>
	</g>
	<g>
		<path fill="#1E2538" d="M19.2,45.1c-0.1,0-0.2,0-0.2-0.1l-1.5-0.9c-0.2-0.1-0.3-0.4-0.2-0.7c0.1-0.2,0.4-0.3,0.7-0.2l1.5,0.9
			c0.2,0.1,0.3,0.4,0.2,0.7C19.5,45,19.4,45.1,19.2,45.1z"/>
	</g>
	<g>
		<path fill="#1E2538" d="M31.8,41.6c-0.1,0-0.2,0-0.2-0.1c-0.2-0.1-0.3-0.4-0.2-0.7l0.9-1.5c0.1-0.2,0.4-0.3,0.7-0.2
			c0.2,0.1,0.3,0.4,0.2,0.7l-0.9,1.5C32.1,41.5,32,41.6,31.8,41.6z"/>
	</g>
	<g>
		<path fill="#1E2538" d="M35.2,45c-0.2,0-0.3-0.1-0.4-0.3c-0.1-0.2-0.1-0.5,0.2-0.7l1.5-0.9c0.2-0.1,0.5-0.1,0.7,0.2
			c0.1,0.2,0.1,0.5-0.2,0.7l-1.5,0.9C35.4,45,35.3,45,35.2,45z"/>
	</g>
	<g opacity="0.5">
		<polygon fill="#FFFFFF" points="45,59.9 19.2,34.1 9.3,34.1 9.3,44.4 29.4,64.5 45,64.5 		"/>
	</g>
	<g>
		<path fill="#1E2538" d="M45,65H9.3c-0.3,0-0.5-0.2-0.5-0.5V34.1c0-0.3,0.2-0.5,0.5-0.5H45c0.3,0,0.5,0.2,0.5,0.5v30.4
			C45.5,64.8,45.3,65,45,65z M9.8,64h34.7V34.6H9.8V64z"/>
	</g>
	<g>
		<rect x="15.3" y="65" fill="#C6C6C6" width="8.6" height="2.1"/>
	</g>
	<g>
		<rect x="30.5" y="65" fill="#C6C6C6" width="8.6" height="2.1"/>
	</g>
	<g>
		<path fill="#1E2538" d="M24.3,87.6h-9.5c-0.3,0-0.5-0.2-0.5-0.5V64.5c0-0.3,0.2-0.5,0.5-0.5h9.5c0.3,0,0.5,0.2,0.5,0.5v22.6
			C24.8,87.4,24.6,87.6,24.3,87.6z M15.3,86.6h8.5V65h-8.5V86.6z"/>
	</g>
	<g>
		<path fill="#1E2538" d="M39.5,87.6H30c-0.3,0-0.5-0.2-0.5-0.5V64.5c0-0.3,0.2-0.5,0.5-0.5h9.5c0.3,0,0.5,0.2,0.5,0.5v22.6
			C40,87.4,39.8,87.6,39.5,87.6z M30.5,86.6H39V65h-8.5V86.6z"/>
	</g>
</g>
</svg>
