<?xml version="1.0" encoding="utf-8"?>
<!-- Generator: Adobe Illustrator 18.1.1, SVG Export Plug-In . SVG Version: 6.00 Build 0)  -->
<svg version="1.1" id="Calque_1" xmlns="http://www.w3.org/2000/svg" xmlns:xlink="http://www.w3.org/1999/xlink" x="0px" y="0px"
	 viewBox="0 0 77.4 52.7" enable-background="new 0 0 77.4 52.7" xml:space="preserve">
<g>
	<path fill="#FFFFFF" stroke="#000000" stroke-linecap="round" stroke-linejoin="round" stroke-miterlimit="10" d="M34.9,39.7"/>
</g>
<g>
	<path fill="#FDE9A5" d="M40.7,39.7c0,6.5-1.1,11.8-2.6,12.4c6.5-1,11.6-4.9,13-9.8c0.1,0,0.2,0,0.4,0c1.5,0,2.6-1.2,2.6-2.6
		c0-1.5-1.2-2.6-2.6-2.6c-0.1,0-0.2,0-0.4,0c-1.4-5-6.5-8.8-13-9.8C39.5,27.9,40.7,33.2,40.7,39.7z"/>
	<path fill="#1E2538" d="M38.1,52.6c-0.2,0-0.4-0.1-0.5-0.4c-0.1-0.2,0-0.5,0.3-0.6c1-0.4,2.3-4.8,2.3-12c0-7.1-1.3-11.5-2.3-12
		c-0.2-0.1-0.3-0.4-0.3-0.6c0.1-0.2,0.3-0.4,0.6-0.4c6.6,1,11.7,4.8,13.3,9.8c1.7,0,3.1,1.4,3.1,3.1s-1.4,3.1-3.1,3.1
		C49.9,47.8,44.7,51.6,38.1,52.6C38.1,52.6,38.1,52.6,38.1,52.6z M39.4,28c1.2,2.3,1.8,7.3,1.8,11.7c0,4.4-0.6,9.4-1.8,11.7
		c5.7-1.3,10-4.8,11.2-9.2c0.1-0.2,0.3-0.4,0.6-0.4c0.1,0,0.2,0,0.3,0c1.2,0,2.1-1,2.1-2.1c0-1.2-1-2.1-2.1-2.1c-0.1,0-0.2,0-0.2,0
		c-0.3,0-0.5-0.1-0.6-0.4C49.4,32.8,45,29.2,39.4,28z"/>
</g>
<g>
	<path fill="#FFFFFF" d="M37.8,52.2c0.1,0,0.2,0,0.3-0.1C38,52.1,37.9,52.1,37.8,52.2L37.8,52.2z"/>
	<path d="M37.8,52.7c-0.3,0-0.5-0.2-0.5-0.5v0c0-0.3,0.2-0.5,0.4-0.5l0.3,0c0.2,0,0.5,0.1,0.6,0.4c0.1,0.2,0,0.5-0.3,0.6
		C38.1,52.6,37.9,52.7,37.8,52.7z"/>
</g>
<g>
	<path fill="#FEF3D1" d="M35.2,39.7c0,6.5,1.1,11.8,2.6,12.4l-0.1,0.1c0.1,0,0.2,0,0.3-0.1c1.5-0.7,2.6-6,2.6-12.4
		S39.5,27.9,38,27.2c-0.1,0-0.2,0-0.3-0.1l0.1,0.1C36.4,27.9,35.2,33.2,35.2,39.7z"/>
	<path fill="#1E2538" d="M37.7,52.7c-0.2,0-0.4-0.2-0.5-0.4c-1.7-1.5-2.5-7.4-2.5-12.6c0-5.2,0.8-11.1,2.5-12.6
		c0.1-0.2,0.3-0.4,0.5-0.4l0.3,0.1c0,0,0.1,0,0.1,0c2,0.9,2.9,7.3,2.9,12.9s-0.9,12-2.9,12.9c0,0-0.1,0-0.1,0L37.7,52.7
		C37.7,52.7,37.7,52.7,37.7,52.7z M37.9,27.8c-1,0.7-2.2,5.1-2.2,11.9s1.2,11.2,2.2,11.9c1-0.7,2.2-5.1,2.2-11.9
		S38.9,28.5,37.9,27.8z"/>
</g>
<g>
	<path fill="#FFFFFF" stroke="#000000" stroke-linecap="round" stroke-linejoin="round" stroke-miterlimit="10" d="M19.7,39.7"/>
</g>
<g>
	<path fill="#FDE9A5" d="M13.9,39.7c0-6.5,1.1-11.8,2.6-12.4c-6.5,1-11.6,4.9-13,9.8c-0.1,0-0.2,0-0.4,0c-1.5,0-2.6,1.2-2.6,2.6
		c0,1.5,1.2,2.6,2.6,2.6c0.1,0,0.2,0,0.4,0c1.4,5,6.5,8.8,13,9.8C15,51.5,13.9,46.1,13.9,39.7z"/>
	<path fill="#1E2538" d="M16.5,52.6C16.5,52.6,16.4,52.6,16.5,52.6c-6.6-1-11.8-4.8-13.4-9.8c-1.7,0-3.1-1.4-3.1-3.1
		c0-1.7,1.4-3.1,3.1-3.1c1.6-5,6.7-8.8,13.3-9.8c0.2,0,0.5,0.1,0.6,0.4c0.1,0.2,0,0.5-0.3,0.6c-1,0.4-2.3,4.8-2.3,12
		s1.3,11.5,2.3,12c0.2,0.1,0.3,0.4,0.3,0.6C16.9,52.5,16.7,52.6,16.5,52.6z M3.5,41.8c0.2,0,0.5,0.1,0.5,0.4c1.2,4.4,5.5,8,11.2,9.2
		c-1.2-2.3-1.8-7.3-1.8-11.7c0-4.4,0.6-9.4,1.8-11.7c-5.7,1.3-10,4.8-11.2,9.2c-0.1,0.2-0.3,0.4-0.5,0.4c-0.1,0-0.2,0-0.3,0
		c-1.2,0-2.1,1-2.1,2.1c0,1.2,1,2.1,2.1,2.1C3.2,41.8,3.3,41.8,3.5,41.8C3.4,41.8,3.4,41.8,3.5,41.8z"/>
</g>
<g>
	<path fill="#FEF3D1" d="M19.3,37.1c-0.3-5.2-1.3-9.3-2.5-9.8l0.1-0.1c-0.1,0-0.2,0-0.3,0.1c-1.5,0.7-2.6,6-2.6,12.4
		s1.1,11.8,2.6,12.4c0.1,0,0.2,0,0.3,0.1l-0.1-0.1c1.4-0.6,2.5-5.3,2.6-11.2"/>
	<path fill="#1E2538" d="M16.9,52.7C16.8,52.7,16.8,52.7,16.9,52.7l-0.4-0.1c0,0-0.1,0-0.1,0c-2-0.9-2.9-7.3-2.9-12.9
		c0-5.6,0.9-12,2.9-12.9c0,0,0.1,0,0.1,0l0.3-0.1c0.2,0,0.5,0.1,0.5,0.4c1.5,1.3,2.2,5.9,2.4,10c0,0.3-0.2,0.5-0.5,0.5
		c-0.3,0-0.5-0.2-0.5-0.5c-0.3-5.3-1.3-8.7-2.1-9.3c-1,0.7-2.2,5.1-2.2,11.9c0,6.8,1.2,11.2,2.2,11.9c1-0.7,2-4.9,2.2-10.7
		c0-0.3,0.2-0.5,0.5-0.5c0.3,0,0.5,0.2,0.5,0.5c-0.1,4.8-0.9,9.9-2.5,11.4C17.3,52.5,17.1,52.7,16.9,52.7z"/>
</g>
<g>
	<circle fill="#1E2538" cx="6.6" cy="36.3" r="0.8"/>
</g>
<g>
	<circle fill="#1E2538" cx="9.3" cy="36.6" r="0.8"/>
</g>
<g>
	<circle fill="#1E2538" cx="11.5" cy="34.9" r="0.8"/>
</g>
<g>
	<circle fill="#1E2538" cx="8.5" cy="33.6" r="0.8"/>
</g>
<g>
	<circle fill="#1E2538" cx="11.3" cy="31.7" r="0.8"/>
</g>
<g>
	<path fill="#1E2538" d="M31.4,47.5v-3.5h-0.8v-1.2H33v4.7H31.4z"/>
</g>
<g>
	<path fill="#1E2538" d="M23.6,31.4v-3.5h-0.8v-1.2h2.4v4.7H23.6z"/>
</g>
<g>
	<path fill="#1E2538" d="M34.1,35.6c0,1.5-0.8,2.4-2.1,2.4c-1.4,0-2.1-0.9-2.1-2.4c0-1.5,0.8-2.4,2.1-2.4
		C33.3,33.2,34.1,34.1,34.1,35.6z M31.4,35.6c0,0.9,0.1,1.3,0.6,1.3c0.4,0,0.6-0.3,0.6-1.3c0-0.9-0.1-1.3-0.6-1.3
		C31.5,34.3,31.4,34.7,31.4,35.6z"/>
</g>
<g>
	<path fill="#1E2538" d="M21.7,39.1c0,1.5-0.8,2.4-2.1,2.4c-1.4,0-2.1-0.9-2.1-2.4c0-1.5,0.8-2.4,2.1-2.4
		C21,36.7,21.7,37.5,21.7,39.1z M19,39.1c0,0.9,0.1,1.3,0.6,1.3c0.4,0,0.6-0.3,0.6-1.3c0-0.9-0.1-1.3-0.6-1.3
		C19.2,37.8,19,38.1,19,39.1z"/>
</g>
<g>
	<path fill="#1E2538" d="M27.3,46.6c0,1.5-0.8,2.4-2.1,2.4c-1.4,0-2.1-0.9-2.1-2.4c0-1.5,0.8-2.4,2.1-2.4
		C26.5,44.2,27.3,45.1,27.3,46.6z M24.6,46.6c0,0.9,0.1,1.3,0.6,1.3c0.4,0,0.6-0.3,0.6-1.3c0-0.9-0.1-1.3-0.6-1.3
		C24.7,45.4,24.6,45.7,24.6,46.6z"/>
</g>
<g opacity="0.5">
	<path fill="#FFFFFF" d="M12.5,47.6c0,0.1,0,0.2-0.1,0.4c-0.2,0.3-0.6,0.5-1,0.3c-2.1-1.2-3.9-2.8-5.1-4.7c-0.2-0.3-0.1-0.8,0.2-1
		c0.3-0.2,0.8-0.1,1,0.2c1.1,1.6,2.7,3.1,4.6,4.2C12.4,47.1,12.5,47.3,12.5,47.6z"/>
</g>
<g>
	<path fill="#FCF5E3" d="M45.3,39.7c-0.1,0-0.2,0-0.3-0.1c-0.2-0.2-0.3-0.5-0.1-0.7l2.9-3.6c0.2-0.2,0.5-0.3,0.7-0.1
		c0.2,0.2,0.3,0.5,0.1,0.7l-2.9,3.6C45.6,39.7,45.4,39.7,45.3,39.7z"/>
</g>
<g>
	<path fill="#FCF5E3" d="M43.7,38.4c-0.1,0-0.2,0-0.3-0.1c-0.2-0.2-0.3-0.5-0.1-0.7l2.9-3.6c0.2-0.2,0.5-0.3,0.7-0.1
		c0.2,0.2,0.3,0.5,0.1,0.7l-2.9,3.6C44,38.4,43.9,38.4,43.7,38.4z"/>
</g>
<g>
	<path fill="#FCF5E3" d="M42.4,36.8c-0.1,0-0.2,0-0.3-0.1c-0.2-0.2-0.3-0.5-0.1-0.7l2.9-3.6c0.2-0.2,0.5-0.3,0.7-0.1
		c0.2,0.2,0.3,0.5,0.1,0.7l-2.9,3.6C42.7,36.8,42.6,36.8,42.4,36.8z"/>
</g>
<g>
	<g>
		<path fill="#575756" d="M70.6,2.2L54.2,23.1c0.1,0,0.2,0.1,0.3,0.2c1,0.6,2.1,1.6,2.5,2.1c0.1,0.1,0.2,0.2,0.2,0.2
			S73.9,8.2,74.6,7.4c0.8-0.9,3.9-3.8,1-6C72.8-1,70.6,2.2,70.6,2.2z M74.2,2.8c0.5,0.4,0.6,0.8,0.6,1.2c0,0.4-0.3,0.7-0.3,0.7
			c-0.1,0.2-0.3,0.3-0.3,0.3l-3,3.3c0,0-0.9,1.1-2.1,0.2c-0.9-0.8,0.1-1.9,0.1-1.9l2.6-3.1C71.9,3.6,73.1,2,74.2,2.8z"/>
		<path fill="#1E2538" d="M57.2,26.1C57.2,26.1,57.2,26.1,57.2,26.1c-0.2,0-0.3-0.1-0.4-0.2l-0.2-0.2c-0.3-0.3-1.3-1.4-2.4-2
			c-0.2-0.1-0.2-0.1-0.3-0.2c-0.1-0.1-0.2-0.2-0.3-0.3c0-0.2,0-0.3,0.1-0.4L70.2,1.9c0-0.1,1.3-1.9,3.3-1.9c0.8,0,1.6,0.3,2.4,0.9
			c0.9,0.7,1.3,1.5,1.4,2.4c0.1,1.8-1.4,3.4-2.1,4.2L75,7.7C74.2,8.6,58.2,25.2,57.6,26C57.5,26.1,57.3,26.1,57.2,26.1z M54.9,22.9
			c1,0.6,1.8,1.5,2.3,1.9C59.7,22.3,73.6,7.8,74.3,7l0.2-0.2c0.6-0.7,2-2.1,1.9-3.4c0-0.6-0.4-1.2-1-1.7C74.7,1.2,74.1,1,73.5,1
			C72.1,1,71,2.5,71,2.5L54.9,22.9z M70.1,9.5c-0.4,0-0.9-0.2-1.3-0.5c-0.3-0.3-0.5-0.7-0.6-1.1c0-0.8,0.5-1.5,0.6-1.5l2.6-3.1
			c0.1-0.1,0.9-1.2,2-1.2c0.4,0,0.7,0.1,1,0.3C75.2,3,75.3,3.6,75.2,4c0,0.6-0.3,1-0.4,1.1c-0.1,0.2-0.3,0.3-0.3,0.4l-2.9,3.3
			C71.5,8.8,71,9.5,70.1,9.5z M73.5,3.1c-0.5,0-1.1,0.6-1.2,0.8L69.6,7c-0.1,0.1-0.4,0.5-0.4,0.8c0,0.1,0,0.2,0.2,0.4
			c0.2,0.2,0.4,0.3,0.6,0.3c0.4,0,0.7-0.4,0.7-0.4l3-3.3c0,0,0.1-0.1,0.2-0.3c0.1-0.1,0.2-0.3,0.2-0.4c0,0,0-0.1,0-0.1
			c0-0.2,0-0.4-0.4-0.7C73.8,3.1,73.6,3.1,73.5,3.1z"/>
	</g>
	<g>
		<path fill="#3C3C3B" d="M71.9,3.6l-2.6,3.1c0,0-1,1.1-0.1,1.9c1.1,1,2.1-0.2,2.1-0.2l3-3.3c0,0,0.1-0.1,0.3-0.3c0,0,0,0,0,0
			l-1.6,1.8c0,0-0.5,0.6-1.1,0.1c-0.5-0.4,0-1,0-1l1.4-1.7c0,0,0.7-0.9,1.2-0.4c0.2,0.2,0.3,0.3,0.3,0.5c0-0.4-0.1-0.8-0.6-1.2
			C73.1,2,71.9,3.6,71.9,3.6z"/>
		<path fill="#1E2538" d="M70.1,9.5c-0.4,0-0.9-0.2-1.3-0.5c-0.3-0.3-0.5-0.7-0.6-1.1c0-0.8,0.5-1.5,0.6-1.5l2.6-3.1
			c0.1-0.1,0.9-1.2,2-1.2c0.4,0,0.7,0.1,1,0.3c0.7,0.5,0.8,1.2,0.7,1.6c0,0.2-0.2,0.4-0.4,0.4C75,4.6,75,4.8,74.9,5
			c-0.2,0.2-0.3,0.4-0.3,0.4l-2.9,3.3C71.5,8.8,71,9.5,70.1,9.5z M73.4,3.1c-0.5,0.1-1,0.6-1.1,0.8L69.6,7c-0.1,0.1-0.4,0.5-0.4,0.8
			c0,0.1,0,0.2,0.2,0.4c0.2,0.2,0.4,0.3,0.6,0.3c0.4,0,0.7-0.4,0.7-0.4l0.8-0.9c-0.1,0-0.2-0.1-0.2-0.2C71.2,6.8,71,6.6,71,6.3
			c0-0.5,0.3-0.9,0.4-1l1.4-1.7C72.9,3.5,73.1,3.3,73.4,3.1z M74.1,3.9c-0.2,0-0.4,0.2-0.5,0.3l-1.4,1.7C72.1,6,72,6.2,72,6.2
			c0.2,0.2,0.4,0.1,0.4,0l1.6-1.8c0.1-0.1,0.2-0.1,0.2-0.2c0-0.1-0.1-0.1-0.1-0.2C74.2,4,74.2,4,74.1,3.9
			C74.1,3.9,74.1,3.9,74.1,3.9z"/>
	</g>
	<g>
		<path fill="#575756" d="M74.7,4c0,0.3-0.2,0.5-0.3,0.7C74.5,4.7,74.8,4.4,74.7,4z"/>
		<path fill="#1E2538" d="M74.5,5.2c-0.1,0-0.2,0-0.3-0.1C73.9,5,73.9,4.7,74,4.5c0.1-0.2,0.2-0.4,0.2-0.5c0-0.2,0.2-0.4,0.5-0.4
			c0,0,0,0,0,0c0.3,0,0.5,0.2,0.5,0.4c0.1,0.6-0.3,1-0.4,1.1C74.7,5.2,74.6,5.2,74.5,5.2z"/>
	</g>
	<g>
		<path fill="#B2B2B2" d="M54.5,23.3L53,24.8l2.5,2.2l1.5-1.7C56.6,24.9,55.5,23.8,54.5,23.3z"/>
		<path fill="#1E2538" d="M55.5,27.5c-0.1,0-0.2,0-0.3-0.1l-2.5-2.2c-0.1-0.1-0.2-0.2-0.2-0.4c0-0.1,0-0.3,0.1-0.4l1.5-1.5
			c0.2-0.2,0.4-0.2,0.6-0.1c1.1,0.6,2.2,1.7,2.6,2.2c0.2,0.2,0.2,0.5,0,0.7l-1.5,1.7C55.8,27.5,55.7,27.5,55.5,27.5
			C55.5,27.5,55.5,27.5,55.5,27.5z M53.8,24.8l1.7,1.5l0.8-1c-0.4-0.4-1-1-1.7-1.5L53.8,24.8z"/>
	</g>
	<g>
		<path fill="#EDEDED" d="M53,24.8l-8,7.3c0,0-0.3,0.7,0.3,1.3c0.6,0.6,1.8,1.7,2.3,2.2c0.6,0.6,1.3,0.2,1.3,0.2l6.7-8.7L53,24.8z"
			/>
		<path fill="#1E2538" d="M48.3,36.4c-0.4,0-0.8-0.1-1.1-0.4c-0.5-0.5-1.8-1.6-2.3-2.2c-0.7-0.7-0.5-1.5-0.3-1.8
			c0-0.1,0.1-0.1,0.1-0.1l8-7.3c0.2-0.2,0.5-0.2,0.7,0l2.5,2.2c0.2,0.2,0.2,0.5,0.1,0.7L49.2,36c0,0.1-0.1,0.1-0.1,0.1
			C49,36.2,48.7,36.4,48.3,36.4z M45.4,32.4c0,0.1-0.1,0.4,0.2,0.6c0.5,0.5,1.8,1.7,2.3,2.1c0.2,0.2,0.5,0.2,0.6,0.1l6.3-8.2
			L53,25.5L45.4,32.4z"/>
	</g>
	<g>
		<path fill="none" d="M54.5,23.3L53,24.8l0.3,0.3l1.4-1.6C54.7,23.4,54.6,23.3,54.5,23.3z"/>
	</g>
	<g>
		<path fill="none" d="M55.5,27l1.5-1.7c-0.2-0.3-0.7-0.7-1.2-1.2l-1.5,1.7L55.5,27z"/>
	</g>
	<g>
		<path fill="#C6C6C6" d="M53,24.8l0.9,0.9l1.5-1.7c-0.3-0.3-0.7-0.5-1-0.8L53,24.8z"/>
	</g>
	<g>
		<path fill="#1E2538" d="M55.5,27.5c-0.1,0-0.2,0-0.3-0.1l-2.5-2.2c-0.1-0.1-0.2-0.2-0.2-0.4c0-0.1,0-0.3,0.1-0.4l1.5-1.5
			c0.2-0.2,0.4-0.2,0.6-0.1c1.1,0.6,2.2,1.7,2.6,2.2c0.2,0.2,0.2,0.5,0,0.7l-1.5,1.7C55.8,27.5,55.7,27.5,55.5,27.5
			C55.5,27.5,55.5,27.5,55.5,27.5z M53.8,24.8l1.7,1.5l0.8-1c-0.4-0.4-1-1-1.7-1.5L53.8,24.8z"/>
	</g>
	<g>
		<path fill="#F6F6F6" d="M45,32.1c0,0-0.3,0.7,0.3,1.3c0.6,0.6,1.8,1.7,2.3,2.2c0.6,0.6,1.3,0.2,1.3,0.2l1.1-1.5l-3.6-3.3L45,32.1z
			"/>
	</g>
	<g>
		<path fill="#1E2538" d="M48.3,36.4c-0.4,0-0.8-0.1-1.1-0.4c-0.5-0.5-1.8-1.6-2.3-2.2c-0.7-0.7-0.5-1.5-0.3-1.8
			c0-0.1,0.1-0.1,0.1-0.1l8-7.3c0.2-0.2,0.5-0.2,0.7,0l2.5,2.2c0.2,0.2,0.2,0.5,0.1,0.7L49.2,36c0,0.1-0.1,0.1-0.1,0.1
			C49,36.2,48.7,36.4,48.3,36.4z M45.4,32.4c0,0.1-0.1,0.4,0.2,0.6c0.5,0.5,1.8,1.7,2.3,2.1c0.2,0.2,0.5,0.2,0.6,0.1l6.3-8.2
			L53,25.5L45.4,32.4z"/>
	</g>
</g>
<g>
	<path fill="#F4DB95" d="M48.2,35.8c-0.1,0-0.1,0-0.2,0c-0.3-0.1-0.4-0.4-0.3-0.7c0-0.1,0.8-1.7,2.2-1.8h1c0.3,0,0.5,0.2,0.5,0.5
		s-0.2,0.5-0.5,0.5h-1c-0.7,0-1.3,1.1-1.3,1.2C48.5,35.7,48.3,35.8,48.2,35.8z"/>
</g>
<g>
	<path fill="#F4DB95" d="M46.6,34.5c-0.1,0-0.1,0-0.2,0c-0.2-0.1-0.4-0.4-0.2-0.7c0-0.1,0.8-1.7,2.2-1.7c0,0,0,0,0,0h1.2
		c0.3,0,0.5,0.2,0.5,0.5s-0.2,0.5-0.5,0.5h-1.2c-0.7,0-1.3,1.1-1.3,1.1C46.9,34.4,46.8,34.5,46.6,34.5z"/>
</g>
<g>
	<path fill="#F4DB95" d="M45.3,33.1c-0.1,0-0.1,0-0.2-0.1c-0.2-0.1-0.3-0.4-0.2-0.7c0-0.1,0.9-1.7,2.2-1.7h1.3
		c0.3,0,0.5,0.2,0.5,0.5s-0.2,0.5-0.5,0.5h-1.3c0,0,0,0,0,0c-0.8,0-1.3,1.1-1.3,1.1C45.6,33,45.5,33.1,45.3,33.1z"/>
</g>
</svg>
