<?xml version="1.0" encoding="utf-8"?>
<!-- Generator: Adobe Illustrator 18.1.1, SVG Export Plug-In . SVG Version: 6.00 Build 0)  -->
<svg version="1.1" id="Calque_1" xmlns="http://www.w3.org/2000/svg" xmlns:xlink="http://www.w3.org/1999/xlink" x="0px" y="0px"
	 viewBox="0 0 76.4 83.3" enable-background="new 0 0 76.4 83.3" xml:space="preserve">
<g>
	<path fill="#1E2538" d="M31,77.1c-0.1,0-0.3-0.1-0.4-0.2l-7-7.8c-0.2-0.2-0.2-0.5,0-0.7c0.2-0.2,0.5-0.2,0.7,0l7,7.8
		c0.2,0.2,0.2,0.5,0,0.7C31.2,77,31.1,77.1,31,77.1z"/>
</g>
<g>
	<path fill="#1E2538" d="M18.4,63.1c-0.1,0-0.3-0.1-0.4-0.2L8.6,52.6c-0.2-0.2-0.2-0.5,0-0.7c0.2-0.2,0.5-0.2,0.7,0l9.3,10.4
		c0.2,0.2,0.2,0.5,0,0.7C18.6,63,18.5,63.1,18.4,63.1z"/>
</g>
<g>
	<path fill="#FACDC2" d="M0.5,21.7C0.5,15.2,4.3,9.9,9,9.9s8.5,5.3,8.5,11.7H0.5z"/>
	<path fill="#1E2538" d="M17.6,22.2C17.5,22.2,17.5,22.2,17.6,22.2H0.5c-0.3,0-0.5-0.2-0.5-0.5C0,14.9,4,9.4,9,9.4
		c4.9,0,9,5.4,9,12.1c0,0,0,0.1,0,0.1C18.1,21.9,17.8,22.2,17.6,22.2z M1,21.2h16c-0.2-6-3.7-10.7-8-10.7S1.2,15.2,1,21.2z"/>
</g>
<g opacity="0.5">
	<path fill="#FFFFFF" d="M3.1,20.5c0,0-0.1,0-0.1,0c-0.5-0.1-0.9-0.5-0.9-1.1c0.3-3,1.8-5.7,3.9-7c0.5-0.3,1.1-0.2,1.4,0.3
		c0.3,0.5,0.2,1.1-0.3,1.4c-1.6,1-2.7,3.1-3,5.6C4.1,20.1,3.6,20.5,3.1,20.5z"/>
</g>
<g>
	<circle fill="#FDE6E2" cx="9" cy="6" r="5.5"/>
	<path fill="#1E2538" d="M9,12.1c-3.3,0-6-2.7-6-6s2.7-6,6-6s6,2.7,6,6S12.3,12.1,9,12.1z M9,1C6.2,1,4,3.3,4,6s2.3,5,5,5s5-2.3,5-5
		S11.8,1,9,1z"/>
</g>
<g>
	<path fill="#D1C7FD" d="M29.7,21.7c0-6.5,3.8-11.7,8.5-11.7s8.5,5.3,8.5,11.7H29.7z"/>
	<path fill="#1E2538" d="M46.7,22.2C46.7,22.2,46.7,22.2,46.7,22.2H29.7c-0.3,0-0.5-0.2-0.5-0.5c0-6.7,4-12.2,9-12.2
		c4.9,0,9,5.4,9,12.1c0,0,0,0.1,0,0.1C47.2,21.9,47,22.2,46.7,22.2z M30.2,21.2h16c-0.2-6-3.7-10.7-8-10.7S30.4,15.2,30.2,21.2z"/>
</g>
<g opacity="0.5">
	<path fill="#FFFFFF" d="M32.3,20.5c0,0-0.1,0-0.1,0c-0.5-0.1-0.9-0.5-0.9-1.1c0.3-3,1.8-5.7,3.9-7c0.5-0.3,1.1-0.2,1.4,0.3
		c0.3,0.5,0.2,1.1-0.3,1.4c-1.6,1-2.7,3.1-3,5.6C33.2,20.1,32.8,20.5,32.3,20.5z"/>
</g>
<g>
	<circle fill="#E8E3FE" cx="38.2" cy="6" r="5.5"/>
	<path fill="#1E2538" d="M38.2,12.1c-3.3,0-6-2.7-6-6s2.7-6,6-6s6,2.7,6,6S41.5,12.1,38.2,12.1z M38.2,1c-2.8,0-5,2.3-5,5s2.3,5,5,5
		c2.8,0,5-2.3,5-5S41,1,38.2,1z"/>
</g>
<g>
	<path fill="#FACDC2" d="M58.8,21.7c0-6.5,3.8-11.7,8.5-11.7s8.5,5.3,8.5,11.7H58.8z"/>
	<path fill="#1E2538" d="M75.9,22.2C75.9,22.2,75.9,22.2,75.9,22.2H58.8c-0.3,0-0.5-0.2-0.5-0.5c0-6.7,4-12.2,9-12.2
		c4.9,0,9,5.4,9,12.1c0,0,0,0.1,0,0.1C76.4,21.9,76.2,22.2,75.9,22.2z M59.3,21.2h16c-0.2-6-3.7-10.7-8-10.7
		C63,10.4,59.5,15.2,59.3,21.2z"/>
</g>
<g opacity="0.5">
	<path fill="#FFFFFF" d="M61.5,20.5c0,0-0.1,0-0.1,0c-0.5-0.1-0.9-0.5-0.9-1.1c0.3-3,1.8-5.7,3.9-7c0.5-0.3,1.1-0.2,1.4,0.3
		c0.3,0.5,0.2,1.1-0.3,1.4c-1.6,1-2.7,3.1-3,5.6C62.4,20.1,62,20.5,61.5,20.5z"/>
</g>
<g>
	<circle fill="#FDE6E2" cx="67.4" cy="6" r="5.5"/>
	<path fill="#1E2538" d="M67.4,12.1c-3.3,0-6-2.7-6-6s2.7-6,6-6s6,2.7,6,6S70.7,12.1,67.4,12.1z M67.4,1c-2.8,0-5,2.3-5,5s2.3,5,5,5
		s5-2.3,5-5S70.1,1,67.4,1z"/>
</g>
<g>
	<path fill="#FACDC2" d="M0.5,52.2c0-6.5,3.8-11.7,8.5-11.7s8.5,5.3,8.5,11.7H0.5z"/>
	<path fill="#1E2538" d="M17.6,52.7C17.5,52.7,17.5,52.7,17.6,52.7H0.5c-0.3,0-0.5-0.2-0.5-0.5C0,45.5,4,40,9,40c4.9,0,9,5.4,9,12.1
		c0,0,0,0.1,0,0.1C18.1,52.5,17.8,52.7,17.6,52.7z M1,51.7h16c-0.2-6-3.7-10.7-8-10.7S1.2,45.8,1,51.7z"/>
</g>
<g opacity="0.5">
	<path fill="#FFFFFF" d="M3.1,51c0,0-0.1,0-0.1,0c-0.5-0.1-0.9-0.5-0.9-1.1c0.3-3,1.8-5.7,3.9-7c0.5-0.3,1.1-0.2,1.4,0.3
		c0.3,0.5,0.2,1.1-0.3,1.4c-1.6,1-2.7,3.1-3,5.6C4.1,50.6,3.6,51,3.1,51z"/>
</g>
<g>
	<circle fill="#FDE6E2" cx="9" cy="36.6" r="5.5"/>
	<path fill="#1E2538" d="M9,42.6c-3.3,0-6-2.7-6-6c0-3.3,2.7-6,6-6s6,2.7,6,6C15.1,39.9,12.3,42.6,9,42.6z M9,31.6c-2.8,0-5,2.3-5,5
		c0,2.8,2.3,5,5,5s5-2.3,5-5C14.1,33.8,11.8,31.6,9,31.6z"/>
</g>
<g>
	<path fill="#A8E9B8" d="M29.7,52.2c0-6.5,3.8-11.7,8.5-11.7s8.5,5.3,8.5,11.7H29.7z"/>
	<path fill="#1E2538" d="M46.7,52.7C46.7,52.7,46.7,52.7,46.7,52.7H29.7c-0.3,0-0.5-0.2-0.5-0.5c0-6.7,4-12.2,9-12.2
		c4.9,0,9,5.4,9,12.1c0,0,0,0.1,0,0.1C47.2,52.5,47,52.7,46.7,52.7z M30.2,51.7h16c-0.2-6-3.7-10.7-8-10.7S30.4,45.8,30.2,51.7z"/>
</g>
<g opacity="0.5">
	<path fill="#FFFFFF" d="M32.3,51c0,0-0.1,0-0.1,0c-0.5-0.1-0.9-0.5-0.9-1.1c0.3-3,1.8-5.7,3.9-7c0.5-0.3,1.1-0.2,1.4,0.3
		c0.3,0.5,0.2,1.1-0.3,1.4c-1.6,1-2.7,3.1-3,5.6C33.2,50.6,32.8,51,32.3,51z"/>
</g>
<g>
	<path fill="#D1C7FD" d="M58.8,52.2c0-6.5,3.8-11.7,8.5-11.7s8.5,5.3,8.5,11.7H58.8z"/>
	<path fill="#1E2538" d="M75.9,52.7C75.9,52.7,75.9,52.7,75.9,52.7H58.8c-0.3,0-0.5-0.2-0.5-0.5c0-6.7,4-12.2,9-12.2
		c4.9,0,9,5.4,9,12.1c0,0,0,0.1,0,0.1C76.4,52.5,76.2,52.7,75.9,52.7z M59.3,51.7h16c-0.2-6-3.7-10.7-8-10.7
		C63,41,59.5,45.8,59.3,51.7z"/>
</g>
<g opacity="0.5">
	<path fill="#FFFFFF" d="M61.5,51c0,0-0.1,0-0.1,0c-0.5-0.1-0.9-0.5-0.9-1.1c0.3-3,1.8-5.7,3.9-7c0.5-0.3,1.1-0.2,1.4,0.3
		c0.3,0.5,0.2,1.1-0.3,1.4c-1.6,1-2.7,3.1-3,5.6C62.4,50.6,62,51,61.5,51z"/>
</g>
<g>
	<circle fill="#E8E3FE" cx="67.4" cy="36.6" r="5.5"/>
	<path fill="#1E2538" d="M67.4,42.6c-3.3,0-6-2.7-6-6c0-3.3,2.7-6,6-6s6,2.7,6,6C73.4,39.9,70.7,42.6,67.4,42.6z M67.4,31.6
		c-2.8,0-5,2.3-5,5c0,2.8,2.3,5,5,5s5-2.3,5-5C72.4,33.8,70.1,31.6,67.4,31.6z"/>
</g>
<g>
	<path fill="#FDE9A5" d="M0.5,82.8C0.5,76.3,4.3,71,9,71s8.5,5.3,8.5,11.7H0.5z"/>
	<path fill="#1E2538" d="M17.6,83.3C17.5,83.3,17.5,83.3,17.6,83.3H0.5C0.2,83.3,0,83,0,82.8C0,76,4,70.5,9,70.5c4.9,0,9,5.4,9,12.1
		c0,0,0,0.1,0,0.1C18.1,83,17.8,83.3,17.6,83.3z M1,82.3h16c-0.2-6-3.7-10.7-8-10.7S1.2,76.3,1,82.3z"/>
</g>
<g opacity="0.5">
	<path fill="#FFFFFF" d="M3.1,81.6c0,0-0.1,0-0.1,0c-0.5-0.1-0.9-0.5-0.9-1.1c0.3-3,1.8-5.7,3.9-7c0.5-0.3,1.1-0.2,1.4,0.3
		c0.3,0.5,0.2,1.1-0.3,1.4c-1.6,1-2.7,3.1-3,5.6C4.1,81.2,3.6,81.6,3.1,81.6z"/>
</g>
<g>
	<circle fill="#FCF8DE" cx="9" cy="67.2" r="5.5"/>
	<path fill="#1E2538" d="M9,73.2c-3.3,0-6-2.7-6-6s2.7-6,6-6s6,2.7,6,6S12.3,73.2,9,73.2z M9,62.1c-2.8,0-5,2.3-5,5s2.3,5,5,5
		s5-2.3,5-5S11.8,62.1,9,62.1z"/>
</g>
<g>
	<path fill="#A8E9B8" d="M29.7,82.8c0-6.5,3.8-11.7,8.5-11.7s8.5,5.3,8.5,11.7H29.7z"/>
	<path fill="#1E2538" d="M46.7,83.3C46.7,83.3,46.7,83.3,46.7,83.3H29.7c-0.3,0-0.5-0.2-0.5-0.5c0-6.7,4-12.2,9-12.2
		c4.9,0,9,5.4,9,12.1c0,0,0,0.1,0,0.1C47.2,83,47,83.3,46.7,83.3z M30.2,82.3h16c-0.2-6-3.7-10.7-8-10.7S30.4,76.3,30.2,82.3z"/>
</g>
<g opacity="0.5">
	<path fill="#FFFFFF" d="M32.3,81.6c0,0-0.1,0-0.1,0c-0.5-0.1-0.9-0.5-0.9-1.1c0.3-3,1.8-5.7,3.9-7c0.5-0.3,1.1-0.2,1.4,0.3
		c0.3,0.5,0.2,1.1-0.3,1.4c-1.6,1-2.7,3.1-3,5.6C33.2,81.2,32.8,81.6,32.3,81.6z"/>
</g>
<g>
	<circle fill="#D2F4DB" cx="38.2" cy="67.2" r="5.5"/>
	<path fill="#1E2538" d="M38.2,73.2c-3.3,0-6-2.7-6-6s2.7-6,6-6s6,2.7,6,6S41.5,73.2,38.2,73.2z M38.2,62.1c-2.8,0-5,2.3-5,5
		s2.3,5,5,5c2.8,0,5-2.3,5-5S41,62.1,38.2,62.1z"/>
</g>
<g>
	<path fill="#FACDC2" d="M58.8,82.8c0-6.5,3.8-11.7,8.5-11.7s8.5,5.3,8.5,11.7H58.8z"/>
	<path fill="#1E2538" d="M75.9,83.3C75.9,83.3,75.9,83.3,75.9,83.3H58.8c-0.3,0-0.5-0.2-0.5-0.5c0-6.7,4-12.2,9-12.2
		c4.9,0,9,5.4,9,12.1c0,0,0,0.1,0,0.1C76.4,83,76.2,83.3,75.9,83.3z M59.3,82.3h16c-0.2-6-3.7-10.7-8-10.7
		C63,71.5,59.5,76.3,59.3,82.3z"/>
</g>
<g opacity="0.5">
	<path fill="#FFFFFF" d="M61.5,81.6c0,0-0.1,0-0.1,0c-0.5-0.1-0.9-0.5-0.9-1.1c0.3-3,1.8-5.7,3.9-7c0.5-0.3,1.1-0.2,1.4,0.3
		c0.3,0.5,0.2,1.1-0.3,1.4c-1.6,1-2.7,3.1-3,5.6C62.4,81.2,62,81.6,61.5,81.6z"/>
</g>
<g>
	<circle fill="#FDE6E2" cx="67.4" cy="67.2" r="5.5"/>
	<path fill="#1E2538" d="M67.4,73.2c-3.3,0-6-2.7-6-6s2.7-6,6-6s6,2.7,6,6S70.7,73.2,67.4,73.2z M67.4,62.1c-2.8,0-5,2.3-5,5
		s2.3,5,5,5s5-2.3,5-5S70.1,62.1,67.4,62.1z"/>
</g>
<g>
	<path fill="#1E2538" d="M31,46.5c-0.1,0-0.3-0.1-0.4-0.2l-1.9-2.1c-0.2-0.2-0.2-0.5,0-0.7c0.2-0.2,0.5-0.2,0.7,0l1.9,2.1
		c0.2,0.2,0.2,0.5,0,0.7C31.2,46.5,31.1,46.5,31,46.5z M27.1,42.2c-0.1,0-0.3-0.1-0.4-0.2l-2-2.2c-0.2-0.2-0.2-0.5,0-0.7
		c0.2-0.2,0.5-0.2,0.7,0l2,2.2c0.2,0.2,0.2,0.5,0,0.7C27.3,42.2,27.2,42.2,27.1,42.2z M23.1,37.8c-0.1,0-0.3-0.1-0.4-0.2l-2-2.2
		c-0.2-0.2-0.2-0.5,0-0.7c0.2-0.2,0.5-0.2,0.7,0l2,2.2c0.2,0.2,0.2,0.5,0,0.7C23.3,37.7,23.2,37.8,23.1,37.8z M19.1,33.3
		c-0.1,0-0.3-0.1-0.4-0.2l-2-2.2c-0.2-0.2-0.2-0.5,0-0.7c0.2-0.2,0.5-0.2,0.7,0l2,2.2c0.2,0.2,0.2,0.5,0,0.7
		C19.3,33.3,19.2,33.3,19.1,33.3z M15,28.8c-0.1,0-0.3-0.1-0.4-0.2l-2-2.2c-0.2-0.2-0.2-0.5,0-0.7s0.5-0.2,0.7,0l2,2.2
		c0.2,0.2,0.2,0.5,0,0.7C15.3,28.8,15.2,28.8,15,28.8z M11,24.4c-0.1,0-0.3-0.1-0.4-0.2l-2-2.2c-0.2-0.2-0.2-0.5,0-0.7
		c0.2-0.2,0.5-0.2,0.7,0l2,2.2c0.2,0.2,0.2,0.5,0,0.7C11.3,24.4,11.1,24.4,11,24.4z"/>
</g>
<g>
	<path fill="#1E2538" d="M19.7,63.9c0-1.4,0.8-2.2,2.2-2.2c1.3,0,2.1,0.6,2.1,1.7c0,1.5-1.5,1.6-1.5,2.8h-1.2c0-1.5,1.2-1.6,1.2-2.5
		c0-0.4-0.3-0.6-0.7-0.6c-0.5,0-0.7,0.3-0.8,0.9L19.7,63.9z M22.6,67.7c0,0.5-0.3,0.8-0.8,0.8c-0.5,0-0.8-0.3-0.8-0.8
		c0-0.5,0.3-0.8,0.8-0.8C22.3,66.9,22.6,67.2,22.6,67.7z"/>
</g>
<g>
	<path fill="#1E2538" d="M38.2,31.6c-0.3,0-0.5-0.2-0.5-0.5v-9.4c0-0.3,0.2-0.5,0.5-0.5s0.5,0.2,0.5,0.5v9.4
		C38.7,31.3,38.5,31.6,38.2,31.6z"/>
</g>
<g>
	<path fill="#1E2538" d="M67.4,61.7c-0.3,0-0.5-0.2-0.5-0.5v-3c0-0.3,0.2-0.5,0.5-0.5s0.5,0.2,0.5,0.5v3
		C67.9,61.5,67.6,61.7,67.4,61.7z M67.4,55.7c-0.3,0-0.5-0.2-0.5-0.5v-3c0-0.3,0.2-0.5,0.5-0.5s0.5,0.2,0.5,0.5v3
		C67.9,55.5,67.6,55.7,67.4,55.7z"/>
</g>
<g>
	<path fill="#1E2538" d="M59.8,77.9h-14c-0.3,0-0.5-0.2-0.5-0.5s0.2-0.5,0.5-0.5h14c0.3,0,0.5,0.2,0.5,0.5S60.1,77.9,59.8,77.9z"/>
</g>
<g>
	<path fill="#1E2538" d="M45.8,47.4c-0.1,0-0.2,0-0.3-0.1c-0.2-0.2-0.2-0.5-0.1-0.7l2-2.3c0.2-0.2,0.5-0.2,0.7-0.1
		c0.2,0.2,0.2,0.5,0.1,0.7l-2,2.3C46,47.3,45.9,47.4,45.8,47.4z M49.7,42.8c-0.1,0-0.2,0-0.3-0.1c-0.2-0.2-0.2-0.5-0.1-0.7l2-2.3
		c0.2-0.2,0.5-0.2,0.7-0.1c0.2,0.2,0.2,0.5,0.1,0.7l-2,2.3C49.9,42.7,49.8,42.8,49.7,42.8z M53.6,38.3c-0.1,0-0.2,0-0.3-0.1
		C53,38,53,37.6,53.2,37.4l2-2.3c0.2-0.2,0.5-0.2,0.7-0.1c0.2,0.2,0.2,0.5,0.1,0.7l-2,2.3C53.8,38.2,53.7,38.3,53.6,38.3z
		 M57.5,33.7c-0.1,0-0.2,0-0.3-0.1c-0.2-0.2-0.2-0.5-0.1-0.7l2-2.3c0.2-0.2,0.5-0.2,0.7-0.1c0.2,0.2,0.2,0.5,0.1,0.7l-2,2.3
		C57.8,33.6,57.6,33.7,57.5,33.7z M61.4,29.1c-0.1,0-0.2,0-0.3-0.1c-0.2-0.2-0.2-0.5-0.1-0.7l2-2.3c0.2-0.2,0.5-0.2,0.7-0.1
		c0.2,0.2,0.2,0.5,0.1,0.7l-2,2.3C61.7,29.1,61.5,29.1,61.4,29.1z M65.3,24.6c-0.1,0-0.2,0-0.3-0.1c-0.2-0.2-0.2-0.5-0.1-0.7l2-2.3
		c0.2-0.2,0.5-0.2,0.7-0.1c0.2,0.2,0.2,0.5,0.1,0.7l-2,2.3C65.6,24.5,65.4,24.6,65.3,24.6z"/>
</g>
<g>
	<path fill="#1E2538" d="M45.4,30.4c-0.1,0-0.3-0.1-0.4-0.2L37.8,22c-0.2-0.2-0.2-0.5,0-0.7c0.2-0.2,0.5-0.2,0.7,0l7.2,8.3
		c0.2,0.2,0.2,0.5,0,0.7C45.7,30.4,45.5,30.4,45.4,30.4z"/>
</g>
<g>
	<path fill="#1E2538" d="M59.8,46.8c-0.1,0-0.3-0.1-0.4-0.2l-8.9-10.1c-0.2-0.2-0.2-0.5,0-0.7c0.2-0.2,0.5-0.2,0.7,0L60.2,46
		c0.2,0.2,0.2,0.5,0,0.7C60,46.8,59.9,46.8,59.8,46.8z"/>
</g>
<g>
	<path fill="#1E2538" d="M45.8,77.9c-0.1,0-0.2,0-0.3-0.1c-0.2-0.2-0.2-0.5-0.1-0.7L67,51.9c0.2-0.2,0.5-0.2,0.7-0.1
		c0.2,0.2,0.2,0.5,0.1,0.7L46.1,77.7C46,77.9,45.9,77.9,45.8,77.9z"/>
</g>
<g>
	<path fill="#1E2538" d="M31,77.1h-3c-0.3,0-0.5-0.2-0.5-0.5s0.2-0.5,0.5-0.5h3c0.3,0,0.5,0.2,0.5,0.5S31.2,77.1,31,77.1z M25,77.1
		h-3c-0.3,0-0.5-0.2-0.5-0.5s0.2-0.5,0.5-0.5h3c0.3,0,0.5,0.2,0.5,0.5S25.2,77.1,25,77.1z M19,77.1h-2.7c-0.3,0-0.5-0.2-0.5-0.5
		s0.2-0.5,0.5-0.5H19c0.3,0,0.5,0.2,0.5,0.5S19.2,77.1,19,77.1z"/>
</g>
<g>
	<path fill="#1E2538" d="M9,62.1c-0.3,0-0.5-0.2-0.5-0.5v-3c0-0.3,0.2-0.5,0.5-0.5s0.5,0.2,0.5,0.5v3C9.5,61.9,9.3,62.1,9,62.1z
		 M9,56.1c-0.3,0-0.5-0.2-0.5-0.5v-3c0-0.3,0.2-0.5,0.5-0.5s0.5,0.2,0.5,0.5v3C9.5,55.9,9.3,56.1,9,56.1z"/>
</g>
<g>
	<path fill="#1E2538" d="M59.8,77.9c-0.1,0-0.3-0.1-0.4-0.2l-2-2.3c-0.2-0.2-0.2-0.5,0.1-0.7c0.2-0.2,0.5-0.2,0.7,0.1l2,2.3
		c0.2,0.2,0.2,0.5-0.1,0.7C60,77.9,59.9,77.9,59.8,77.9z M55.9,73.4c-0.1,0-0.3-0.1-0.4-0.2l-2-2.3c-0.2-0.2-0.2-0.5,0.1-0.7
		c0.2-0.2,0.5-0.2,0.7,0.1l2,2.3c0.2,0.2,0.2,0.5-0.1,0.7C56.1,73.3,56,73.4,55.9,73.4z M52,68.8c-0.1,0-0.3-0.1-0.4-0.2l-2-2.3
		c-0.2-0.2-0.2-0.5,0.1-0.7c0.2-0.2,0.5-0.2,0.7,0.1l2,2.3c0.2,0.2,0.2,0.5-0.1,0.7C52.2,68.8,52.1,68.8,52,68.8z M48.1,64.2
		c-0.1,0-0.3-0.1-0.4-0.2l-2-2.3c-0.2-0.2-0.2-0.5,0.1-0.7c0.2-0.2,0.5-0.2,0.7,0.1l2,2.3c0.2,0.2,0.2,0.5-0.1,0.7
		C48.3,64.2,48.2,64.2,48.1,64.2z M44.2,59.7c-0.1,0-0.3-0.1-0.4-0.2l-2-2.3c-0.2-0.2-0.2-0.5,0.1-0.7c0.2-0.2,0.5-0.2,0.7,0.1
		l2,2.3c0.2,0.2,0.2,0.5-0.1,0.7C44.4,59.7,44.3,59.7,44.2,59.7z M40.3,55.1c-0.1,0-0.3-0.1-0.4-0.2l-2-2.3
		c-0.2-0.2-0.2-0.5,0.1-0.7c0.2-0.2,0.5-0.2,0.7,0.1l2,2.3c0.2,0.2,0.2,0.5-0.1,0.7C40.5,55.1,40.4,55.1,40.3,55.1z"/>
</g>
<g>
	<path fill="#1E2538" d="M16.2,46.5c-0.1,0-0.2,0-0.3-0.1c-0.2-0.2-0.2-0.5,0-0.7l2-2.2c0.2-0.2,0.5-0.2,0.7,0
		c0.2,0.2,0.2,0.5,0,0.7l-2,2.2C16.5,46.4,16.4,46.5,16.2,46.5z M20.3,42c-0.1,0-0.2,0-0.3-0.1c-0.2-0.2-0.2-0.5,0-0.7l2-2.2
		c0.2-0.2,0.5-0.2,0.7,0c0.2,0.2,0.2,0.5,0,0.7l-2,2.2C20.5,42,20.4,42,20.3,42z M24.3,37.6c-0.1,0-0.2,0-0.3-0.1
		c-0.2-0.2-0.2-0.5,0-0.7l2-2.2c0.2-0.2,0.5-0.2,0.7,0s0.2,0.5,0,0.7l-2,2.2C24.6,37.5,24.4,37.6,24.3,37.6z M28.3,33.1
		c-0.1,0-0.2,0-0.3-0.1c-0.2-0.2-0.2-0.5,0-0.7l2-2.2c0.2-0.2,0.5-0.2,0.7,0c0.2,0.2,0.2,0.5,0,0.7l-2,2.2
		C28.6,33.1,28.4,33.1,28.3,33.1z M32.3,28.7c-0.1,0-0.2,0-0.3-0.1c-0.2-0.2-0.2-0.5,0-0.7l2-2.2c0.2-0.2,0.5-0.2,0.7,0
		c0.2,0.2,0.2,0.5,0,0.7l-2,2.2C32.6,28.6,32.5,28.7,32.3,28.7z M36.3,24.2c-0.1,0-0.2,0-0.3-0.1c-0.2-0.2-0.2-0.5,0-0.7l1.9-2.1
		c0.2-0.2,0.5-0.2,0.7,0s0.2,0.5,0,0.7l-1.9,2.1C36.6,24.2,36.5,24.2,36.3,24.2z"/>
</g>
<g>
	<path fill="#1E2538" d="M31,46.5H16.2c-0.3,0-0.5-0.2-0.5-0.5s0.2-0.5,0.5-0.5H31c0.3,0,0.5,0.2,0.5,0.5S31.2,46.5,31,46.5z"/>
</g>
<g>
	<path fill="#1E2538" d="M59.8,47.4h-14c-0.3,0-0.5-0.2-0.5-0.5s0.2-0.5,0.5-0.5h14c0.3,0,0.5,0.2,0.5,0.5S60.1,47.4,59.8,47.4z"/>
</g>
<g>
	<path fill="#1E2538" d="M46.6,31.4c0-1.4,0.8-2.2,2.2-2.2c1.3,0,2.1,0.6,2.1,1.7c0,1.5-1.5,1.6-1.5,2.8h-1.2c0-1.5,1.2-1.6,1.2-2.5
		c0-0.4-0.3-0.6-0.7-0.6c-0.5,0-0.7,0.3-0.8,0.9L46.6,31.4z M49.5,35.2c0,0.5-0.3,0.8-0.8,0.8s-0.8-0.3-0.8-0.8
		c0-0.5,0.3-0.8,0.8-0.8S49.5,34.7,49.5,35.2z"/>
</g>
<g>
	<circle fill="#D2F4DB" cx="38.2" cy="36.6" r="5.5"/>
	<path fill="#1E2538" d="M38.2,42.6c-3.3,0-6-2.7-6-6c0-3.3,2.7-6,6-6s6,2.7,6,6C44.2,39.9,41.5,42.6,38.2,42.6z M38.2,31.6
		c-2.8,0-5,2.3-5,5c0,2.8,2.3,5,5,5c2.8,0,5-2.3,5-5C43.2,33.8,41,31.6,38.2,31.6z"/>
</g>
</svg>
