<?xml version="1.0" encoding="utf-8"?>
<!-- Generator: Adobe Illustrator 18.1.1, SVG Export Plug-In . SVG Version: 6.00 Build 0)  -->
<svg version="1.1" id="Calque_1" xmlns="http://www.w3.org/2000/svg" xmlns:xlink="http://www.w3.org/1999/xlink" x="0px" y="0px"
	 viewBox="0 0 62 48.5" enable-background="new 0 0 62 48.5" xml:space="preserve">
<g>
	<path fill="#706F6F" d="M13.3,5.8c0,0,0.7-6.1,6.3-5.2s5.9,3.7,5.9,7.2l-3.4,2.1L13.3,5.8z"/>
	<path fill="#1E2538" d="M22.2,10.3c-0.1,0-0.1,0-0.2,0l-8.9-4c-0.2-0.1-0.3-0.3-0.3-0.5c0-0.1,0.8-5.8,5.8-5.8c0.3,0,0.7,0,1.1,0.1
		C26,1,26,4.6,26.1,7.7c0,0.2-0.1,0.3-0.2,0.4l-3.4,2.1C22.4,10.3,22.3,10.3,22.2,10.3z M13.9,5.5l8.3,3.7l2.9-1.8
		c-0.1-3-0.3-5.6-5.5-6.4C19.3,1,19,1,18.7,1C15.1,1,14.1,4.4,13.9,5.5z"/>
</g>
<g>
	<path fill="#706F6F" d="M48.7,5.8c0,0-0.7-6.1-6.3-5.2s-5.9,3.7-5.9,7.2l3.4,2.1L48.7,5.8z"/>
	<path fill="#1E2538" d="M39.8,10.3c-0.1,0-0.2,0-0.3-0.1l-3.4-2.1c-0.2-0.1-0.2-0.3-0.2-0.4C36,4.6,36.1,1,42.3,0.1
		C42.6,0,43,0,43.3,0c5.1,0,5.8,5.7,5.8,5.8c0,0.2-0.1,0.4-0.3,0.5l-8.9,4C39.9,10.3,39.9,10.3,39.8,10.3z M36.9,7.5l2.9,1.8
		l8.3-3.7C47.9,4.4,46.9,1,43.3,1c-0.3,0-0.6,0-0.9,0.1C37.2,1.8,37,4.4,36.9,7.5z"/>
</g>
<g>
	<path fill="#706F6F" d="M29.2,30c-0.9-3.6-3.1-6.7-6.2-8.7c-1.4-0.9-2.9-1.6-4.7-2c-7.8-1.8-15.7,3.1-17.5,10.9
		C-0.9,38,3.9,45.8,11.8,47.7s15.7-3.1,17.5-10.9C29.8,34.5,29.8,32.2,29.2,30z"/>
	<path fill="#1E2538" d="M15.1,48.5C15.1,48.5,15.1,48.5,15.1,48.5c-1.1,0-2.3-0.1-3.4-0.4C3.6,46.3-1.5,38.1,0.4,30
		C2,23.2,8,18.4,15.1,18.4c1.1,0,2.3,0.1,3.4,0.4c1.7,0.4,3.3,1.1,4.8,2.1c3.2,2.1,5.5,5.3,6.4,9c0.6,2.3,0.6,4.7,0.1,7
		C28.2,43.7,22.1,48.5,15.1,48.5z M15.1,19.4c-6.6,0-12.2,4.5-13.7,10.9c-1.8,7.6,3,15.1,10.5,16.9c1.1,0.2,2.1,0.4,3.2,0.4
		c6.6,0,12.2-4.5,13.7-10.9c0.5-2.2,0.5-4.4,0-6.5c-0.9-3.5-3-6.5-6-8.4c-1.4-0.9-2.9-1.6-4.5-1.9C17.2,19.5,16.1,19.4,15.1,19.4z"
		/>
</g>
<g>
	<circle fill="#D7EEF7" cx="15.1" cy="33.5" r="11.9"/>
	<path fill="#1E2538" d="M15.1,45.9c-0.9,0-1.9-0.1-2.8-0.3c-3.2-0.8-6-2.7-7.7-5.5c-1.8-2.8-2.3-6.1-1.6-9.4C4.3,25,9.3,21,15.1,21
		c0.9,0,1.9,0.1,2.8,0.3c6.7,1.5,10.8,8.2,9.3,14.9C25.9,41.9,20.9,45.9,15.1,45.9z M15.1,22C9.7,22,5.2,25.7,4,30.9
		c-0.7,3-0.2,6,1.4,8.6s4.1,4.4,7.1,5.1c0.9,0.2,1.7,0.3,2.6,0.3c5.3,0,9.9-3.6,11.1-8.8c1.4-6.1-2.4-12.3-8.5-13.7
		C16.8,22.1,15.9,22,15.1,22z"/>
</g>
<g>
	<path fill="#706F6F" d="M31.9,21.3h-1.8c-0.8,0-1.5-0.7-1.5-1.5V8.6c0-0.8,0.7-1.5,1.5-1.5h1.8c0.8,0,1.5,0.7,1.5,1.5v11.3
		C33.3,20.7,32.7,21.3,31.9,21.3z"/>
	<path fill="#1E2538" d="M31.9,21.8h-1.8c-1.1,0-2-0.9-2-2V8.6c0-1.1,0.9-2,2-2h1.8c1.1,0,2,0.9,2,2v11.3
		C33.8,21,32.9,21.8,31.9,21.8z M30.1,7.7c-0.5,0-1,0.4-1,1v11.3c0,0.5,0.4,1,1,1h1.8c0.5,0,1-0.4,1-1V8.6c0-0.5-0.4-1-1-1H30.1z"/>
</g>
<g>
	<path fill="#706F6F" d="M18.4,19.3c1.7,0.4,3.3,1.1,4.6,2c3,1.9,5.1,4.9,6.1,8.3c-0.6-4.6-1.7-13.8-1.9-17l-0.1-0.9
		c-0.3-3.5-3.1-6.5-7-7.2c-4.1-0.7-7.9,1.4-9.3,4.8l-0.2,0.5L2.7,25.8C5.9,20.6,12.1,17.8,18.4,19.3z"/>
	<path fill="#1E2538" d="M29.1,30c-0.2,0-0.4-0.1-0.5-0.4c-0.9-3.3-3-6.1-5.9-8c-1.4-0.9-2.9-1.6-4.5-1.9c-1.1-0.2-2.1-0.4-3.2-0.4
		c-4.8,0-9.4,2.6-12,6.7c-0.1,0.2-0.4,0.3-0.7,0.2c-0.2-0.1-0.3-0.4-0.2-0.7l8.2-16.7c1.2-3.1,4.5-5.3,8.1-5.3
		c0.6,0,1.1,0.1,1.7,0.2c4,0.7,7,3.9,7.4,7.7l0.1,0.9c0.3,3.3,1.4,12.8,1.9,16.9c0,0.1,0,0.1,0,0.2C29.6,29.8,29.4,30,29.1,30
		C29.1,30,29.1,30,29.1,30z M15.1,18.4c1.1,0,2.3,0.1,3.4,0.4c1.7,0.4,3.3,1.1,4.8,2.1c2,1.3,3.7,3.1,4.8,5.2
		c-0.6-4.9-1.3-10.9-1.5-13.4l-0.1-0.9c-0.3-3.3-3-6.1-6.5-6.8c-0.5-0.1-1-0.1-1.5-0.1c-3.2,0-6.1,1.9-7.2,4.7l-0.3,0.5L5,22.3
		C7.7,19.8,11.3,18.4,15.1,18.4z"/>
</g>
<g>
	<path fill="#706F6F" d="M32.8,29.8c0.9-3.6,3.1-6.7,6.2-8.7c1.4-0.9,2.9-1.6,4.7-2c7.8-1.8,15.7,3.1,17.5,10.9
		c1.8,7.8-3.1,15.7-10.9,17.5c-7.8,1.8-15.7-3.1-17.5-10.9C32.2,34.2,32.3,31.9,32.8,29.8z"/>
	<path fill="#1E2538" d="M46.9,48.3c-7,0-13.1-4.8-14.7-11.7c-0.5-2.3-0.5-4.7,0.1-7c0.9-3.7,3.2-6.9,6.4-9c1.5-1,3.1-1.7,4.8-2.1
		c1.1-0.3,2.3-0.4,3.4-0.4c7,0,13.1,4.8,14.7,11.7c1.9,8.1-3.2,16.2-11.3,18.1C49.2,48.2,48.1,48.3,46.9,48.3z M46.9,19.2
		c-1.1,0-2.1,0.1-3.2,0.4c-1.6,0.4-3.1,1-4.5,1.9c-3,2-5.1,5-6,8.4c-0.5,2.2-0.5,4.4,0,6.5c1.5,6.4,7.1,10.9,13.7,10.9
		c1.1,0,2.1-0.1,3.2-0.4c7.6-1.8,12.3-9.3,10.5-16.9C59.2,23.6,53.5,19.2,46.9,19.2z"/>
</g>
<g>
	<circle fill="#D7EEF7" cx="46.9" cy="33.2" r="11.9"/>
	<path fill="#1E2538" d="M46.9,45.7C46.9,45.7,46.9,45.7,46.9,45.7c-5.8,0-10.8-4-12.1-9.6c-1.5-6.7,2.6-13.4,9.3-14.9
		c0.9-0.2,1.9-0.3,2.8-0.3c5.8,0,10.8,4,12.1,9.6c1.5,6.7-2.6,13.4-9.3,14.9C48.8,45.6,47.9,45.7,46.9,45.7z M46.9,21.8
		c-0.9,0-1.7,0.1-2.6,0.3c-6.1,1.4-10,7.6-8.5,13.7c1.2,5.2,5.8,8.8,11.1,8.8c0,0,0,0,0,0c0.9,0,1.7-0.1,2.6-0.3
		c6.1-1.4,10-7.6,8.5-13.7C56.8,25.5,52.3,21.8,46.9,21.8z"/>
</g>
<g>
	<path fill="#706F6F" d="M43.6,19c-1.7,0.4-3.3,1.1-4.6,2c-3,1.9-5.1,4.9-6.1,8.3c0.6-4.6,1.7-13.8,1.9-17l0.1-0.9
		c0.3-3.5,3.1-6.5,7-7.2c4.1-0.7,7.9,1.4,9.3,4.8l0.2,0.5l7.9,16.2C56.2,20.4,49.9,17.6,43.6,19z"/>
	<path fill="#1E2538" d="M32.9,29.8C32.9,29.8,32.9,29.8,32.9,29.8c-0.4-0.1-0.5-0.3-0.5-0.6c0.6-5,1.7-13.8,1.9-17l0.1-1
		c0.3-3.8,3.4-7,7.4-7.7c0.6-0.1,1.1-0.2,1.7-0.2c3.6,0,6.9,2.1,8.1,5.3l0.2,0.4l7.9,16.1c0.1,0.1,0.1,0.2,0.1,0.3
		c0,0.3-0.2,0.5-0.5,0.5c0,0,0,0,0,0c-0.2,0-0.3-0.1-0.4-0.2c-2.5-4.1-7.1-6.7-12-6.7c-1.1,0-2.1,0.1-3.2,0.4
		c-1.6,0.4-3.1,1-4.5,1.9c-2.8,1.9-4.9,4.7-5.9,8C33.3,29.7,33.1,29.8,32.9,29.8z M43.5,4.5c-0.5,0-1,0-1.5,0.1
		c-3.6,0.6-6.3,3.4-6.5,6.8l-0.1,0.9c-0.2,2.5-0.9,8.6-1.5,13.4c1.2-2.1,2.8-3.8,4.8-5.2c1.5-1,3.1-1.7,4.8-2.1
		c1.1-0.3,2.3-0.4,3.4-0.4c3.8,0,7.4,1.4,10.1,3.9L50.7,9.2C49.6,6.3,46.7,4.5,43.5,4.5z"/>
</g>
<g>
	<path fill="#C1DFF7" d="M11.6,31.7l-7.2,7.1c1.5,3.1,4.4,5.5,8,6.3c3.8,0.9,7.5-0.1,10.3-2.4l-2.4-4.2L11.6,31.7z"/>
</g>
<g>
	<path fill="none" d="M23.1,34.8l3.2,2.7c0.2-0.4,0.3-0.9,0.4-1.4c1.5-6.4-2.5-12.8-8.9-14.3C11.4,20.4,5,24.4,3.5,30.8
		C2,37.2,6,43.6,12.4,45.1c3.8,0.9,7.5-0.1,10.3-2.4l-3.4-3.3L23.1,34.8z"/>
</g>
<g>
	<path fill="#C1DFF7" d="M26.3,37.5l-3.2-2.7l-4.3,3.9l3.9,3.9C24.3,41.3,25.5,39.6,26.3,37.5z"/>
</g>
<g>
	<path fill="#1E2538" d="M46.9,45.7C46.9,45.7,46.9,45.7,46.9,45.7c-5.8,0-10.8-4-12.1-9.6c-1.5-6.7,2.6-13.4,9.3-14.9
		c0.9-0.2,1.9-0.3,2.8-0.3c5.8,0,10.8,4,12.1,9.6c1.5,6.7-2.6,13.4-9.3,14.9C48.8,45.6,47.9,45.7,46.9,45.7z M46.9,21.8
		c-0.9,0-1.7,0.1-2.6,0.3c-6.1,1.4-10,7.6-8.5,13.7c1.2,5.2,5.8,8.8,11.1,8.8c0,0,0,0,0,0c0.9,0,1.7-0.1,2.6-0.3
		c6.1-1.4,10-7.6,8.5-13.7C56.8,25.5,52.3,21.8,46.9,21.8z"/>
</g>
<g opacity="0.5">
	<path fill="#FFFFFF" d="M7.6,34c-0.6,0-1.1-0.5-1.1-1.1c0-4.1,3.3-7.5,7.5-7.5c0.6,0,1.1,0.5,1.1,1.1c0,0.6-0.5,1.1-1.1,1.1
		c-2.9,0-5.3,2.4-5.3,5.3C8.7,33.5,8.2,34,7.6,34z"/>
</g>
<g>
	<path fill="#C1DFF7" d="M57.7,36.3c0.6-0.9,1.1-1.8,1.5-2.9l-3.2-2.7l-2.7,2.4L50,30.8l-7.3,5.1c-0.2,0-0.4-0.1-0.6,0
		c-1.6,0.3-2.7-0.8-4.1-1c-1.4-0.2-2.3,0.5-2.3,0.5l1.6,4.2l-0.4,0.1l0.6,0.6l0.2,0.6l0.3-0.1l3.6,3.2l6.4,1.5l-0.3-0.8
		c3.7,0.8,5.3-1,8-3.3l2.3-3.7L57.7,36.3z"/>
</g>
<g>
	<path fill="#1E2538" d="M46.9,45.7C46.9,45.7,46.9,45.7,46.9,45.7c-5.8,0-10.8-4-12.1-9.6c-1.5-6.7,2.6-13.4,9.3-14.9
		c0.9-0.2,1.9-0.3,2.8-0.3c5.8,0,10.8,4,12.1,9.6c1.5,6.7-2.6,13.4-9.3,14.9C48.8,45.6,47.9,45.7,46.9,45.7z M46.9,21.8
		c-0.9,0-1.7,0.1-2.6,0.3c-6.1,1.4-10,7.6-8.5,13.7c1.2,5.2,5.8,8.8,11.1,8.8c0,0,0,0,0,0c0.9,0,1.7-0.1,2.6-0.3
		c6.1-1.4,10-7.6,8.5-13.7C56.8,25.5,52.3,21.8,46.9,21.8z"/>
</g>
<g opacity="0.5">
	<path fill="#FFFFFF" d="M54.4,33.8c0.6,0,1.1-0.5,1.1-1.1c0-4.1-3.3-7.5-7.5-7.5c-0.6,0-1.1,0.5-1.1,1.1c0,0.6,0.5,1.1,1.1,1.1
		c2.9,0,5.3,2.4,5.3,5.3C53.3,33.3,53.8,33.8,54.4,33.8z"/>
</g>
<g>
	<path fill="#C1DFF7" d="M18.7,26.1c0,1.7,1.4,3.1,3.1,3.1c1.5,0,2.8-1.1,3-2.5c-1-1.5-2.3-2.7-3.9-3.6
		C19.7,23.5,18.7,24.7,18.7,26.1z"/>
</g>
<g>
	<path fill="#1E2538" d="M15.1,45.9c-0.9,0-1.9-0.1-2.8-0.3c-3.2-0.8-6-2.7-7.7-5.5c-1.8-2.8-2.3-6.1-1.6-9.4C4.3,25,9.3,21,15.1,21
		c0.9,0,1.9,0.1,2.8,0.3c6.7,1.5,10.8,8.2,9.3,14.9C25.9,41.9,20.9,45.9,15.1,45.9z M15.1,22C9.7,22,5.2,25.7,4,30.9
		c-0.7,3-0.2,6,1.4,8.6s4.1,4.4,7.1,5.1c0.9,0.2,1.7,0.3,2.6,0.3c5.3,0,9.9-3.6,11.1-8.8c1.4-6.1-2.4-12.3-8.5-13.7
		C16.8,22.1,15.9,22,15.1,22z"/>
</g>
</svg>
