<?xml version="1.0" encoding="utf-8"?>
<!-- Generator: Adobe Illustrator 18.1.1, SVG Export Plug-In . SVG Version: 6.00 Build 0)  -->
<svg version="1.1" id="Calque_1" xmlns:sketch="http://www.bohemiancoding.com/sketch/ns"
	 xmlns="http://www.w3.org/2000/svg" xmlns:xlink="http://www.w3.org/1999/xlink" x="0px" y="0px" viewBox="-569 400.9 52 40"
	 enable-background="new -569 400.9 52 40" xml:space="preserve">
<title>Logo</title>
<desc>Created with Sketch.</desc>
<g id="Homepage" sketch:type="MSPage">
	<g id="Product" transform="translate(-236.000000, -30.000000)" sketch:type="MSArtboardGroup">
		<g id="Header" transform="translate(236.000000, 30.000000)" sketch:type="MSLayerGroup">
			<g id="Logo" transform="translate(0.000000, 0.385000)" sketch:type="MSShapeGroup">
				<path id="Fill-1" fill="#FFFFFF" d="M-543.1,400.9h-12.6l12.6,5.4l12.6-5.4H-543.1"/>
				<path id="Fill-2" fill="#FFFFFF" d="M-543.1,407.1l-12.6-5.4v10.8l25.2,10.8v-10.8L-543.1,407.1"/>
				<path id="Fill-3" fill="#FFFFFF" d="M-543,418.7l-12.6,5.2l12.6,5.6l12.6-5.4L-543,418.7"/>
				<path id="Fill-4" fill="#FFFFFF" d="M-565.9,433.9c-0.3,0-0.6,0.1-0.8,0.2c-0.2,0.1-0.3,0.4-0.3,0.6c0,0.3,0.1,0.5,0.3,0.6
					c0.2,0.2,0.7,0.3,1.4,0.5c0.7,0.2,1.3,0.4,1.6,0.7c0.4,0.3,0.5,0.8,0.5,1.4c0,0.6-0.2,1.1-0.7,1.5c-0.5,0.4-1.1,0.6-1.8,0.6
					c-1.1,0-2.1-0.4-2.9-1.1l0.7-0.9c0.7,0.6,1.4,0.9,2.2,0.9c0.4,0,0.7-0.1,0.9-0.2c0.2-0.2,0.3-0.4,0.3-0.7c0-0.3-0.1-0.5-0.3-0.6
					c-0.2-0.2-0.6-0.3-1.1-0.4s-0.9-0.2-1.2-0.3c-0.3-0.1-0.5-0.2-0.7-0.4c-0.4-0.3-0.6-0.8-0.6-1.4c0-0.6,0.2-1.1,0.7-1.5
					c0.5-0.4,1.1-0.5,1.8-0.5c0.4,0,0.9,0.1,1.3,0.2c0.4,0.1,0.8,0.4,1.1,0.6l-0.6,0.9c-0.2-0.2-0.5-0.3-0.8-0.5
					C-565.2,434-565.6,433.9-565.9,433.9"/>
				<path id="Fill-5" fill="#FFFFFF" d="M-560.8,438.4l-0.7,1.6h-1.3l3.1-7h1.3l3.1,7h-1.3l-0.7-1.6H-560.8L-560.8,438.4z
					 M-557.8,437.3l-1.3-2.9l-1.3,2.9H-557.8L-557.8,437.3z"/>
				<path id="Fill-6" fill="#FFFFFF" d="M-549.5,436.6h1.2v2.4c-0.7,0.7-1.6,1.1-2.8,1.1c-1,0-1.9-0.3-2.6-1c-0.7-0.7-1-1.5-1-2.6
					c0-1,0.4-1.9,1.1-2.6c0.7-0.7,1.6-1,2.6-1c1,0,1.9,0.3,2.5,0.9l-0.6,0.9c-0.3-0.2-0.6-0.4-0.8-0.5c-0.3-0.1-0.6-0.1-1-0.1
					c-0.7,0-1.3,0.2-1.8,0.7c-0.5,0.5-0.7,1.1-0.7,1.8c0,0.7,0.2,1.3,0.7,1.8c0.5,0.5,1,0.7,1.7,0.7c0.7,0,1.2-0.1,1.7-0.4V436.6"/>
				<path id="Fill-7" fill="#FFFFFF" d="M-545.8,438.4l-0.7,1.6h-1.3l3.1-7h1.3l3.1,7h-1.3l-0.7-1.6H-545.8L-545.8,438.4z
					 M-542.8,437.3l-1.3-2.9l-1.3,2.9H-542.8L-542.8,437.3z"/>
				<path id="Fill-8" fill="#FFFFFF" d="M-536.1,438.9c0.4,0,0.8-0.1,1.1-0.2c0.3-0.1,0.6-0.4,0.9-0.7l0.8,0.8
					c-0.7,0.8-1.6,1.2-2.7,1.2c-1.1,0-1.9-0.3-2.6-1c-0.7-0.7-1-1.5-1-2.6c0-1,0.4-1.9,1.1-2.6c0.7-0.7,1.6-1,2.7-1
					c1.1,0,2,0.4,2.7,1.2l-0.8,0.8c-0.3-0.3-0.7-0.5-0.9-0.7c-0.3-0.1-0.6-0.2-1-0.2c-0.7,0-1.3,0.2-1.8,0.7c-0.5,0.5-0.7,1-0.7,1.8
					c0,0.7,0.2,1.3,0.7,1.8C-537.4,438.7-536.8,438.9-536.1,438.9"/>
				<path id="Fill-9" fill="#FFFFFF" d="M-532,433h1.2v7h-1.2V433z"/>
				<path id="Fill-10" fill="#FFFFFF" d="M-527.6,434.1v1.9h3.1v1.1h-3.1v2.9h-1.2v-7h4.7l0,1.1H-527.6"/>
				<path id="Fill-11" fill="#FFFFFF" d="M-520,440h-1.2v-2.8l-2.6-4.2h1.3l1.9,3.2l1.9-3.2h1.3l-2.6,4.2V440"/>
			</g>
		</g>
	</g>
</g>
</svg>
