<?xml version="1.0" encoding="UTF-8" standalone="no"?>
<svg width="52px" height="40px" viewBox="0 0 52 40" version="1.1" xmlns="http://www.w3.org/2000/svg" xmlns:xlink="http://www.w3.org/1999/xlink" xmlns:sketch="http://www.bohemiancoding.com/sketch/ns">
    <!-- Generator: Sketch 3.3.1 (12005) - http://www.bohemiancoding.com/sketch -->
    <title>Logo</title>
    <desc>Created with Sketch.</desc>
    <defs></defs>
    <g id="Homepage" stroke="none" stroke-width="1" fill="none" fill-rule="evenodd" sketch:type="MSPage">
        <g id="Product" sketch:type="MSArtboardGroup" transform="translate(-236.000000, -30.000000)">
            <g id="Header" sketch:type="MSLayerGroup" transform="translate(236.000000, 30.000000)">
                <g id="Logo" transform="translate(0.000000, 0.385000)" sketch:type="MSShapeGroup">
                    <path d="M25.9266168,0.028090617 L13.2988785,0.028090617 L25.9266168,5.38855525 L38.5553271,0.028090617 L25.9266168,0.028090617" id="Fill-1" fill="#34E27E"></path>
                    <path d="M25.922729,6.21868141 L13.3022804,0.837875299 L13.3022804,11.5994875 L38.5431776,22.3601311 L38.5431776,11.5994875 L25.922729,6.21868141" id="Fill-2" fill="#34E27E"></path>
                    <path d="M26.0092336,17.8196219 L13.3737196,23.0686927 L25.9965981,28.6659903 L38.6447477,23.3001981 L26.0092336,17.8196219" id="Fill-3" fill="#34E27E"></path>
                    <path d="M3.08986916,33.0486108 C2.74530841,33.0486108 2.46246729,33.1188374 2.24134579,33.2588062 C2.0202243,33.3987749 1.90990654,33.6104232 1.90990654,33.8947196 C1.90990654,34.1780474 2.0202243,34.3945389 2.24134579,34.5446784 C2.46246729,34.6953022 2.93241121,34.8565811 3.65214953,35.029968 C4.37140187,35.2033549 4.91327103,35.4469684 5.27824299,35.760324 C5.64321495,36.0736797 5.82545794,36.5362062 5.82545794,37.1459664 C5.82545794,37.7566951 5.59461682,38.2516712 5.13293458,38.6318631 C4.67076636,39.0120551 4.06523364,39.2019089 3.31585047,39.2019089 C2.21753271,39.2019089 1.24411215,38.8260758 0.394130841,38.0719881 L1.13719626,37.1808375 C1.84624299,37.7949565 2.58299065,38.102016 3.34549533,38.102016 C3.72699065,38.102016 4.02975701,38.0196814 4.25476636,37.8569496 C4.47831776,37.6932491 4.59057944,37.4767576 4.59057944,37.2065065 C4.59057944,36.9362554 4.4851215,36.7260601 4.27469159,36.5759206 C4.0637757,36.4252967 3.70074766,36.2896869 3.1851215,36.1657007 C2.66949533,36.0417145 2.27828037,35.9288677 2.01050467,35.825223 C1.74272897,35.7220627 1.50508411,35.5869371 1.29757009,35.4198464 C0.882542056,35.1064907 0.675028037,34.6270129 0.675028037,33.9794758 C0.675028037,33.3324229 0.911214953,32.8340567 1.3831028,32.4838926 C1.85499065,32.1337285 2.43865421,31.9584043 3.13506542,31.9584043 C3.58314019,31.9584043 4.02878505,32.0320211 4.47005607,32.178286 C4.91181308,32.3250353 5.29330841,32.5318404 5.61502804,32.7987012 L4.98228037,33.6898518 C4.77476636,33.5024196 4.49338318,33.3493742 4.1391028,33.2287783 C3.78385047,33.109151 3.43442991,33.0486108 3.08986916,33.0486108" id="Fill-4" fill="#1E2538"></path>
                    <path d="M8.21502804,37.5310015 L7.51229907,39.121996 L6.24728972,39.121996 L9.3391028,32.1288853 L10.6041121,32.1288853 L13.6973832,39.121996 L12.4309159,39.121996 L11.7281869,37.5310015 L8.21502804,37.5310015 L8.21502804,37.5310015 Z M11.2470654,36.440795 L9.97233645,33.5595695 L8.6971215,36.440795 L11.2470654,36.440795 L11.2470654,36.440795 Z" id="Fill-5" fill="#1E2538"></path>
                    <path d="M19.5291589,35.7201254 L20.7139813,35.7201254 L20.7139813,38.1117024 C20.0515888,38.8386682 19.1044112,39.2019089 17.8734206,39.2019089 C16.8358505,39.2019089 15.9669159,38.8623999 15.2675888,38.1819289 C14.5682617,37.5009736 14.2188411,36.6413039 14.2188411,35.6004981 C14.2188411,34.5601766 14.5750654,33.6927578 15.288,32.9992101 C16.0004486,32.3051781 16.8625794,31.9584043 17.8734206,31.9584043 C18.8837757,31.9584043 19.7235514,32.2514185 20.3927477,32.8388999 L19.760486,33.7392526 C19.4859065,33.5058099 19.2098692,33.344531 18.9318879,33.2539629 C18.6543925,33.1638792 18.3317009,33.1188374 17.9628411,33.1188374 C17.2537944,33.1188374 16.6584673,33.3474369 16.1763738,33.8046359 C15.6942804,34.2613506 15.4532336,34.8614243 15.4532336,35.6053413 C15.4532336,36.348774 15.6874766,36.9459418 16.1564486,37.395876 C16.6249346,37.8462945 17.1915888,38.0719881 17.8578692,38.0719881 C18.5236636,38.0719881 19.0805981,37.9286291 19.5291589,37.6409424 L19.5291589,35.7201254" id="Fill-6" fill="#1E2538"></path>
                    <path d="M23.1934579,37.5310015 L22.491215,39.121996 L21.2262056,39.121996 L24.3185047,32.1288853 L25.583514,32.1288853 L28.6758131,39.121996 L27.4103178,39.121996 L26.7075888,37.5310015 L23.1934579,37.5310015 L23.1934579,37.5310015 Z M26.2254953,36.440795 L24.9512523,33.5595695 L23.6755514,36.440795 L26.2254953,36.440795 L26.2254953,36.440795 Z" id="Fill-7" fill="#1E2538"></path>
                    <path d="M32.8528224,38.0516466 C33.2600748,38.0516466 33.6114393,37.982873 33.9064299,37.8462945 C34.2009346,37.709716 34.5085607,37.4912872 34.8307664,37.1910082 L35.592785,37.9717336 C34.8502056,38.7916891 33.9482243,39.2019089 32.8878131,39.2019089 C31.8264299,39.2019089 30.9463178,38.8623999 30.2469907,38.1819289 C29.5476636,37.5009736 29.198243,36.6413039 29.198243,35.6004981 C29.198243,34.5601766 29.5544673,33.6927578 30.2674019,32.9992101 C30.9798505,32.3051781 31.8803738,31.9584043 32.968,31.9584043 C34.0551402,31.9584043 34.9639252,32.3584534 35.6933832,33.1585517 L34.9410841,33.9794758 C34.605757,33.6593396 34.2898692,33.4355833 33.9914766,33.3091755 C33.6940561,33.1822834 33.3446355,33.1188374 32.942243,33.1188374 C32.2331963,33.1188374 31.6378692,33.3474369 31.1557757,33.8046359 C30.6736822,34.2613506 30.4326355,34.8449574 30.4326355,35.5549719 C30.4326355,36.2659551 30.6722243,36.8592483 31.1509159,37.3367888 C31.6296075,37.8128763 32.1967477,38.0516466 32.8528224,38.0516466" id="Fill-8" fill="#1E2538"></path>
                    <path d="M37.0380935,32.1288853 L38.2229159,32.1288853 L38.2229159,39.1224803 L37.0380935,39.1224803 L37.0380935,32.1288853 Z" id="Fill-9" fill="#1E2538"></path>
                    <path d="M41.3555514,33.2287783 L41.3555514,35.1505639 L44.4677757,35.1505639 L44.4677757,36.2407704 L41.3555514,36.2407704 L41.3555514,39.121996 L40.170729,39.121996 L40.170729,32.1288853 L44.849271,32.1288853 L44.8390654,33.2287783 L41.3555514,33.2287783" id="Fill-10" fill="#1E2538"></path>
                    <path d="M48.9956636,39.121996 L47.7914019,39.121996 L47.7914019,36.360882 L45.1807103,32.1288853 L46.4758505,32.1288853 L48.3935327,35.3099055 L50.310729,32.1288853 L51.6058692,32.1288853 L48.9956636,36.360882 L48.9956636,39.121996" id="Fill-11" fill="#1E2538"></path>
                </g>
            </g>
        </g>
    </g>
</svg>